<svg width="453" height="412" viewBox="0 0 453 412" fill="none" xmlns="http://www.w3.org/2000/svg">
<path d="M351.242 411.579C349.613 411.579 347.993 411.336 346.435 410.859L11.6788 308.689C7.49623 307.408 3.99286 304.519 1.93729 300.658C-0.118289 296.796 -0.558201 292.277 0.714067 288.092L85.0768 11.6791C86.3584 7.49637 89.2469 3.99285 93.1084 1.93723C96.97 -0.118397 101.489 -0.558223 105.675 0.714235L440.43 102.884C444.613 104.165 448.117 107.054 450.172 110.915C452.228 114.777 452.668 119.296 451.395 123.482L367.033 399.894C365.996 403.275 363.903 406.234 361.061 408.337C358.219 410.44 354.778 411.576 351.242 411.579Z" fill="#F2F2F2"/>
<path d="M351.242 411.579C349.613 411.579 347.993 411.336 346.435 410.859L11.6788 308.689C7.49623 307.408 3.99286 304.519 1.93729 300.658C-0.118289 296.796 -0.558201 292.277 0.714067 288.092L85.0768 11.6791C86.3584 7.49637 89.2469 3.99285 93.1084 1.93723C96.97 -0.118397 101.489 -0.558223 105.675 0.714235L440.43 102.884C444.613 104.165 448.117 107.054 450.172 110.915C452.228 114.777 452.668 119.296 451.395 123.482L367.033 399.894C365.996 403.275 363.903 406.234 361.061 408.337C358.219 410.44 354.778 411.576 351.242 411.579Z" fill="#F2F2F2"/>
<g filter="url(#filter0_dddd_186_19)">
<path d="M35 92H33V94V320V322H35H399C401.761 322 404 319.761 404 317V94V92H402H35Z" stroke="#1976D2" stroke-width="4" shape-rendering="crispEdges"/>
</g>
<path d="M308.633 342.266C316.714 342.266 323.266 335.714 323.266 327.633C323.266 319.551 316.714 313 308.633 313C300.551 313 294 319.551 294 327.633C294 335.714 300.551 342.266 308.633 342.266Z" fill="#DBB7B7"/>
<path d="M424.524 93.7621C424.524 94.323 424.508 94.8758 424.459 95.4205C424.213 98.7964 423.217 102.075 421.544 105.017C419.87 107.96 417.561 110.492 414.786 112.429C412.01 114.366 408.837 115.66 405.498 116.216C402.159 116.772 398.738 116.576 395.485 115.643C392.231 114.71 389.226 113.062 386.69 110.821C384.153 108.58 382.148 105.801 380.822 102.687C379.495 99.573 378.879 96.2022 379.02 92.8202C379.16 89.4382 380.053 86.1302 381.634 83.137C382.123 82.199 382.683 81.2995 383.309 80.4462C386.031 76.6708 389.845 73.821 394.237 72.2812C398.63 70.7414 403.389 70.5857 407.872 71.8351C412.356 73.0844 416.349 75.6788 419.312 79.2682C422.275 82.8576 424.066 87.2694 424.443 91.9085C424.5 92.5183 424.524 93.1361 424.524 93.7621Z" fill="#3F3D56"/>
<path d="M218.633 108.266C226.714 108.266 233.266 101.714 233.266 93.6328C233.266 85.5513 226.714 79 218.633 79C210.551 79 204 85.5513 204 93.6328C204 101.714 210.551 108.266 218.633 108.266Z" fill="#DBB7B7"/>
<path d="M30.6328 179.266C38.7143 179.266 45.2656 172.714 45.2656 164.633C45.2656 156.551 38.7143 150 30.6328 150C22.5513 150 16 156.551 16 164.633C16 172.714 22.5513 179.266 30.6328 179.266Z" fill="#FF6584"/>
<defs>
<filter id="filter0_dddd_186_19" x="27" y="90" width="383" height="242" filterUnits="userSpaceOnUse" color-interpolation-filters="sRGB">
<feFlood flood-opacity="0" result="BackgroundImageFix"/>
<feColorMatrix in="SourceAlpha" type="matrix" values="0 0 0 0 0 0 0 0 0 0 0 0 0 0 0 0 0 0 127 0" result="hardAlpha"/>
<feOffset dy="4"/>
<feGaussianBlur stdDeviation="2"/>
<feComposite in2="hardAlpha" operator="out"/>
<feColorMatrix type="matrix" values="0 0 0 0 0 0 0 0 0 0 0 0 0 0 0 0 0 0 0.25 0"/>
<feBlend mode="normal" in2="BackgroundImageFix" result="effect1_dropShadow_186_19"/>
<feColorMatrix in="SourceAlpha" type="matrix" values="0 0 0 0 0 0 0 0 0 0 0 0 0 0 0 0 0 0 127 0" result="hardAlpha"/>
<feOffset dy="4"/>
<feGaussianBlur stdDeviation="2"/>
<feComposite in2="hardAlpha" operator="out"/>
<feColorMatrix type="matrix" values="0 0 0 0 0 0 0 0 0 0 0 0 0 0 0 0 0 0 0.25 0"/>
<feBlend mode="normal" in2="effect1_dropShadow_186_19" result="effect2_dropShadow_186_19"/>
<feColorMatrix in="SourceAlpha" type="matrix" values="0 0 0 0 0 0 0 0 0 0 0 0 0 0 0 0 0 0 127 0" result="hardAlpha"/>
<feOffset dy="4"/>
<feGaussianBlur stdDeviation="2"/>
<feComposite in2="hardAlpha" operator="out"/>
<feColorMatrix type="matrix" values="0 0 0 0 0 0 0 0 0 0 0 0 0 0 0 0 0 0 0.25 0"/>
<feBlend mode="normal" in2="effect2_dropShadow_186_19" result="effect3_dropShadow_186_19"/>
<feColorMatrix in="SourceAlpha" type="matrix" values="0 0 0 0 0 0 0 0 0 0 0 0 0 0 0 0 0 0 127 0" result="hardAlpha"/>
<feOffset dy="4"/>
<feGaussianBlur stdDeviation="2"/>
<feComposite in2="hardAlpha" operator="out"/>
<feColorMatrix type="matrix" values="0 0 0 0 0 0 0 0 0 0 0 0 0 0 0 0 0 0 0.25 0"/>
<feBlend mode="normal" in2="effect3_dropShadow_186_19" result="effect4_dropShadow_186_19"/>
<feBlend mode="normal" in="SourceGraphic" in2="effect4_dropShadow_186_19" result="shape"/>
</filter>
</defs>
</svg>
