<svg xmlns="http://www.w3.org/2000/svg" xmlns:xlink="http://www.w3.org/1999/xlink" viewBox="0 0 400 400" width="400" height="400">
  <svg xmlns="http://www.w3.org/2000/svg" xmlns:xlink="http://www.w3.org/1999/xlink" viewBox="0 0 400 400" width="380" height="380" x="10" y="10">
<path fill="#1266f1" d="M200,0C89.5,0,0,89.5,0,200c0,110.4,89.5,200,200,200c110.4,0,200-89.5,200-200S310.5,0,200,0z"/>
<path fill="#E8F3F5" d="M200,19.5c-99.7,0-180.5,80.8-180.5,180.5S100.3,380.5,200,380.5S380.5,299.7,380.5,200S299.7,19.5,200,19.5z   M59.2,243c0,2.7-2.2,4.9-4.9,4.9s-4.9-2.2-4.9-4.9l0,0l0,0c0-2.7,2.2-4.9,4.9-4.9S59.2,240.3,59.2,243  C59.2,242.9,59.2,242.9,59.2,243C59.2,242.9,59.2,242.9,59.2,243z M74.7,277.9c0,2.7-2.2,4.9-4.9,4.9s-4.9-2.2-4.9-4.9l0,0l0,0  c0-2.7,2.2-4.9,4.9-4.9S74.7,275.2,74.7,277.9L74.7,277.9L74.7,277.9z M97.4,307.3c0,2.6-2.1,4.6-4.7,4.6c-1,0-1.9-0.3-2.6-0.8  c-1.2-0.8-2.1-2.3-2.1-3.9l0,0l0,0c0-0.6,0.1-1.3,0.4-1.8c0.1-0.3,0.3-0.5,0.4-0.8c0.3-0.5,0.8-0.9,1.3-1.3c0.7-0.5,1.6-0.8,2.6-0.8  c1.9,0,3.6,1.2,4.3,2.8C97.2,306,97.4,306.6,97.4,307.3L97.4,307.3L97.4,307.3z M127.7,332.8c-0.2,0.6-0.6,1.1-1,1.5  c-0.9,0.9-2.1,1.4-3.4,1.4c-0.7,0-1.3-0.1-1.9-0.4s-1.1-0.6-1.5-1c-0.9-0.9-1.4-2.1-1.4-3.4s0.5-2.6,1.4-3.4c0.4-0.4,1-0.8,1.5-1  c0.6-0.2,1.2-0.4,1.9-0.4c2.7,0,4.9,2.2,4.9,4.9C128.1,331.6,128,332.2,127.7,332.8z M160.9,345.2c0,2.7-2.2,4.9-4.9,4.9  s-4.8-2.2-4.8-4.9l0,0l0,0c0-2.7,2.2-4.9,4.8-4.9C158.7,340.3,160.9,342.5,160.9,345.2L160.9,345.2L160.9,345.2z M246.4,57.8  c-0.9,0.9-2.1,1.4-3.4,1.4c-2.7,0-4.9-2.2-4.9-4.9c0-1.3,0.5-2.6,1.4-3.4c0.9-0.9,2.1-1.4,3.4-1.4c2.7,0,4.9,2.2,4.9,4.9  C247.8,55.7,247.3,56.9,246.4,57.8z M282.8,69.8c0,2.7-2.2,4.9-4.8,4.9c-2.7,0-4.9-2.2-4.9-4.9l0,0l0,0c0-2.7,2.2-4.9,4.9-4.9  C280.6,64.9,282.8,67.1,282.8,69.8L282.8,69.8L282.8,69.8z M311.9,92.7c0,2.6-2.1,4.7-4.6,4.7s-4.7-2.1-4.7-4.7l0,0l0,0  c0-2.6,2.1-4.6,4.7-4.6S311.9,90.2,311.9,92.7L311.9,92.7L311.9,92.7z M330.9,128.1c-2.7,0-4.9-2.2-4.9-4.8c0-1.3,0.5-2.6,1.4-3.4  c0.9-0.9,2.1-1.4,3.4-1.4c2.7,0,4.9,2.2,4.9,4.9c0,1-0.3,1.9-0.8,2.7C334.1,127.3,332.6,128.1,330.9,128.1z M347.9,160.1  c-0.8,0.5-1.7,0.8-2.7,0.8c-2.7,0-4.9-2.2-4.9-4.9s2.2-4.8,4.9-4.8s4.8,2.2,4.8,4.8c0,0.3,0,0.7-0.1,1  C349.7,158.3,349,159.4,347.9,160.1z"/>
<path fill="#1266f1" d="M200,375.8C103,375.8,24.2,297,24.2,200S103,24.2,200,24.2S375.8,103.1,375.8,200S297,375.8,200,375.8z   M200,29.1c-94.2,0-170.9,76.7-170.9,170.9S105.8,370.9,200,370.9S370.9,294.3,370.9,200S294.2,29.1,200,29.1z"/>
</svg>
  <svg xmlns="http://www.w3.org/2000/svg" xmlns:xlink="http://www.w3.org/1999/xlink" version="1.1" id="&#x421;&#x43B;&#x43E;&#x439;_1" viewBox="0 0 80 80" width="209" height="209" x="102" y="82">
<path fill="#1266f1" d="M77.79,55.03H54.83V35.57c0-1.23-1-2.23-2.23-2.23H27.42c-1.23,0-2.23,1-2.23,2.23v8.62H2.23   C1,44.19,0,45.19,0,46.42v21.7c0,1.23,0.99,2.23,2.22,2.23c1.23,0,2.23-1,2.23-2.23V48.66h22.96c1.23,0,2.23-1,2.23-2.23v-8.62   h20.72v19.46c0,1.23,1,2.23,2.23,2.23h22.95v8.61c0,1.23,1,2.23,2.23,2.23c1.23,0,2.23-0.99,2.25-2.23V57.26   C80.02,56.03,79.02,55.03,77.79,55.03z"/>
	<path fill="#1266f1" d="M42.84,28.39h2.67v-1.33l-2.72-0.77c-0.02-1.11-0.03-2.22-0.03-3.28v-7.2l0.1-3.69l-0.36-0.26l-6.91,1.46v1.69   l2.16-0.21v8.21c0,1.07-0.01,2.18-0.03,3.3l-2.94,0.75v1.33h2.89H42.84z"/>
	<path fill="#1266f1" d="M9.67,28c0.83,0,1.84-0.39,2.1-2.37l0.25-1.85c0.13-0.01,0.26-0.02,0.4-0.02c1.5,0,2.44,1.09,2.44,3.07   c0,2.47-1.27,3.97-3.66,6.39c-1.04,1.04-2.15,2.11-3.27,3.2v2.57h12.05v-3.64h-8.73c0.64-0.38,1.27-0.75,1.93-1.14   c4.45-2.55,6.63-4.73,6.63-7.33c0-2.52-1.69-4.52-5.61-4.52c-3.49,0-6.37,1.59-6.37,4.5C8.16,27.56,8.86,28,9.67,28z"/>
	<path fill="#1266f1" d="M65.42,50.26c4.32,0,6.76-1.95,6.76-4.63c0-2.3-1.1-3.79-4.3-4.35c2.8-0.71,3.8-2.36,3.8-3.88   c0-2.33-1.84-4.18-6-4.18c-2.89,0-5.51,1.3-5.33,4.34c0.31,0.44,0.88,0.78,1.53,0.78c0.96,0,1.92-0.47,2.1-1.87l0.25-1.83   c0.06,0,0.14-0.01,0.19-0.01c1.53,0,2.44,0.93,2.44,2.96c0,2.29-1.12,3.12-2.96,3.12v-0.02h-0.65v1.51h0.78   c1.95,0,3.07,1.09,3.07,3.2c0,2.42-1.17,3.43-3.35,3.43c-0.1,0-0.18-0.01-0.27-0.02l-0.16-1.87c-0.18-1.98-0.94-2.5-2.08-2.5   c-0.67,0-1.43,0.36-1.74,1.27C59.5,48.52,61.39,50.26,65.42,50.26z"/>
</svg>
</svg>
