<svg xmlns="http://www.w3.org/2000/svg" xmlns:xlink="http://www.w3.org/1999/xlink" viewBox="0 0 400 400" width="400" height="400">
  <svg xmlns="http://www.w3.org/2000/svg" xmlns:xlink="http://www.w3.org/1999/xlink" viewBox="0 0 400 400" width="380" height="380" x="10" y="10">
<path fill="#1266f1" d="M200,0C89.5,0,0,89.5,0,200c0,110.4,89.5,200,200,200c110.4,0,200-89.5,200-200S310.5,0,200,0z"/>
<path fill="#E8F3F5" d="M200,19.5c-99.7,0-180.5,80.8-180.5,180.5S100.3,380.5,200,380.5S380.5,299.7,380.5,200S299.7,19.5,200,19.5z   M59.2,243c0,2.7-2.2,4.9-4.9,4.9s-4.9-2.2-4.9-4.9l0,0l0,0c0-2.7,2.2-4.9,4.9-4.9S59.2,240.3,59.2,243  C59.2,242.9,59.2,242.9,59.2,243C59.2,242.9,59.2,242.9,59.2,243z M74.7,277.9c0,2.7-2.2,4.9-4.9,4.9s-4.9-2.2-4.9-4.9l0,0l0,0  c0-2.7,2.2-4.9,4.9-4.9S74.7,275.2,74.7,277.9L74.7,277.9L74.7,277.9z M97.4,307.3c0,2.6-2.1,4.6-4.7,4.6c-1,0-1.9-0.3-2.6-0.8  c-1.2-0.8-2.1-2.3-2.1-3.9l0,0l0,0c0-0.6,0.1-1.3,0.4-1.8c0.1-0.3,0.3-0.5,0.4-0.8c0.3-0.5,0.8-0.9,1.3-1.3c0.7-0.5,1.6-0.8,2.6-0.8  c1.9,0,3.6,1.2,4.3,2.8C97.2,306,97.4,306.6,97.4,307.3L97.4,307.3L97.4,307.3z M127.7,332.8c-0.2,0.6-0.6,1.1-1,1.5  c-0.9,0.9-2.1,1.4-3.4,1.4c-0.7,0-1.3-0.1-1.9-0.4s-1.1-0.6-1.5-1c-0.9-0.9-1.4-2.1-1.4-3.4s0.5-2.6,1.4-3.4c0.4-0.4,1-0.8,1.5-1  c0.6-0.2,1.2-0.4,1.9-0.4c2.7,0,4.9,2.2,4.9,4.9C128.1,331.6,128,332.2,127.7,332.8z M160.9,345.2c0,2.7-2.2,4.9-4.9,4.9  s-4.8-2.2-4.8-4.9l0,0l0,0c0-2.7,2.2-4.9,4.8-4.9C158.7,340.3,160.9,342.5,160.9,345.2L160.9,345.2L160.9,345.2z M246.4,57.8  c-0.9,0.9-2.1,1.4-3.4,1.4c-2.7,0-4.9-2.2-4.9-4.9c0-1.3,0.5-2.6,1.4-3.4c0.9-0.9,2.1-1.4,3.4-1.4c2.7,0,4.9,2.2,4.9,4.9  C247.8,55.7,247.3,56.9,246.4,57.8z M282.8,69.8c0,2.7-2.2,4.9-4.8,4.9c-2.7,0-4.9-2.2-4.9-4.9l0,0l0,0c0-2.7,2.2-4.9,4.9-4.9  C280.6,64.9,282.8,67.1,282.8,69.8L282.8,69.8L282.8,69.8z M311.9,92.7c0,2.6-2.1,4.7-4.6,4.7s-4.7-2.1-4.7-4.7l0,0l0,0  c0-2.6,2.1-4.6,4.7-4.6S311.9,90.2,311.9,92.7L311.9,92.7L311.9,92.7z M330.9,128.1c-2.7,0-4.9-2.2-4.9-4.8c0-1.3,0.5-2.6,1.4-3.4  c0.9-0.9,2.1-1.4,3.4-1.4c2.7,0,4.9,2.2,4.9,4.9c0,1-0.3,1.9-0.8,2.7C334.1,127.3,332.6,128.1,330.9,128.1z M347.9,160.1  c-0.8,0.5-1.7,0.8-2.7,0.8c-2.7,0-4.9-2.2-4.9-4.9s2.2-4.8,4.9-4.8s4.8,2.2,4.8,4.8c0,0.3,0,0.7-0.1,1  C349.7,158.3,349,159.4,347.9,160.1z"/>
<path fill="#1266f1" d="M200,375.8C103,375.8,24.2,297,24.2,200S103,24.2,200,24.2S375.8,103.1,375.8,200S297,375.8,200,375.8z   M200,29.1c-94.2,0-170.9,76.7-170.9,170.9S105.8,370.9,200,370.9S370.9,294.3,370.9,200S294.2,29.1,200,29.1z"/>
</svg>
  <svg xmlns="http://www.w3.org/2000/svg" xmlns:xlink="http://www.w3.org/1999/xlink" version="1.1" id="&#x421;&#x43B;&#x43E;&#x439;_1" viewBox="0 0 80 80" width="198" height="198" x="101" y="101">
<path fill="#1266f1" d="M79.4,30.9c-1.2-5.4-4.4-10.8-8.7-10c-0.1,0-0.1,0-0.2,0.1c-6.2,2.3-14.3,4.4-22.6,6c0,0-0.1,0-0.1,0l0,0  c-3.1,0.5-6.1,1-9,1.4h0c-0.2,0-0.3,0-0.5,0.1h0c-8.5,1-20.5,1.8-30.7-0.1c-0.3-0.1-0.7-0.2-1-0.2c0,0,0,0,0,0c-0.1,0-0.2,0-0.4,0  c-0.4,0-0.8,0-1.2,0.1c-0.7,0.1-1.2,0.9-1.1,1.6c0.1,0.7,0.9,1.2,1.6,1.1c0.2,0,0.5-0.1,0.7,0c0.2,0,0.5,0.1,0.7,0.1  c2.6,0.8,5.4,5.4,6.6,11l0,0c1.3,6,0.7,12.5-1.3,14c-1.3,0.6-2.2,0.7-2.7,0.5c-1.8-0.8-4.5-4.2-6-9.8c-1.4-5.2-0.5-9.1,0.7-9.5  C4.4,37,5,37.3,5.8,38.3c0.9,1.2,1.8,2.9,2.3,4.8c0.9,3.3,0.2,5.3-0.1,5.4c-0.7,0.2-1.1,0.9-0.9,1.7c0.2,0.7,0.9,1.1,1.7,0.9  c0.5-0.1,1.2-0.5,1.8-1.5c0.9-1.6,1-4.4,0.2-7.3c-0.6-2.3-1.6-4.4-2.8-5.8c-1.9-2.4-3.7-2.3-4.5-2.1c-3.2,0.9-4.3,6.4-2.6,12.8  C2.4,53,5.4,57.6,8.4,58.9c0.6,0.2,1.1,0.3,1.7,0.3c1.2,0,2.4-0.4,3.3-0.8c0,0,0.1,0,0.1-0.1c0.4-0.2,0.8-0.4,1.2-0.6l0.2-0.1  c7.6-3.9,16.6-7.2,25.8-9.6c2,4.2,5.5,7.3,9.9,8.9c0,0,0,0,0,0s0,0,0,0c0,0,0,0,0,0c0.1,0,0.1,0,0.2,0c0,0,0,0,0,0  c0.1,0,0.1,0,0.2,0l0,0l0,0c0,0,0,0,0,0c0.1,0,0.1,0,0.2,0c0,0,0,0,0.1,0c0,0,0.1,0,0.1,0c0,0,0,0,0.1,0c0,0,0.1,0,0.1,0  c0,0,0,0,0.1,0c0,0,0.1,0,0.1-0.1c0,0,0,0,0.1,0c0,0,0.1,0,0.1-0.1c0,0,0,0,0.1,0c0,0,0-0.1,0.1-0.1c0,0,0,0,0-0.1  c0,0,0-0.1,0.1-0.1c0,0,0,0,0-0.1l0,0c0.5-1.1,0.9-2.3,1-3.6c2.3,0.4,5.5,0.4,9.6-1.3c0,0,0,0,0,0c0,0,0,0,0,0c0,0,0,0,0.1,0  c0.1,0,0.1,0,0.2-0.1c0,0,0.1,0,0.1-0.1c0,0,0.1-0.1,0.1-0.1s0-0.1,0.1-0.1c0,0,0.1-0.1,0.1-0.1c0,0,0-0.1,0.1-0.1  c0,0,0-0.1,0.1-0.1c0,0,0-0.1,0-0.1c0,0,0-0.1,0-0.1c0,0,0-0.1,0-0.1c0,0,0,0,0-0.1c0,0,0,0,0,0c0,0,0-0.1,0-0.1c0,0,0-0.1,0-0.1  c0,0,0-0.1,0-0.1c0,0,0-0.1,0-0.1c0,0,0,0,0,0c0,0,0,0,0-0.1c0,0,0-0.1-0.1-0.1c0,0,0-0.1-0.1-0.1c0,0,0-0.1-0.1-0.1  c0,0-0.1-0.1-0.1-0.1s-0.1-0.1-0.1-0.1c0,0-0.1,0-0.1-0.1c0,0-0.1,0-0.1-0.1c0,0-0.1,0-0.1,0c0,0-0.1,0-0.1,0c0,0-0.1,0-0.1,0  c0,0,0,0-0.1,0c-4.5-0.5-6.7-1.6-8.3-3.4c7.4-1.1,14.6-1.4,21.6-1.1c0.1,0,0.2,0,0.4,0c0.7-0.1,1.6-0.6,2.4-1.8  C80.4,39.7,80.3,34.5,79.4,30.9z M45.6,36.6c-0.5-2.2-1.4-4.5-2.7-6.1c1.8-0.3,3.6-0.6,5.5-0.9l0,0c0,0,0,0,0.1,0  c1.3-0.2,3.1,2.5,3.9,5.9c0.8,3.6,0.2,6.9-0.5,7.4c-2,0.3-4,0.7-6.1,1.1C46.3,41.7,46.1,38.7,45.6,36.6z M56.5,50.1  c-1.7,0.1-3-0.2-4.2-0.5c-0.4-0.1-0.9,0-1.2,0.3c-0.3,0.3-0.5,0.7-0.5,1.2c0.1,0.8,0,1.9-0.3,2.8c-3.6-1.6-5.7-4.2-6.9-6.5  c0,0,0,0,0,0c2.6-0.6,5.3-1.1,7.8-1.6C52.7,47.8,54.3,49.2,56.5,50.1z"/>
</svg>
</svg>
