<svg xmlns="http://www.w3.org/2000/svg" xmlns:xlink="http://www.w3.org/1999/xlink" viewBox="0 0 400 400" width="400" height="400">
  <svg xmlns="http://www.w3.org/2000/svg" xmlns:xlink="http://www.w3.org/1999/xlink" viewBox="0 0 400 400" width="380" height="380" x="10" y="10">
<path fill="#1266f1" d="M200,0C89.5,0,0,89.5,0,200c0,110.4,89.5,200,200,200c110.4,0,200-89.5,200-200S310.5,0,200,0z"/>
<path fill="#E8F3F5" d="M200,19.5c-99.7,0-180.5,80.8-180.5,180.5S100.3,380.5,200,380.5S380.5,299.7,380.5,200S299.7,19.5,200,19.5z   M59.2,243c0,2.7-2.2,4.9-4.9,4.9s-4.9-2.2-4.9-4.9l0,0l0,0c0-2.7,2.2-4.9,4.9-4.9S59.2,240.3,59.2,243  C59.2,242.9,59.2,242.9,59.2,243C59.2,242.9,59.2,242.9,59.2,243z M74.7,277.9c0,2.7-2.2,4.9-4.9,4.9s-4.9-2.2-4.9-4.9l0,0l0,0  c0-2.7,2.2-4.9,4.9-4.9S74.7,275.2,74.7,277.9L74.7,277.9L74.7,277.9z M97.4,307.3c0,2.6-2.1,4.6-4.7,4.6c-1,0-1.9-0.3-2.6-0.8  c-1.2-0.8-2.1-2.3-2.1-3.9l0,0l0,0c0-0.6,0.1-1.3,0.4-1.8c0.1-0.3,0.3-0.5,0.4-0.8c0.3-0.5,0.8-0.9,1.3-1.3c0.7-0.5,1.6-0.8,2.6-0.8  c1.9,0,3.6,1.2,4.3,2.8C97.2,306,97.4,306.6,97.4,307.3L97.4,307.3L97.4,307.3z M127.7,332.8c-0.2,0.6-0.6,1.1-1,1.5  c-0.9,0.9-2.1,1.4-3.4,1.4c-0.7,0-1.3-0.1-1.9-0.4s-1.1-0.6-1.5-1c-0.9-0.9-1.4-2.1-1.4-3.4s0.5-2.6,1.4-3.4c0.4-0.4,1-0.8,1.5-1  c0.6-0.2,1.2-0.4,1.9-0.4c2.7,0,4.9,2.2,4.9,4.9C128.1,331.6,128,332.2,127.7,332.8z M160.9,345.2c0,2.7-2.2,4.9-4.9,4.9  s-4.8-2.2-4.8-4.9l0,0l0,0c0-2.7,2.2-4.9,4.8-4.9C158.7,340.3,160.9,342.5,160.9,345.2L160.9,345.2L160.9,345.2z M246.4,57.8  c-0.9,0.9-2.1,1.4-3.4,1.4c-2.7,0-4.9-2.2-4.9-4.9c0-1.3,0.5-2.6,1.4-3.4c0.9-0.9,2.1-1.4,3.4-1.4c2.7,0,4.9,2.2,4.9,4.9  C247.8,55.7,247.3,56.9,246.4,57.8z M282.8,69.8c0,2.7-2.2,4.9-4.8,4.9c-2.7,0-4.9-2.2-4.9-4.9l0,0l0,0c0-2.7,2.2-4.9,4.9-4.9  C280.6,64.9,282.8,67.1,282.8,69.8L282.8,69.8L282.8,69.8z M311.9,92.7c0,2.6-2.1,4.7-4.6,4.7s-4.7-2.1-4.7-4.7l0,0l0,0  c0-2.6,2.1-4.6,4.7-4.6S311.9,90.2,311.9,92.7L311.9,92.7L311.9,92.7z M330.9,128.1c-2.7,0-4.9-2.2-4.9-4.8c0-1.3,0.5-2.6,1.4-3.4  c0.9-0.9,2.1-1.4,3.4-1.4c2.7,0,4.9,2.2,4.9,4.9c0,1-0.3,1.9-0.8,2.7C334.1,127.3,332.6,128.1,330.9,128.1z M347.9,160.1  c-0.8,0.5-1.7,0.8-2.7,0.8c-2.7,0-4.9-2.2-4.9-4.9s2.2-4.8,4.9-4.8s4.8,2.2,4.8,4.8c0,0.3,0,0.7-0.1,1  C349.7,158.3,349,159.4,347.9,160.1z"/>
<path fill="#1266f1" d="M200,375.8C103,375.8,24.2,297,24.2,200S103,24.2,200,24.2S375.8,103.1,375.8,200S297,375.8,200,375.8z   M200,29.1c-94.2,0-170.9,76.7-170.9,170.9S105.8,370.9,200,370.9S370.9,294.3,370.9,200S294.2,29.1,200,29.1z"/>
</svg>
  <svg xmlns="http://www.w3.org/2000/svg" xmlns:xlink="http://www.w3.org/1999/xlink" version="1.1" id="&#x421;&#x43B;&#x43E;&#x439;_1" viewBox="0 0 80 80" width="163" height="163" x="118" y="112">
<path fill="#1266f1" d="M79.71,48.53c-0.02-1.77-0.75-3.49-1.92-4.81c1.38-1.53,2.21-3.55,2.2-5.65c-0.02-3.41-2.27-6.59-5.48-7.74   c-1.27-0.46-2.59-0.58-3.75-0.69c-1.39-0.12-2.59-0.23-3.24-0.83c-0.5-0.46-0.75-1.36-0.66-2.35c0.11-1.17,0.61-2.4,1.14-3.7   l0.02-0.02c0.8-1.97,1.8-4.42,2.03-7.07c0.27-3.18-0.68-6.09-2.6-8.01c-2.51-2.5-6.51-2.88-9.11-0.86c-1.75,1.37-2.45,3.4-3,5.03   l-0.13,0.37c-3.11,9.04-10.34,19.01-21.42,20.84c-0.96-1.29-2.48-2.14-4.21-2.14H5.26C2.36,30.9,0,33.26,0,36.16v33.09   c0,2.9,2.36,5.26,5.26,5.26h24.32c1.39,0,2.64-0.55,3.58-1.43c5.34-0.01,10.69,0.08,15.86,0.17c4.84,0.08,9.83,0.17,14.85,0.17   c0.72,0,1.44,0,2.15-0.01c1.89-0.01,4.02-0.02,6.11-0.72c2.63-0.88,4.62-2.78,5.31-5.07c0.42-1.39,0.3-2.92-0.31-4.27   c1.47-1.15,2.5-2.87,2.67-4.76c0.18-1.92-0.55-3.83-1.83-5.24C79.08,52.01,79.74,50.29,79.71,48.53z M5.26,69.93   c-0.37,0-0.68-0.3-0.68-0.68V36.16c0-0.37,0.3-0.68,0.68-0.68h24.32c0.37,0,0.68,0.3,0.68,0.68v33.09c0,0.37-0.3,0.68-0.68,0.68   H5.26z M73.14,45.93c1.1,0.34,1.98,1.51,2,2.67c0.02,1.16-0.83,2.36-1.92,2.73c-0.97,0.33-1.6,1.27-1.54,2.29   c0.05,1.03,0.78,1.89,1.78,2.11c1.03,0.23,1.89,1.4,1.79,2.45c-0.09,1.05-1.14,2.05-2.2,2.09c-1.12,0.04-2.05,0.9-2.18,2.02   s0.58,2.17,1.66,2.47c0.2,0.06,0.35,0.29,0.4,0.39c0.2,0.35,0.26,0.81,0.15,1.16c-0.26,0.86-1.18,1.64-2.39,2.05   c-1.39,0.46-3.06,0.47-4.68,0.48c-5.69,0.03-11.39-0.07-16.9-0.17c-4.66-0.08-9.45-0.16-14.27-0.17V37.52   c12.89-2.27,21.17-13.59,24.7-23.84l0.13-0.38c0.41-1.21,0.8-2.36,1.48-2.89c0.76-0.59,2.22-0.36,3.07,0.49   c0.95,0.94,1.42,2.58,1.27,4.37c-0.16,1.81-0.84,3.59-1.71,5.73l-0.03,0.03c-0.61,1.48-1.29,3.16-1.46,5.02   c-0.22,2.44,0.55,4.67,2.11,6.11c1.79,1.65,4.08,1.86,5.93,2.03c0.98,0.09,1.9,0.18,2.63,0.44c1.39,0.5,2.45,1.99,2.46,3.47   s-1.03,2.98-2.41,3.5c-0.91,0.34-1.51,1.23-1.48,2.21C71.56,44.79,72.21,45.64,73.14,45.93z"/>
	<path fill="#1266f1" d="M24.06,59.37c-2.41,0-4.37,1.96-4.37,4.37c0,2.41,1.96,4.37,4.37,4.37s4.38-1.96,4.37-4.37   C28.43,61.33,26.47,59.37,24.06,59.37z"/>
</svg>
</svg>
