<svg xmlns="http://www.w3.org/2000/svg" xmlns:xlink="http://www.w3.org/1999/xlink" viewBox="0 0 400 400" width="400" height="400">
  <svg xmlns="http://www.w3.org/2000/svg" xmlns:xlink="http://www.w3.org/1999/xlink" viewBox="0 0 400 400" width="380" height="380" x="10" y="10">
<path fill="#1266f1" d="M200,0C89.5,0,0,89.5,0,200c0,110.4,89.5,200,200,200c110.4,0,200-89.5,200-200S310.5,0,200,0z"/>
<path fill="#E8F3F5" d="M200,19.5c-99.7,0-180.5,80.8-180.5,180.5S100.3,380.5,200,380.5S380.5,299.7,380.5,200S299.7,19.5,200,19.5z   M59.2,243c0,2.7-2.2,4.9-4.9,4.9s-4.9-2.2-4.9-4.9l0,0l0,0c0-2.7,2.2-4.9,4.9-4.9S59.2,240.3,59.2,243  C59.2,242.9,59.2,242.9,59.2,243C59.2,242.9,59.2,242.9,59.2,243z M74.7,277.9c0,2.7-2.2,4.9-4.9,4.9s-4.9-2.2-4.9-4.9l0,0l0,0  c0-2.7,2.2-4.9,4.9-4.9S74.7,275.2,74.7,277.9L74.7,277.9L74.7,277.9z M97.4,307.3c0,2.6-2.1,4.6-4.7,4.6c-1,0-1.9-0.3-2.6-0.8  c-1.2-0.8-2.1-2.3-2.1-3.9l0,0l0,0c0-0.6,0.1-1.3,0.4-1.8c0.1-0.3,0.3-0.5,0.4-0.8c0.3-0.5,0.8-0.9,1.3-1.3c0.7-0.5,1.6-0.8,2.6-0.8  c1.9,0,3.6,1.2,4.3,2.8C97.2,306,97.4,306.6,97.4,307.3L97.4,307.3L97.4,307.3z M127.7,332.8c-0.2,0.6-0.6,1.1-1,1.5  c-0.9,0.9-2.1,1.4-3.4,1.4c-0.7,0-1.3-0.1-1.9-0.4s-1.1-0.6-1.5-1c-0.9-0.9-1.4-2.1-1.4-3.4s0.5-2.6,1.4-3.4c0.4-0.4,1-0.8,1.5-1  c0.6-0.2,1.2-0.4,1.9-0.4c2.7,0,4.9,2.2,4.9,4.9C128.1,331.6,128,332.2,127.7,332.8z M160.9,345.2c0,2.7-2.2,4.9-4.9,4.9  s-4.8-2.2-4.8-4.9l0,0l0,0c0-2.7,2.2-4.9,4.8-4.9C158.7,340.3,160.9,342.5,160.9,345.2L160.9,345.2L160.9,345.2z M246.4,57.8  c-0.9,0.9-2.1,1.4-3.4,1.4c-2.7,0-4.9-2.2-4.9-4.9c0-1.3,0.5-2.6,1.4-3.4c0.9-0.9,2.1-1.4,3.4-1.4c2.7,0,4.9,2.2,4.9,4.9  C247.8,55.7,247.3,56.9,246.4,57.8z M282.8,69.8c0,2.7-2.2,4.9-4.8,4.9c-2.7,0-4.9-2.2-4.9-4.9l0,0l0,0c0-2.7,2.2-4.9,4.9-4.9  C280.6,64.9,282.8,67.1,282.8,69.8L282.8,69.8L282.8,69.8z M311.9,92.7c0,2.6-2.1,4.7-4.6,4.7s-4.7-2.1-4.7-4.7l0,0l0,0  c0-2.6,2.1-4.6,4.7-4.6S311.9,90.2,311.9,92.7L311.9,92.7L311.9,92.7z M330.9,128.1c-2.7,0-4.9-2.2-4.9-4.8c0-1.3,0.5-2.6,1.4-3.4  c0.9-0.9,2.1-1.4,3.4-1.4c2.7,0,4.9,2.2,4.9,4.9c0,1-0.3,1.9-0.8,2.7C334.1,127.3,332.6,128.1,330.9,128.1z M347.9,160.1  c-0.8,0.5-1.7,0.8-2.7,0.8c-2.7,0-4.9-2.2-4.9-4.9s2.2-4.8,4.9-4.8s4.8,2.2,4.8,4.8c0,0.3,0,0.7-0.1,1  C349.7,158.3,349,159.4,347.9,160.1z"/>
<path fill="#1266f1" d="M200,375.8C103,375.8,24.2,297,24.2,200S103,24.2,200,24.2S375.8,103.1,375.8,200S297,375.8,200,375.8z   M200,29.1c-94.2,0-170.9,76.7-170.9,170.9S105.8,370.9,200,370.9S370.9,294.3,370.9,200S294.2,29.1,200,29.1z"/>
</svg>
  <svg xmlns="http://www.w3.org/2000/svg" xmlns:xlink="http://www.w3.org/1999/xlink" version="1.1" id="&#x421;&#x43B;&#x43E;&#x439;_1" viewBox="0 0 80 80" width="205" height="205" x="97" y="97" selection="true">
<path fill="#1266f1" d="M51.5,51.4l-6.8-1l-3-6.2c-0.3-0.6-0.9-0.9-1.5-0.9s-1.2,0.4-1.5,0.9l-3,6.2l-6.8,1c-0.6,0.1-1.1,0.5-1.3,1.1   c-0.2,0.6,0,1.3,0.4,1.7l4.9,4.8l-1.2,6.8c-0.1,0.6,0.2,1.3,0.7,1.6c0.5,0.4,1.2,0.4,1.8,0.1l6.1-3.2l6.1,3.2   c0.3,0.1,0.5,0.2,0.8,0.2c0.3,0,0.7-0.1,1-0.3c0.5-0.4,0.8-1,0.7-1.6L47.5,59l4.9-4.8c0.5-0.4,0.6-1.1,0.4-1.7   C52.7,51.9,52.2,51.5,51.5,51.4z M44.5,57.2c-0.4,0.4-0.6,0.9-0.5,1.5l0.7,4.3l-3.9-2c-0.5-0.3-1.1-0.3-1.5,0l-3.9,2l0.7-4.3   c0.1-0.5-0.1-1.1-0.5-1.5l-3.1-3l4.3-0.6c0.6-0.1,1-0.4,1.3-0.9l1.9-3.9l1.9,3.9c0.3,0.5,0.7,0.8,1.3,0.9l4.3,0.6L44.5,57.2z"/>
	<path fill="#1266f1" d="M64.5,55.5c0-1.7-0.7-3.3-2-4.5c-0.8-0.7-1.1-1.8-0.8-2.9c0.5-1.6,0.3-3.4-0.5-4.9c-0.9-1.5-2.3-2.5-4-2.9   c-1-0.2-1.9-1-2.1-2.1c-0.4-1.7-1.4-3.1-2.9-4c-1.5-0.9-3.3-1-4.9-0.5c-1,0.3-2.1,0-2.9-0.8c0,0-0.1-0.1-0.1-0.1   c0.6-0.7,1-1.6,1-2.6v-0.4h6.6c0.9,0,1.7-0.8,1.7-1.7V1.7c0-0.9-0.8-1.7-1.7-1.7H28.2c-0.9,0-1.7,0.8-1.7,1.7v26.5   c0,0.9,0.8,1.7,1.7,1.7h6.6v0.4c0,1,0.4,1.9,0.9,2.6c-0.1,0.1-0.1,0.1-0.2,0.2c-0.7,0.8-1.8,1.1-2.9,0.8c-1.6-0.5-3.4-0.3-4.9,0.5   c-1.5,0.9-2.5,2.3-2.9,4c-0.2,1-1,1.9-2.1,2.1c-1.7,0.4-3.1,1.4-4,2.9c-0.9,1.5-1,3.3-0.5,4.9c0.3,1,0,2.1-0.8,2.9   c-1.3,1.2-2,2.8-2,4.5s0.7,3.3,2,4.5c0.8,0.7,1.1,1.8,0.8,2.9c-0.5,1.6-0.3,3.4,0.5,4.9c0.9,1.5,2.3,2.5,4,2.9c1,0.2,1.9,1,2.1,2.1   c0.4,1.7,1.4,3.1,2.9,4c1.5,0.9,3.3,1,4.9,0.5c1-0.3,2.1,0,2.9,0.8c1.2,1.3,2.8,2,4.5,2s3.3-0.7,4.5-2c0.7-0.8,1.8-1.1,2.9-0.8   c1.6,0.5,3.4,0.3,4.9-0.5c1.5-0.9,2.5-2.3,2.9-4c0.2-1,1-1.9,2.1-2.1c1.7-0.4,3.1-1.4,4-2.9c0.9-1.5,1-3.3,0.5-4.9   c-0.3-1,0-2.1,0.8-2.9C63.8,58.8,64.5,57.2,64.5,55.5z M43.7,26.5h-7.2c0,0-0.1,0-0.1,0h-1.5V3.3h10.4v23.2L43.7,26.5   C43.7,26.5,43.7,26.5,43.7,26.5z M50.3,26.5h-1.6V3.3h1.6V26.5z M29.9,3.3h1.7v23.2h-1.7V3.3z M38.9,31c-0.4,0-0.8-0.4-0.8-0.8   v-0.4H42v0.4c0,0.4-0.4,0.8-0.8,0.8h-0.6c-0.2,0-0.4,0-0.6,0c-0.2,0-0.4,0-0.6,0H38.9z M60.3,57.5c-1.8,1.6-2.4,4.1-1.7,6.3   c0.2,0.7,0.2,1.5-0.2,2.2s-1,1.1-1.8,1.3c-2.3,0.5-4.1,2.3-4.6,4.6c-0.2,0.8-0.6,1.4-1.3,1.8c-0.7,0.4-1.5,0.5-2.2,0.2   c-2.3-0.7-4.7,0-6.3,1.7c-0.5,0.6-1.3,0.9-2,0.9c-0.8,0-1.5-0.3-2-0.9c-1.2-1.3-2.8-2-4.5-2c-0.6,0-1.2,0.1-1.8,0.3   c-0.7,0.2-1.5,0.2-2.2-0.2s-1.1-1-1.3-1.8c-0.5-2.3-2.3-4.1-4.6-4.6c-0.8-0.2-1.4-0.6-1.8-1.3s-0.5-1.5-0.2-2.2   c0.7-2.3,0-4.7-1.7-6.3c-0.6-0.5-0.9-1.3-0.9-2c0-0.8,0.3-1.5,0.9-2c1.8-1.6,2.4-4.1,1.7-6.3c-0.2-0.7-0.2-1.5,0.2-2.2   s1-1.1,1.8-1.3c2.3-0.5,4.1-2.3,4.6-4.6c0.2-0.8,0.6-1.4,1.3-1.8c0.7-0.4,1.5-0.5,2.2-0.2c2.3,0.7,4.7,0,6.3-1.7   c0.5-0.6,1.3-0.9,2-0.9c0.8,0,1.5,0.3,2,0.9c1.6,1.8,4.1,2.4,6.3,1.7c0.7-0.2,1.5-0.2,2.2,0.2s1.1,1,1.3,1.8   c0.5,2.3,2.3,4.1,4.6,4.6c0.8,0.2,1.4,0.6,1.8,1.3c0.4,0.7,0.5,1.5,0.2,2.2c-0.7,2.3,0,4.7,1.7,6.3c0.6,0.5,0.9,1.3,0.9,2   C61.2,56.3,60.8,57,60.3,57.5z"/>
	<path fill="#1266f1" d="M57.3,49.6c0.4-1.3,0.3-2.7-0.4-3.9c-0.7-1.2-1.8-2-3.1-2.3c-0.9-0.2-1.5-0.9-1.7-1.7   c-0.3-1.3-1.1-2.5-2.3-3.1c-1.2-0.7-2.6-0.8-3.9-0.4c-0.8,0.3-1.8,0-2.4-0.6c-0.9-1-2.2-1.6-3.5-1.6s-2.6,0.6-3.5,1.6   c-0.6,0.7-1.5,0.9-2.4,0.6c-1.3-0.4-2.7-0.3-3.9,0.4c-1.2,0.7-2,1.8-2.3,3.1c-0.2,0.9-0.9,1.5-1.7,1.7c-1.3,0.3-2.5,1.1-3.1,2.3   c-0.7,1.2-0.8,2.6-0.4,3.9c0.3,0.8,0,1.8-0.6,2.4c-1,0.9-1.6,2.2-1.6,3.5S21,58.1,22,59c0.7,0.6,0.9,1.5,0.6,2.4   c-0.4,1.3-0.3,2.7,0.4,3.9c0.7,1.2,1.8,2,3.1,2.3c0.9,0.2,1.5,0.9,1.7,1.7c0.3,1.3,1.1,2.5,2.3,3.1c1.2,0.7,2.6,0.8,3.9,0.4   c0.8-0.3,1.8,0,2.4,0.6c0.9,1,2.2,1.6,3.5,1.6s2.6-0.6,3.5-1.6c0.6-0.7,1.5-0.9,2.4-0.6c1.3,0.4,2.7,0.3,3.9-0.4   c1.2-0.7,2-1.8,2.3-3.1c0.2-0.9,0.9-1.5,1.7-1.7c1.3-0.3,2.5-1.1,3.1-2.3c0.7-1.2,0.8-2.6,0.4-3.9c-0.3-0.8,0-1.8,0.6-2.4   c1-0.9,1.6-2.2,1.6-3.5S59,52.9,58,52C57.3,51.4,57.1,50.4,57.3,49.6z M56.3,57.2c-1.4,1.3-1.9,3.2-1.3,5c0.2,0.6,0.1,1.3-0.2,1.8   c-0.3,0.6-0.9,1-1.5,1.1c-1.8,0.4-3.3,1.8-3.7,3.7c-0.1,0.6-0.5,1.2-1.1,1.5c-0.6,0.3-1.2,0.4-1.8,0.2c-1.8-0.6-3.7,0-5,1.3   c-0.4,0.5-1,0.7-1.7,0.7s-1.3-0.3-1.7-0.7c-0.9-1-2.2-1.6-3.5-1.6c-0.5,0-1,0.1-1.5,0.2c-0.6,0.2-1.3,0.1-1.8-0.2   c-0.6-0.3-1-0.9-1.1-1.5c-0.4-1.8-1.8-3.3-3.7-3.7c-0.6-0.1-1.2-0.5-1.5-1.1c-0.3-0.6-0.4-1.2-0.2-1.8c0.6-1.8,0-3.7-1.3-5   c-0.5-0.4-0.7-1-0.7-1.7c0-0.6,0.3-1.3,0.7-1.7c1.4-1.3,1.9-3.2,1.3-5c-0.2-0.6-0.1-1.3,0.2-1.8c0.3-0.6,0.9-0.9,1.5-1.1   c1.8-0.4,3.3-1.8,3.7-3.7c0.1-0.6,0.5-1.2,1.1-1.5c0.6-0.3,1.2-0.4,1.8-0.2c1.8,0.6,3.7,0,5-1.3c0.4-0.5,1-0.7,1.7-0.7   s1.3,0.3,1.7,0.7c1.3,1.4,3.2,1.9,5,1.3c0.6-0.2,1.3-0.1,1.8,0.2c0.6,0.3,1,0.9,1.1,1.5c0.4,1.8,1.8,3.3,3.7,3.7   c0.6,0.1,1.2,0.5,1.5,1.1c0.3,0.6,0.4,1.2,0.2,1.8c-0.6,1.8,0,3.7,1.3,5c0.5,0.4,0.7,1,0.7,1.7C57,56.2,56.8,56.8,56.3,57.2z"/>
</svg>
</svg>
