<svg xmlns="http://www.w3.org/2000/svg" xmlns:xlink="http://www.w3.org/1999/xlink" viewBox="0 0 400 400" width="400" height="400">
  <svg xmlns="http://www.w3.org/2000/svg" xmlns:xlink="http://www.w3.org/1999/xlink" viewBox="0 0 400 400" width="380" height="380" x="10" y="10">
<path fill="#1266f1" d="M200,0C89.5,0,0,89.5,0,200c0,110.4,89.5,200,200,200c110.4,0,200-89.5,200-200S310.5,0,200,0z"/>
<path fill="#E8F3F5" d="M200,19.5c-99.7,0-180.5,80.8-180.5,180.5S100.3,380.5,200,380.5S380.5,299.7,380.5,200S299.7,19.5,200,19.5z   M59.2,243c0,2.7-2.2,4.9-4.9,4.9s-4.9-2.2-4.9-4.9l0,0l0,0c0-2.7,2.2-4.9,4.9-4.9S59.2,240.3,59.2,243  C59.2,242.9,59.2,242.9,59.2,243C59.2,242.9,59.2,242.9,59.2,243z M74.7,277.9c0,2.7-2.2,4.9-4.9,4.9s-4.9-2.2-4.9-4.9l0,0l0,0  c0-2.7,2.2-4.9,4.9-4.9S74.7,275.2,74.7,277.9L74.7,277.9L74.7,277.9z M97.4,307.3c0,2.6-2.1,4.6-4.7,4.6c-1,0-1.9-0.3-2.6-0.8  c-1.2-0.8-2.1-2.3-2.1-3.9l0,0l0,0c0-0.6,0.1-1.3,0.4-1.8c0.1-0.3,0.3-0.5,0.4-0.8c0.3-0.5,0.8-0.9,1.3-1.3c0.7-0.5,1.6-0.8,2.6-0.8  c1.9,0,3.6,1.2,4.3,2.8C97.2,306,97.4,306.6,97.4,307.3L97.4,307.3L97.4,307.3z M127.7,332.8c-0.2,0.6-0.6,1.1-1,1.5  c-0.9,0.9-2.1,1.4-3.4,1.4c-0.7,0-1.3-0.1-1.9-0.4s-1.1-0.6-1.5-1c-0.9-0.9-1.4-2.1-1.4-3.4s0.5-2.6,1.4-3.4c0.4-0.4,1-0.8,1.5-1  c0.6-0.2,1.2-0.4,1.9-0.4c2.7,0,4.9,2.2,4.9,4.9C128.1,331.6,128,332.2,127.7,332.8z M160.9,345.2c0,2.7-2.2,4.9-4.9,4.9  s-4.8-2.2-4.8-4.9l0,0l0,0c0-2.7,2.2-4.9,4.8-4.9C158.7,340.3,160.9,342.5,160.9,345.2L160.9,345.2L160.9,345.2z M246.4,57.8  c-0.9,0.9-2.1,1.4-3.4,1.4c-2.7,0-4.9-2.2-4.9-4.9c0-1.3,0.5-2.6,1.4-3.4c0.9-0.9,2.1-1.4,3.4-1.4c2.7,0,4.9,2.2,4.9,4.9  C247.8,55.7,247.3,56.9,246.4,57.8z M282.8,69.8c0,2.7-2.2,4.9-4.8,4.9c-2.7,0-4.9-2.2-4.9-4.9l0,0l0,0c0-2.7,2.2-4.9,4.9-4.9  C280.6,64.9,282.8,67.1,282.8,69.8L282.8,69.8L282.8,69.8z M311.9,92.7c0,2.6-2.1,4.7-4.6,4.7s-4.7-2.1-4.7-4.7l0,0l0,0  c0-2.6,2.1-4.6,4.7-4.6S311.9,90.2,311.9,92.7L311.9,92.7L311.9,92.7z M330.9,128.1c-2.7,0-4.9-2.2-4.9-4.8c0-1.3,0.5-2.6,1.4-3.4  c0.9-0.9,2.1-1.4,3.4-1.4c2.7,0,4.9,2.2,4.9,4.9c0,1-0.3,1.9-0.8,2.7C334.1,127.3,332.6,128.1,330.9,128.1z M347.9,160.1  c-0.8,0.5-1.7,0.8-2.7,0.8c-2.7,0-4.9-2.2-4.9-4.9s2.2-4.8,4.9-4.8s4.8,2.2,4.8,4.8c0,0.3,0,0.7-0.1,1  C349.7,158.3,349,159.4,347.9,160.1z"/>
<path fill="#1266f1" d="M200,375.8C103,375.8,24.2,297,24.2,200S103,24.2,200,24.2S375.8,103.1,375.8,200S297,375.8,200,375.8z   M200,29.1c-94.2,0-170.9,76.7-170.9,170.9S105.8,370.9,200,370.9S370.9,294.3,370.9,200S294.2,29.1,200,29.1z"/>
</svg>
  <svg xmlns="http://www.w3.org/2000/svg" xmlns:xlink="http://www.w3.org/1999/xlink" version="1.1" id="&#x421;&#x43B;&#x43E;&#x439;_1" viewBox="0 0 80 80" width="191" height="191" x="104" y="104" selection="true">
<path fill="#1266f1" d="M40,51.4c-6.8,0-12.4,5.5-12.4,12.4c0,6.8,5.6,12.4,12.4,12.4s12.4-5.5,12.4-12.4C52.4,57,46.8,51.4,40,51.4z    M40,73.9c-5.6,0-10.1-4.5-10.1-10.1c0-5.6,4.5-10.1,10.1-10.1s10.1,4.6,10.1,10.1C50.1,69.4,45.6,73.9,40,73.9z"/>
	<path fill="#1266f1" d="M64.6,10.3c0-0.1,0-0.2-0.1-0.3c0,0,0-0.1-0.1-0.1c0,0,0-0.1-0.1-0.1l-6.7-9.3c0,0,0,0,0,0   c0,0-0.1-0.1-0.1-0.1c0,0,0,0-0.1,0c0,0,0,0,0,0c-0.1,0-0.1-0.1-0.2-0.1c0,0-0.1,0-0.1-0.1c0,0,0,0,0,0c0,0,0,0-0.1,0   c-0.1,0-0.1,0-0.2,0c0,0,0,0-0.1,0H23.3c0,0-0.1,0-0.1,0C23.1,0,23,0,23,0c0,0-0.1,0-0.1,0c0,0,0,0,0,0c0,0-0.1,0-0.1,0   c-0.1,0-0.1,0.1-0.2,0.1c0,0-0.1,0.1-0.1,0.1c0,0,0,0,0,0c0,0,0,0,0,0c0,0-0.1,0-0.1,0.1l-6.7,9.3c0,0,0,0,0,0.1   c-0.1,0.1-0.1,0.2-0.1,0.3c0,0,0,0.1,0,0.1c0,0.1,0,0.2,0,0.3c0,0,0,0.1,0,0.1c0,0,0,0.1,0,0.1l13.6,41.1c0,0,0,0,0,0   c-3.2,3-5.3,7.2-5.3,12C23.8,72.7,31.1,80,40,80s16.2-7.3,16.2-16.2c0-4.7-2.1-9-5.3-12l13.6-41.1c0,0,0,0,0-0.1c0-0.1,0-0.2,0-0.3   C64.6,10.4,64.6,10.3,64.6,10.3z M59.1,6.3l1.1,1.5L46.6,49l0,0c-0.5-0.2-0.9-0.4-1.4-0.6l0,0L59.1,6.3z M57.1,3.6l0.3,0.5L43,47.9   c-0.2,0-0.3,0-0.5-0.1L57.1,3.6z M39.8,47.6l-12-36h24.2l-12,36l0,0c-0.1,0-0.1,0-0.2,0S39.9,47.6,39.8,47.6z M53,8.8l-0.2,0.5   H27.1L27,8.8H53z M26.2,6.5L25.7,5h28.6l-0.5,1.5H26.2z M55.2,2.3L55,2.8H25l-0.2-0.5H55.2z M22.9,3.6l14.7,44.2l0,0   c-0.2,0-0.3,0-0.5,0.1L22.5,4.1L22.9,3.6z M20.9,6.3l14,42.1c-0.5,0.2-1,0.3-1.4,0.6c0,0,0,0,0,0L19.8,7.9L20.9,6.3z M17.8,10.6   l0.3-0.5l13.2,39.9c-0.1,0.1-0.3,0.2-0.4,0.3L17.8,10.6z M54,63.8c0,7.7-6.3,13.9-14,13.9s-14-6.3-14-13.9s6.3-13.9,14-13.9   S54,56.1,54,63.8z M49,50.3L49,50.3c-0.1-0.1-0.3-0.2-0.4-0.3h0l13.2-39.9l0.3,0.5L49,50.3z"/>
</svg>
</svg>
