<?xml version="1.0" encoding="utf-8"?>
<!-- Generator: Adobe Illustrator 23.0.1, SVG Export Plug-In . SVG Version: 6.00 Build 0)  -->
<svg version="1.1" id="Layer_1" xmlns="http://www.w3.org/2000/svg" xmlns:xlink="http://www.w3.org/1999/xlink" x="0px" y="0px"
	 viewBox="0 0 1920 1080" style="enable-background:new 0 0 1920 1080;" xml:space="preserve">
<style type="text/css">
	.st0{fill:#0B5ED7;stroke:#FFFFFF;stroke-miterlimit:10;}
	.st1{display:none;}
	.st2{display:inline;}
	.st3{fill:#FFFFFF;}
	.st4{display:inline;fill:#FFFFFF;stroke:#000000;stroke-width:1.5;stroke-linecap:round;stroke-linejoin:round;}
</style>
<circle class="st0" cx="620.5" cy="491.5" r="334"/>
<g class="st1">
	<g transform="translate(0.000000,512.000000) scale(0.100000,-0.100000)" class="st2">
		<g>
			<path class="st3" d="M5641.7-1905c-258,0-491,133.2-623.3,356.2l-44.2,75.6l-78.5,16.2c-285.5,57.2-510.2,280.8-572.5,569.5
				c-6.8,32.2-13.2,103.8-14,156.5l-0.8,101.1l-35,45.2c-107.5,140.5-162.1,356-135.8,536.5C4162.4,118,4227,246,4346.8,366.6
				l82.8,85.3l-29.5,69.3c-48.2,114.7-58.5,168.2-57.6,301.3c0.8,106.5,3.4,128,23,192.5c24,78.7,64.8,166.3,103.8,223.2
				c89.2,129.1,232.4,233.7,382.9,279.8l61.4,19.3l6,97.9c2.4,50.9,10.7,115.3,18,140.6c74.6,272.1,288,476.8,556.8,534.3
				c47.6,10.1,96.5,15.2,145.3,15.2c152.3,0,304.6-50.4,428.7-141.9l57.7-42.8l6.6,31.7c3.2,12.8,12.1,32.6,21.3,43.3
				c33.5,43,39.5,43.8,323.8,43.8c247.9,0,264-0.9,288.5-15.8c47.1-28.7,54.3-61.3,70.6-317.5l16-237.6l69.2-28.5
				c35.1-14.4,87.8-38.1,117.4-52.9l54.4-28.1l166.8,148.1c158.4,141.1,195.5,167.8,233.9,167.8c40.8,0,92.5-44,291.6-247.9
				c221.8-227.3,227.6-235.8,208.6-300c-3.7-11.1-28.7-51.5-154.1-196.2C7694.3,980,7694.3,978,7694.3,974.9
				c0-5.1,26.4-60.6,37.8-84.2c19.1-41.3,50.1-115.7,67-163.5l30.9-90l53.8-5.3c29.7-2.6,126.8-8.8,200.9-13.3
				c188.2-11.5,218.4-18,248.6-53c13.2-14,26.3-37.8,28.7-52.2c2.4-14.6,4.1-163.5,2.4-326.4c-2.4-284.2-3.3-299.2-18.9-320.2
				c-36.2-48.2-51.9-52-280.8-67.6c-43.2-3.1-84-5.9-118.6-8.3c-67.5-4.7-100.1-7-103.3-7.5c0,0,0,0,0,0c-2.3,0-14.6-6.9-43.7-91.1
				c-16.6-48.1-47.1-121.4-67-164.4c-11.3-23.5-37.8-79-37.8-84.1c0-3,0-5,146.3-175.6C7966-876.6,7991-917,7994.7-928.2
				c19-64.1,13.1-72.5-208.6-299.8c-199.1-203.9-250.9-247.9-291.6-247.9c-37.8,0-72.8,25.1-233.9,167.8L7093.9-1160l-54.5-28.1
				c-29.5-14.8-82.2-38.5-117.4-52.8l-69.2-28.5l-16-237.6c-16.3-256.2-23.5-288.9-70.6-317.5c-24.4-14.9-40.6-15.8-288.5-15.8
				c-284.2,0-290.3,0.8-323.6,43.6c-9.4,10.9-18.3,30.8-21.5,43.7l-6.5,31.5l-57.7-42.8C5943.3-1856.4,5795.7-1905,5641.7-1905z
				 M4553.9-826.1c-1.6-1.6-4.6-4.6,20.4-73.2c28.4-81.7,71.7-148.5,132.3-204.1c91.1-83.5,182.8-121.3,316.5-130.6
				c98.9-7.4,119.3-18.8,145.8-81.5c43.1-98.6,52.3-115.5,89.4-164.3c89.1-118.3,227.1-186.2,378.7-186.2
				c88.1,0,175.3,23.8,252.3,68.9c54.2,31.2,136.1,114.6,168.5,171.7l2.5,4.5c21.8,39,31.8,56.8,27,71.7
				c-4.5,14.1-21.1,21.8-54,37.3l-2.6,1.2c-88.8,43.1-174.1,130-217.4,221.3c-18.9,40.2-38,93.6-43.6,121.5
				c-8.9,46.6-8.3,51.5,9.5,86.2c21.8,42.6,59.5,67.1,103.3,67.1c50.1,0,109.9-35.3,122.8-112.8c6.9-41.9,51.7-114.7,87.3-141.5
				l31.9-27.7v843.8l-50.3,19.5c-142.8,53.3-260.4,186.9-299.6,340.4c-17,66.2-9.9,102.6,26.9,139.4c25.6,25.6,50.9,37.5,79.7,37.5
				c10.5,0,21.4-1.6,33.2-4.8c46.5-12.8,72.5-44.9,92.7-114.2c14.9-51.2,26.2-71.7,60.8-109.7c3.9-4.2,38.3-40.8,48.6-40.8h2.1
				l2.2,1.7c2.6,2.6,2.8,2.8,5.6,216.6c1.5,110.3,3.5,261.5,6.5,423.2v638.9l-61.5-25.2c-89.4-44.2-171.1-151.6-194.5-255.4
				c-19.4-84.8-56.4-121.3-123.7-122l-3.1,0c-31,0-59.4,11.4-79.9,32.1c-21.7,21.9-33.4,52.9-33,87.2c0,20.9,8.3,64.6,18,95.5
				c62,199.8,208,350.2,400.6,412.7l68.8,23.6v50c1.8,125.3-50.4,253.9-139.8,344.1c-62.2,62.2-110.6,93.2-191.7,123
				c-42.5,15.5-104.2,24.7-165,24.7c-38,0-72.3-3.6-99.1-10.5c-91.4-23.3-155.3-60.6-227.9-133.1
				c-103.5-104.3-145.8-205.9-145.8-350.7c0-146,46.6-254.1,155.7-361.5c75.2-74.4,84.8-88.8,84.8-129c0-33.4-12.5-64.3-35-87
				c-22.1-22.2-51.5-34.5-82.8-34.5h0c-12.7,0-25.6,2.1-38.1,6.1c-60.3,20.3-192.7,166.3-244.2,269.2
				c-16.2,31.8-22.3,43.7-38.7,43.7c-4.6,0-10-1-15.6-2.1c-111.2-21.9-253.7-138.8-311.2-255.4c-52.9-109.9-66.8-217.5-42.7-328.9
				c10.7-51.5,46.1-150.6,66.3-150.6c5.5,0,45.2,6,86.3,13.3c36.8,6.3,78,9.7,119.2,9.7c66.4,0,123.7-8.9,149.5-23.2
				c35.1-20,63.8-66.3,63.8-103.3c0-36.9-29.8-85.6-63.8-104.2c-15.4-8.2-27.1-11.9-55.6-11.9c-13.2,0-30.5,0.8-57.8,2.6
				c-12,0.6-23.8,1-35.3,1c-137.6,0-247.5-45.8-345.9-144.1C4412,98.5,4360.8-36.8,4370-180.4c14.4-213.5,156.1-389.3,361-447.8
				c33-9.5,76.5-11.5,107.1-11.5c85.3,0,187.6,15.5,204.2,40.6c3,4.5,3.5,9.4,1.5,14.1c-2,5.9-6.1,39.6-8.7,77.9
				c-7.3,104.1,27.5,209.9,93.3,283c36.5,40.5,64.7,55.5,104.1,55.5c41.8,0,80.4-25.1,100.8-65.4c20.1-39.7,17.4-85-7-118.1
				c-54.3-74.6-66.9-132.3-42.1-193c26.5-61.5,87.6-103.3,152.2-104.2c62.6,0,111.6-37,122-92c12-65-21.5-121-83.6-139.3
				c-13.9-4.1-30-6.1-48.1-6.1c-52.6,0-117.4,17.5-178,48.1c-41.7,20.8-59,29.5-73.2,29.5c-8.4,0-15.3-3.1-23.3-7.1
				c-48.1-24.5-164-56-229.6-62.5c-22-2.3-45-3.5-68.5-3.5c-76.9,0-155.1,12.3-220.5,34.7c-7.2,2.3-69.7,22.7-76,22.7h-2.1
				L4553.9-826.1z M6363.3,1231.6l31.6-4.8c6.4-0.8,18.4-2.4,33.2-4.6c18.8-2.7,42.1-5.9,63.9-8.7
				c146.5-19.8,311.1-89.8,440.5-187.1c201-150.2,335.7-362.6,389.5-614.3c19-86.5,21.3-305.1,4.1-389.9
				c-73-367.8-332.6-667.7-677.5-782.5c-49.4-16.2-119.7-33.2-156.6-37.9c-21.8-2.8-45.2-6.1-64.1-8.8c-14.8-2.1-26.7-3.8-32.9-4.5
				l-31.8-4.8v-787.3h112.8c98.6,0,112.8,1.2,112.8,19.9c0,7.2,5.9,107.1,12.2,212.8l0.2,4c17.3,269.8,17.3,269.8,145.9,313.7
				c88.6,31.5,177.5,72.6,257.1,118.9c44.9,26.3,77.1,38,104.4,38c16.7,0,32.3-4.2,49.1-13.2c12.6-6.7,85.5-68.1,173.2-146
				l151.9-135.7l113.6,112.7c111.8,111.7,111.8,118,111.8,120.4c0,6.9-84.4,105.7-134.7,164c-78.4,90.6-139.4,169-145.1,182.6
				c-16.8,39.1-9.1,70.4,37.1,152.2c55.1,98.9,96.3,197.4,122.4,292.8c11.5,40,29.3,94,39.5,115.2c28.7,59,39.1,61.9,277.8,77.5
				L8123,40.6v334.2l-212.8,14.4c-238.1,15.6-254,20-282.8,78.4c-10,20.1-27.5,72.7-39.5,114.4c-26.1,95.3-67.3,193.8-122.3,292.7
				c-46.2,81.8-53.9,113.1-37.1,152.2c5.8,13.7,66.8,92,145.1,182.6c50.3,58.3,134.7,157.1,134.7,164c0,2.4,0,8.7-111.8,120.4
				L7483,1606.6l-152-135.7c-87.7-77.9-160.6-139.3-173.1-146c-16.9-9.1-32.5-13.3-49.2-13.3l0,0c-27.3,0-59.5,11.7-104.4,38
				c-79.7,46.3-168.6,87.4-257.1,118.9c-128.6,43.9-128.6,43.9-146,313.8l-0.2,3.5c-6.6,110.5-12.2,206-12.2,214.1
				c0,17.9-14.2,19.1-112.8,19.1h-112.8L6363.3,1231.6L6363.3,1231.6z M6363.3-575.5l24.9,4.3c10,2.5,39,6.6,63.5,9.1
				c61.9,6.7,184.8,48.4,248.3,84.3c291.4,162.3,448.4,492.4,390.6,821.4c-54.6,314.4-303.5,574-605.2,631.3
				c-24.7,4.9-61.2,10.8-80.7,13.3l-41.3,5.8L6363.3-575.5L6363.3-575.5z"/>
			<path class="st3" d="M5639.8,2320c151.3,0,302.5-50.1,425.7-140.9l51.4-38.1l12.6-9.3l3.2,15.3l4.9,23.6
				c3,12.1,11.6,31.4,20.6,41.9c31.3,40.1,32.5,41.7,319.7,41.7c246.5,0,262.6-0.9,285.9-15.1c43.3-26.4,51.4-49.8,68.2-313.6
				l15.8-234.5l0.4-6.2l5.8-2.4l66.4-27.3c35-14.3,87.5-38,117-52.7l51.4-26.5l6.1-3.1l5.1,4.6l164.2,145.8
				c155.4,138.5,194.2,166.5,230.5,166.5c39,0,90.2-43.8,288.1-246.4c226.1-231.8,225.4-234.2,207.5-294.8
				c-2.9-8.8-23.7-45.2-153.2-194.7c-147.5-172-147.5-173.4-147.5-178.8c0-2,0-6.8,38.2-86.2c19.1-41.3,50-115.4,66.8-163.1l29.9-87
				l2.1-6.1l6.4-0.6l50.7-5c29.6-2.6,123.2-8.6,201-13.3c186.3-11.4,216.1-17.7,245.4-51.6c13.6-14.4,25.3-37.6,27.3-49.5
				c2.1-12.7,4.1-149,2.3-325.6c-2.4-282.6-3.3-297.5-17.9-317.2c-33.8-45.1-43.6-49.7-277.1-65.6c-43.2-3.1-84-5.9-118.5-8.3
				c-71-4.9-97.2-6.8-102.9-7.4c-6.8-0.3-11.9-5.4-23.9-31.7c-7.8-17.2-16.6-39.5-24.6-62.8c-16.5-47.9-47-121-66.7-163.8
				c-38.3-79.6-38.3-84.3-38.3-86.4c0-5.4,0-6.9,147.6-178.9c129.5-149.4,150.2-185.9,153-194.3c18.1-60.9,18.8-63.3-207.4-295.1
				c-197.9-202.6-249-246.4-288.1-246.4c-35.8,0-72.4,26.5-230.5,166.5l-164.2,145.8l-5.1,4.6l-6.1-3.1l-51.3-26.5
				c-29.5-14.8-82-38.4-117.1-52.7l-66.3-27.3l-5.8-2.4l-0.4-6.2l-15.8-234.5c-16.8-263.8-24.9-287.2-68.2-313.6
				c-23.3-14.3-39.3-15.1-285.9-15.1c-287.2,0-288.4,1.6-320,42.1c-8.6,10.1-17.3,29.4-20.2,41.1l-5,24l-3.2,15.3l-12.6-9.3
				l-51.4-38.1c-124.3-91.4-270.9-139.7-423.8-139.7c-122.2,0-243.3,31.4-350,90.9c-110.5,61.6-203.5,152.5-268.9,262.7l-43.1,73.7
				l-2.3,3.8l-4.4,0.9l-76.4,15.8c-140,28.1-267.3,95.8-368,196c-100.7,100.2-170,228-200.5,369.6c-6.7,32-13.1,103.2-13.9,155.5
				l-0.8,99.4l0,3.4l-2.1,2.7l-34,43.9c-106.8,139.5-161,353.6-134.9,532.7c24.7,165.2,88.8,292.3,207.9,412.1l80.4,82.9l4.6,4.8
				l-2.6,6.1l-28.2,66.3c-47.9,113.9-58.1,167-57.3,299.3c0.8,105.8,3.4,127.2,22.8,191c23.9,78.3,64.4,165.3,103.1,221.8
				c88.6,128.3,230.8,232.1,380.4,277.9l58,18.2l6.6,2.1l0.4,6.9l5.8,94.6c2.4,50.5,10.6,114.3,17.9,139.5
				c74.1,270.2,286,473.5,553,530.6C5542.8,2314.9,5591.3,2320,5639.8,2320 M5277.9,983.6c-12.2,0-24.5,2-36.5,5.8
				c-59.4,20.1-190.3,164.7-241.4,266.8c-16.7,32.8-23.7,46.4-43.2,46.4c-5,0-10.7-1-16.6-2.2c-112.5-22.1-256.6-140.3-314.7-258.2
				c-53.4-110.9-67.4-219.5-43.1-332c6.3-30.5,18-67.5,31.3-99.1c23.3-55.5,34.5-55.5,39.9-55.5c6.5,0,48.8,6.5,87.1,13.4
				c36.5,6.3,77.5,9.6,118.4,9.6c65.6,0,122-8.7,147-22.5c33.8-19.2,61.3-63.6,61.3-99c0-34.7-29.1-82.3-61-99.7
				c-15-8-25.7-11.4-53.3-11.4c-13.1,0-30.3,0.8-57.6,2.6c-12,0.6-24,1-35.5,1c-139,0-250-46.3-349.4-145.6
				C4407.4,101,4355.7-35.7,4365-180.8c14.5-215.6,157.6-393.1,364.6-452.2c33.5-9.6,77.5-11.6,108.5-11.6
				c74.7,0,188.8,13.3,208.4,42.8c3.8,5.7,4.6,12.2,2.2,18.3c-1.8,6-5.9,37.5-8.5,76.8c-7.2,102.8,27.2,207.2,92,279.3
				c35.4,39.3,62.6,53.9,100.4,53.9c39.9,0,76.8-24,96.3-62.6c19.2-38,16.7-81.3-6.6-112.9c-55.4-76.1-68.2-135.3-42.6-197.9
				c27.2-63.2,90.2-106.3,156.8-107.1c60.1,0,107.1-35.3,117-87.9c11.6-62.4-20.6-116.1-80.1-133.6c-13.4-3.9-29.1-5.9-46.7-5.9
				c-51.8,0-115.9,17.3-175.8,47.5c-42.5,21.2-60,30-75.5,30c-9.5,0-17.2-3.5-25.6-7.7c-46.8-23.8-163.9-55.6-227.9-61.9
				c-21.8-2.3-44.7-3.4-68-3.4c-76.3,0-154,12.2-219,34.5c-26.2,8.6-71.2,22.9-77.5,22.9l-4.4,0l-2.9-2.9
				c-4.3-4.3-6.8-6.8,19.2-78.3c28.7-82.6,72.4-150.1,133.7-206.3c92-84.3,184.6-122.5,319.5-131.9c96.3-7.2,116.1-18.2,141.7-78.6
				c43.3-99.1,52.6-116.1,89.9-165.2c90-119.6,229.5-188.2,382.7-188.2c89,0,177.1,24.1,254.7,69.5
				c54.9,31.6,137.6,115.9,170.4,173.6l2.5,4.5c22.6,40.3,32.9,58.7,27.4,75.6c-5.2,16.1-22.4,24.2-56.6,40.3l-2.5,1.2
				c-87.9,42.7-172.3,128.6-215.1,219c-18.4,39.3-37.8,93.3-43.2,120.3c-8.9,46.6-7.8,50.2,9,83.1c20.9,40.9,57,64.3,98.9,64.3
				c48,0,105.4-34,117.9-108.6c7-42.8,52.6-116.9,89-144.5l23.6-20.5l16.5-14.4v21.9v414.3v415.1v6.8l-6.4,2.5l-47.2,18.3
				c-141.3,52.7-257.7,185-296.5,337c-16.6,64.9-10.2,98.9,25.6,134.6c24.6,24.6,48.8,36,76.1,36c10.1,0,20.5-1.5,31.9-4.6
				c44.6-12.3,69.6-43.4,89.3-110.8c15-51.5,27.1-73.4,62-111.7c18-19.3,41.7-42.4,52.2-42.4c3,0,5.7,1.1,7.8,3.2
				c4.2,4.2,4.2,4.2,7.1,220.2c1.5,110.3,3.5,261.4,6.5,423.3v631.4v14.9l-13.8-5.7l-54.6-22.4l-0.3-0.1l-0.3-0.2
				c-91.8-45.4-172.7-151.8-196.9-258.6c-18.8-82.1-54.3-117.4-119-118.2c-1,0-2,0-3,0c-29.7,0-56.8,10.9-76.3,30.6
				c-20.7,21-31.9,50.6-31.5,83.7c0,20.4,8.1,63.4,17.8,94c61.5,198.2,206.3,347.4,397.5,409.4l65.3,22.4l6.8,2.3v7.2v46.3
				c1.9,126.7-50.9,256.7-141.3,347.8c-62.8,62.7-111.6,94.1-193.5,124.1c-43,15.7-105.3,25-166.7,25c-38.4,0-73.1-3.7-100.4-10.6
				c-92.4-23.5-156.9-61.2-230.2-134.4c-104.5-105.3-147.2-207.9-147.2-354.2c0-147.5,47-256.7,157.2-365
				c77.6-76.7,83.3-88.3,83.3-125.5C5390.8,1034.7,5341.2,983.6,5277.9,983.6 M6358.3-1608.6h10h107.8c97.5,0,117.8,0,117.8,24.9
				c0,7.1,5.9,107,12.2,212.8l0.2,3.6c17.1,266.5,17.1,266.5,142.6,309.4c88.8,31.6,178,72.8,258,119.3
				c44.1,25.8,75.5,37.3,101.8,37.3c15.8,0,30.7-4,46.8-12.7c12.1-6.4,86.1-68.9,172.2-145.3l148.4-132.6l7-6.3l6.7,6.6l110.3,109.4
				c113.2,113.1,113.2,119.1,113.2,123.9c0,4.4,0,6.1-41.7,56.3c-25.5,30.7-59,70.1-94.3,111c-78,90.3-138.7,168-144.3,181.3
				c-14.9,34.6-11.5,62.1,36.9,147.8c55.3,99.2,96.6,198.1,122.8,293.8c13.5,46.9,30.4,96.1,39.2,114.4
				c26.4,54.3,28.6,58.7,273.6,74.8l213.1,14.1l9.3,0.6v9.4v162.4v162.4v9.4l-9.3,0.6l-208.2,14.1
				c-242.4,15.9-251.8,21.4-278.6,75.7c-9.8,19.6-27.5,73.1-39.1,113.3c-26.2,95.8-67.5,194.6-122.8,293.9
				c-48.4,85.6-51.7,113.1-36.8,147.8c5.6,13.3,66.3,91,144.3,181.3c35.3,40.8,68.7,80.2,94.3,111c41.7,50.2,41.7,51.9,41.7,56.3
				c0,4.8,0,10.8-113.3,123.9l-110.3,109.4l-6.7,6.6l-7-6.3l-148.4-132.6c-86-76.4-160.1-138.9-172.2-145.3
				c-16.1-8.6-31-12.7-46.8-12.7c-26.4,0-57.8,11.5-101.9,37.3c-80,46.5-169.1,87.7-258,119.3c-125.4,42.8-125.4,42.8-142.5,309.3
				l-0.2,3.3c-6.3,106-12.2,206.1-12.2,214c0,24.1-20.3,24.1-117.8,24.1h-107.8h-10v-10v-389.4V1236v-8.6l8.5-1.3l27.7-4.2
				c6.1-0.7,17.9-2.4,32.9-4.5c18.8-2.7,42.2-6,63.9-8.7c145.7-19.7,309.5-89.3,438.2-186.2c200-149.4,334-360.9,387.6-611.4
				c18.9-86,21.2-303.4,4.1-387.8c-35.9-180.8-117.2-348.3-235.2-484.6c-117.9-136.1-269.7-237.8-438.9-294.2
				c-49.2-16.1-119.1-33-155.7-37.7c-21.8-2.8-45.2-6.1-64-8.7c-15-2.1-26.8-3.8-33.3-4.5l-27.4-4.1l-8.5-1.3v-8.6v-388.6v-389.4
				L6358.3-1608.6 M6358.3-581.4l11.7,2l19.1,3.3l0.4,0.1l0.4,0.1c9.5,2.4,38.1,6.4,62.5,8.9c62.3,6.7,186.2,48.8,250.1,84.9
				c293.3,163.4,451.3,495.5,393.1,826.6c-55,316.4-305.5,577.7-609.1,635.3c-24.9,5-61.5,10.8-81,13.4l-35.7,5l-11.4,1.6v-11.5
				V209.3v-778.9L6358.3-581.4 M5639.8,2330c-48.9,0-97.9-5-146.3-15.3c-271.2-58-485.1-262.7-560.6-537.7
				c-7.5-25.7-15.8-89.5-18.2-141.7l-5.8-94.5l-58-18.2c-151.8-46.4-296.9-153.3-385.6-281.7c-39.8-58-80.4-145.8-104.5-224.5
				c-19.9-65.5-22.4-87.8-23.2-193.9c-0.8-135.1,10-188.9,58-303.3l28.2-66.3l-80.4-82.9C4221.4,247.5,4157.5,119,4132.6-47.5
				c-26.5-182.3,29-399.4,136.8-540.2l34-43.9l0.8-99.4c0.8-54.7,7.5-125.9,14.1-157.4c63-292.5,286.9-515.4,576.3-573.4l76.3-15.7
				l43.1-73.7c137.7-232.3,380.2-358.6,627.6-358.6c148.8,0,299.3,45.7,429.8,141.6l51.4,38.1l5-24c3.3-13.3,12.4-34,22.4-45.6
				c34.8-44.7,42.3-45.6,327.6-45.6c250.4,0,265.4,0.8,291.1,16.6c48.9,29.8,56.4,60.5,73,321.5l15.8,234.5l66.3,27.3
				c36.5,14.9,89.6,38.9,117.8,53l51.4,26.5l164.2-145.8c160.9-142.5,197.4-169,237.2-169c43.1,0,94.5,43.9,295.2,249.4
				c224.7,230.3,229.7,237.8,209.8,304.9c-6.6,19.9-58.9,87-155.1,198c-79.6,92.8-145.1,169.9-145.1,172.3c0,2.5,16.6,38.9,37.3,82
				c19.9,43.1,50.6,116.8,67.2,164.9s34.8,87.8,39.8,87.8c5,0.8,104.5,7.5,221.4,15.7c230.5,15.7,247.1,19.9,284.4,69.6
				c16.6,22.4,17.4,33.1,19.9,323.1c1.7,164.9,0,312.4-2.5,327.3c-2.5,14.9-15.8,39.8-29.8,54.7c-31.5,36.5-63,43.1-252.1,54.7
				c-82.1,5-172.5,10.8-200.7,13.3l-50.6,5l-29.9,87c-16.6,47.2-47.3,121-67.2,164.1c-20.7,43.1-37.3,79.5-37.3,82
				s65.5,79.5,145.1,172.3c96.2,111,148.4,178.1,155.1,198c19.9,67.1,14.9,74.6-209.8,304.9c-200.7,205.5-252.1,249.4-295.2,249.4
				c-39.8,0-76.3-25.7-237.2-169l-164.2-145.8l-51.4,26.5c-28.2,14.1-81.3,38.1-117.8,53l-66.3,27.3l-15.8,234.5
				c-16.6,261-24,291.7-73,321.5c-25.7,15.7-40.6,16.6-291.1,16.6c-285.3,0-292.7-0.8-327.6-45.6c-10-11.6-19.1-32.3-22.4-45.6
				l-5-24l-51.4,38.1C5944.5,2280.7,5792.8,2330,5639.8,2330L5639.8,2330z M5277.9,973.6c66.5,0,122.9,53.7,122.9,126.5
				c0,42.3-10,57.2-86.2,132.6c-107.8,106.1-154.2,212.9-154.2,357.9c0,143.3,42.3,244.4,144.3,347.2
				c72.1,72.1,134.3,108.5,225.6,131.7c27.4,7,61.8,10.3,97.9,10.3c57.9,0,119.9-8.6,163.3-24.4c81.3-29.8,129.4-61.3,189.9-121.8
				c87.9-88.7,140.1-216.3,138.3-340.5v-46.4l-65.3-22.4c-194-63-341.6-215.4-403.9-415.9c-10-31.5-18.2-75.4-18.2-96.9
				c-0.8-71.8,49-124.3,117.9-124.3c1.1,0,2.1,0,3.2,0c69.7,0.8,108.6,38.9,128.5,125.9c23.2,102.7,102.8,208,191.6,251.9l54.6,22.4
				V655.9c-6.5-347.2-8.1-633.9-10.6-636.3c-0.2-0.2-0.4-0.2-0.7-0.2c-4.5,0-24,16.7-44.9,39.2c-33.2,36.5-44.8,56.3-59.7,107.7
				c-20.7,71.3-48.1,104.4-96.2,117.7c-12.1,3.3-23.6,5-34.5,5c-30.4,0-57-12.8-83.2-38.9c-38.1-38.1-45.6-76.2-28.2-144.2
				c39.8-155.8,158.4-290,302.7-343.9l47.1-18.2v-415.1v-414.3l-23.9,20.7c-34,25.7-78.8,97.8-85.4,138.4
				c-12.5,74.9-70.2,117-127.7,117c-41.7,0-83.4-22.1-107.8-69.8c-18.2-35.6-19.1-41.4-10-89.5c5.8-29,25.7-83.7,44-122.6
				c44-92.8,131-180.6,219.8-223.7c68.8-32.3,68-30.7,24.9-107.7c-31.5-55.5-112-138.4-166.7-169.9c-78.6-46-164.9-68.2-249.7-68.2
				c-144.3,0-284.3,64.2-374.7,184.2c-36.5,48.1-45.6,64.6-88.7,163.2c-27.4,64.6-50.6,77.1-150.1,84.5
				c-131.9,9.1-223.1,46.4-313.5,129.3c-60.5,55.5-102.8,121-131,202.2c-13.3,36.5-22.4,67.1-21.6,67.9c0,0,0.1,0,0.2,0
				c3.2,0,35.3-9.7,74.4-22.4c66.6-22.8,145.8-35,222.1-35c23.4,0,46.6,1.2,69,3.5c67.2,6.6,184.1,38.9,231.4,63
				c8.2,4.1,14.1,6.6,21.1,6.6c12.7,0,29.3-8.1,71-28.9c62.2-31.4,127.6-48.6,180.2-48.6c18.3,0,35,2.1,49.5,6.3
				c64.7,19.1,99.5,77.9,87.1,145c-10.8,57.2-62.2,96.1-126.9,96.1c-63,0.8-121.9,41.4-147.6,101.1c-24,58.8-11.6,115.2,41.5,188.1
				c55.6,75.4-4.1,191.4-97.9,191.4c-40.6,0-70.5-15.7-107.8-57.2c-66.3-73.7-102-180.6-94.5-286.7c2.5-36.5,6.6-72.1,9.1-79.5
				c11.2-26.6-101.1-47.7-201.1-47.7c-40.2,0-78.4,3.4-105.7,11.3c-203.2,58-343.3,233.7-357.4,443.3
				c-9.1,143.3,41.5,275.9,142.6,377c97.1,97.1,206.3,142.6,342.3,142.6c11.5,0,23.1-0.3,35-1c25.1-1.7,43.7-2.6,58.1-2.6
				c28.9,0,41.4,3.7,58,12.5c34.8,19.1,66.3,69.6,66.3,108.5s-29.9,87-66.3,107.7c-27.8,15.4-86.9,23.8-151.9,23.8
				c-39.8,0-81.7-3.1-120.1-9.8c-41.5-7.5-80.4-13.3-85.4-13.3c-13.3,0-48.1,82.9-61.4,146.7c-24,111-9.1,218.7,42.3,325.6
				c56.4,114.3,198.2,231.2,307.7,252.7c6,1.2,10.7,2,14.7,2c12.9,0,17.7-8.6,34.3-40.9c53.1-106.1,185.8-251.1,247.1-271.8
				C5251.6,975.6,5264.9,973.6,5277.9,973.6L5277.9,973.6z M6368.3-1598.6v389.4v388.6l27.4,4.1c14.1,1.7,58,8.3,97,13.3
				c39,5,109.5,22.4,157.6,38.1c348.3,116,607,414.3,680.8,786.3c17.4,86.2,14.9,304.9-4.1,391.9
				c-53.9,251.9-190.7,467.3-391.4,617.3c-131,98.6-296,168.2-442.8,188.1c-39,5-82.9,11.6-97,13.3l-27.4,4.1v388.6V2014h107.8
				c97,0,107.8-1.7,107.8-14.1c0-8.3,5.8-106.1,12.4-217.9c17.4-270.9,18.2-273.4,149.3-318.2c86.2-30.7,175-71.3,256.2-118.5
				c44.7-26.2,77.6-38.7,106.9-38.7c17.9,0,34.5,4.7,51.5,13.8c14.1,7.5,92,73.7,174.1,146.7l148.4,132.6l110.3-109.4
				c60.5-60.5,110.3-112.7,110.3-116.8c0-3.3-60.5-76.2-133.5-160.7c-73.8-85.3-139.3-168.2-146-183.9
				c-17.4-40.6-10-72.9,37.3-156.6c53.1-95.3,95.4-194.7,121.9-291.7c12.4-43.1,29.9-95.3,39.8-115.2
				c29.9-60.5,47.3-65.5,286.9-81.2l208.1-14.1V207.7V45.3L7905,31.2c-240.5-15.7-252.1-19.1-282-80.4c-10-20.7-27.4-72.9-39.8-116
				c-26.5-96.9-68.8-196.4-121.9-291.7c-47.3-83.7-54.7-116-37.3-156.6c6.6-15.7,72.1-98.6,146-183.9
				c73-84.5,133.5-157.4,133.5-160.7c0-4.1-49.8-56.3-110.3-116.8l-110.3-109.4l-148.4,132.6c-82.1,72.9-160,139.2-174.1,146.7
				c-17,9.1-33.6,13.8-51.5,13.8c-29.2,0-62.2-12.5-106.9-38.7c-81.3-47.2-170-87.8-256.2-118.5c-131-44.7-131.9-47.2-149.3-318.2
				c-6.6-111.9-12.4-209.6-12.4-217.1c0-13.3-10.8-14.9-107.8-14.9H6368.3L6368.3-1598.6z M6368.3-569.5v778.8v778.9l35.7-5
				c19.1-2.5,55.6-8.3,80.4-13.3c301-57.2,546.5-312.4,601.2-627.2c57.2-325.6-99.5-655.4-388.1-816.1
				c-63-35.6-184.9-77.1-246.3-83.7c-24.9-2.5-53.9-6.6-63.9-9.1L6368.3-569.5L6368.3-569.5z"/>
		</g>
	</g>
</g>
<g class="st1">
	<path class="st4" d="M686,703H556V506V387.8c0-10,5.8-18.2,13-18.2H673c7.2,0,13,8.1,13,18.2v178.8L686,703L686,703z"/>
	<path class="st4" d="M686,279H556"/>
	<path class="st4" d="M803,703H686V584.5c0-10,5.8-18.2,13-18.2H803c7.2,0,13,8.1,13,18.2v100.3C816,694.9,810.2,703,803,703z"/>
	<path class="st4" d="M555,703V524.5c0-10-5.8-18.2-13-18.2H438c-7.2,0-13,8.1-13,18.2v160.3c0,10,5.8,18.2,13,18.2L555,703L555,703
		z"/>
</g>
<g>
	<g>
		<path class="st3" d="M821,412.8L607.2,626.6c-15.8,15.8-41.5,15.8-57.4,0L439.5,516.2c-15.8-15.8-15.8-41.5,0-57.4
			s41.5-15.8,57.4,0l81.7,81.7l185.1-185.1c15.8-15.8,41.5-15.8,57.4,0C836.9,371.3,836.9,396.9,821,412.8z"/>
	</g>
</g>
</svg>
