<svg width="792" height="544" viewBox="0 0 792 544" fill="none" xmlns="http://www.w3.org/2000/svg">
<g clip-path="url(#clip0_133_52)">
<path d="M361.36 253.936H338.722C338.021 253.936 337.348 254.208 336.852 254.692C336.357 255.175 336.078 255.831 336.078 256.515V278.6C336.077 278.939 336.145 279.275 336.277 279.588C336.41 279.901 336.605 280.186 336.851 280.425C337.096 280.665 337.388 280.855 337.709 280.984C338.03 281.114 338.374 281.18 338.722 281.179H361.36C362.061 281.179 362.734 280.907 363.23 280.424C363.725 279.94 364.004 279.284 364.004 278.6V256.515C364.002 255.832 363.723 255.177 363.228 254.693C362.732 254.21 362.061 253.938 361.36 253.936Z" fill="#E6E6E6"/>
<path d="M363.964 293.71C363.851 293.116 363.529 292.579 363.054 292.191C362.579 291.804 361.98 291.59 361.36 291.587H338.722C338.021 291.587 337.348 291.859 336.852 292.343C336.357 292.826 336.078 293.482 336.078 294.166V316.251C336.077 316.59 336.145 316.926 336.277 317.239C336.41 317.552 336.605 317.837 336.85 318.077C337.096 318.316 337.388 318.506 337.709 318.636C338.03 318.765 338.374 318.831 338.722 318.831H361.36C362.061 318.83 362.734 318.559 363.23 318.075C363.725 317.591 364.004 316.935 364.004 316.251V294.166C364.007 294.013 363.993 293.86 363.964 293.71Z" fill="#E6E6E6"/>
<path d="M362.387 329.437C362.062 329.305 361.713 329.238 361.36 329.238H338.722C338.374 329.238 338.03 329.304 337.709 329.433C337.388 329.563 337.096 329.753 336.85 329.992C336.605 330.232 336.41 330.517 336.277 330.83C336.145 331.143 336.077 331.479 336.078 331.818V353.903C336.076 354.242 336.143 354.578 336.276 354.892C336.408 355.205 336.603 355.49 336.849 355.73C337.094 355.97 337.386 356.16 337.708 356.289C338.029 356.418 338.374 356.484 338.722 356.482H361.36C362.061 356.482 362.734 356.21 363.23 355.726C363.725 355.243 364.004 354.587 364.004 353.903V331.818C364.003 331.31 363.849 330.814 363.562 330.391C363.274 329.968 362.866 329.636 362.387 329.437Z" fill="#E6E6E6"/>
<path d="M408.915 329.238H386.277C385.929 329.238 385.585 329.304 385.264 329.433C384.943 329.563 384.651 329.753 384.405 329.992C384.16 330.232 383.965 330.517 383.832 330.83C383.7 331.143 383.632 331.479 383.633 331.818V353.903C383.632 354.242 383.7 354.577 383.832 354.891C383.965 355.204 384.16 355.489 384.405 355.728C384.651 355.968 384.943 356.158 385.264 356.287C385.585 356.417 385.929 356.483 386.277 356.482H408.915C409.616 356.482 410.289 356.21 410.785 355.726C411.28 355.243 411.559 354.587 411.559 353.903V331.818C411.559 331.134 411.28 330.478 410.785 329.994C410.289 329.51 409.616 329.239 408.915 329.238Z" fill="#E6E6E6"/>
<path d="M214.623 243.126C252.998 243.126 284.107 212.778 284.107 175.342C284.107 137.906 252.998 107.558 214.623 107.558C176.249 107.558 145.14 137.906 145.14 175.342C145.14 212.778 176.249 243.126 214.623 243.126Z" fill="#FFB6B6"/>
<path d="M275.472 125.644C275.472 125.644 293.645 91.7518 253.664 88.6706C253.664 88.6706 219.579 58.5076 184.837 83.1564C184.837 83.1564 165.887 83.1564 155.525 104.076C155.525 104.076 140.62 98.5619 137.345 113.319C137.345 113.319 126.439 144.131 137.345 171.86C148.251 199.59 151.873 202.671 151.873 202.671C151.873 202.671 133.953 144.534 177.573 141.453C221.193 138.372 270.005 111.779 273.64 145.671C277.275 179.563 282.746 187.914 282.746 187.914C282.746 187.914 317.273 139.509 275.472 125.644Z" fill="#2F2E41"/>
<path d="M394.362 342.394L394.138 343.545L391.626 356.482L374.266 445.972L373.239 451.241L371.083 462.382L368.133 477.582L361.594 511.264L359.723 520.918L359.021 524.539L358.777 525.809L356.834 535.8L356.244 538.816L351.505 573.074L347.366 602.927L361.218 616.44L352.96 624.496L347.539 654.786L347.549 654.856H126.321C117.371 649.2 108.55 643.37 99.8581 637.364L101.679 624.07C101.679 624.07 107.943 600.328 105.309 597.491C102.685 594.653 96.9289 589.583 96.9289 589.583L104.18 573.074L105.187 570.782L103.499 536.623L103.458 535.8L102.899 524.539L102.828 523.091L102.716 520.918L100.57 477.582L100.529 476.867L99.8785 463.731L99.2682 451.241L99.0038 445.972L96.3901 393.26L94.6205 357.464L93.0747 326.301L99.2886 324.248L165.75 302.212L193.28 267.299L250.578 267.716L278.627 267.924L325.429 310.269L336.078 315.229L336.159 315.269L343.796 318.831L363.16 327.849L383.633 337.394L394.138 342.285L394.362 342.394Z" fill="#CACACA"/>
<path d="M200.685 553.164C196.486 554.75 191.982 555.42 187.489 555.125C182.996 554.83 178.624 553.577 174.682 551.455C170.739 549.334 167.321 546.395 164.668 542.845C162.016 539.295 160.193 535.221 159.329 530.91L50.9587 515.911L88.6314 474.339L185.766 494.956C193.287 494.02 200.898 495.807 207.157 499.98C213.416 504.153 217.889 510.42 219.728 517.595C221.567 524.77 220.644 532.354 217.134 538.909C213.624 545.465 207.772 550.537 200.685 553.164V553.164Z" fill="#FFB6B6"/>
<path d="M152.366 477.582C150.358 475.099 147.517 473.388 144.342 472.75L99.8784 463.732L95.312 462.809C92.6583 462.269 90.1514 461.188 87.9554 459.637C85.7594 458.086 83.9239 456.101 82.5689 453.81C81.1633 451.406 80.3129 448.731 80.0772 445.972C79.8653 443.465 80.1731 440.941 80.9823 438.551L96.3899 393.261L106.387 363.874C107.599 360.329 108.314 356.642 108.513 352.911C109.07 342.585 105.795 332.41 99.2884 324.248C93.568 317.074 85.6341 311.885 76.6585 309.448C67.683 307.011 58.1419 307.456 49.445 310.715C49.1908 310.805 48.9264 310.904 48.6721 311.003C42.4351 313.432 36.8628 317.244 32.3954 322.136C27.9281 327.027 24.6882 332.866 22.9318 339.189L12.0702 377.734L-10.3344 457.194C-12.5772 465.155 -13.0303 473.495 -11.6627 481.642C-10.2951 489.79 -7.13908 497.554 -2.41065 504.401C2.31779 511.249 8.50699 517.019 15.7333 521.317C22.9597 525.614 31.0526 528.338 39.4581 529.302L103.499 536.623L133.134 540.017C136.561 540.418 140.017 539.546 142.814 537.573C145.611 535.6 147.544 532.672 148.227 529.371C148.275 529.191 148.312 529.009 148.338 528.825L149.05 524.539L155.081 488.446L155.142 488.078C155.456 486.237 155.372 484.351 154.894 482.543C154.415 480.735 153.554 479.045 152.366 477.582Z" fill="#CACACA"/>
<path d="M269.712 554.321C274.099 555.314 278.655 555.357 283.06 554.447C287.465 553.537 291.612 551.695 295.209 549.052C298.806 546.409 301.765 543.029 303.877 539.15C305.99 535.271 307.206 530.987 307.438 526.6L412.557 496.843L369.252 460.868L276.067 494.642C268.487 494.75 261.211 497.567 255.617 502.559C250.023 507.551 246.501 514.371 245.718 521.728C244.934 529.084 246.944 536.465 251.367 542.472C255.789 548.479 262.317 552.695 269.712 554.321V554.321Z" fill="#FFB6B6"/>
<path d="M464.749 430.277L414.753 318.027C410.663 308.812 403.36 301.307 394.138 296.845C391.288 295.476 388.294 294.412 385.209 293.67C384.731 293.551 384.253 293.442 383.775 293.353C377.233 291.96 370.448 292.083 363.964 293.71C358.036 295.196 352.496 297.883 347.705 301.598C342.914 305.313 338.98 309.971 336.159 315.269C336.128 315.313 336.101 315.36 336.077 315.408C332.926 321.355 331.25 327.942 331.185 334.636C331.119 341.331 332.666 347.947 335.701 353.952L336.321 355.163L371.652 424.384C372.859 426.751 373.538 429.34 373.647 431.981C373.755 434.623 373.29 437.257 372.282 439.71C371.273 442.164 369.745 444.382 367.796 446.218C365.847 448.055 363.522 449.469 360.974 450.368L358.492 451.241L313.866 466.966C310.517 468.132 307.763 470.519 306.183 473.626C304.603 476.733 304.32 480.318 305.394 483.624L305.506 483.971L318.015 523.021C318.076 523.2 318.137 523.379 318.208 523.557C318.318 523.894 318.454 524.222 318.615 524.539C319.945 527.448 322.295 529.799 325.242 531.168C328.189 532.537 331.541 532.836 334.694 532.01L358.777 525.809L363.689 524.539L425.879 508.516C434.062 506.407 441.681 502.597 448.214 497.349C454.748 492.1 460.041 485.535 463.733 478.105C467.424 470.675 469.426 462.554 469.601 454.299C469.777 446.044 468.121 437.85 464.749 430.277L464.749 430.277Z" fill="#CACACA"/>
<path d="M-69 525C-54.5886 542.148 -39.0463 558.361 -22.4721 573.535H437.183C441.611 573.542 445.856 575.262 448.987 578.318C452.117 581.373 453.878 585.516 453.882 589.836L454.543 703.465C482.821 690.791 509.302 674.607 533.33 655.316C540.002 649.969 546.467 644.39 552.725 638.579C556.823 634.789 560.823 630.907 564.725 626.932C593.978 597.202 617.666 562.704 634.715 525H-69Z" fill="#3F3D56"/>
<path d="M393.446 253.935C392.963 253.065 392.248 252.338 391.376 251.832C390.504 251.325 389.508 251.058 388.494 251.058H55.0793C53.5844 251.062 52.1521 251.644 51.096 252.676C50.04 253.708 49.4463 255.106 49.4451 256.565V451.241H394.138V256.565C394.143 255.645 393.905 254.739 393.446 253.935Z" fill="#3F3D56"/>
<path d="M49.1433 445.97V469.993C49.1433 470.989 49.3444 471.975 49.7351 472.895C50.1257 473.816 50.6983 474.652 51.4202 475.356C52.142 476.06 52.999 476.619 53.9422 477C54.8854 477.381 55.8962 477.577 56.9171 477.577H184.141V524.988H182.451C182.318 524.988 182.187 525.013 182.064 525.063C181.942 525.112 181.83 525.185 181.737 525.276C181.643 525.368 181.569 525.476 181.518 525.596C181.467 525.715 181.441 525.843 181.441 525.973V529.27C181.441 529.4 181.467 529.528 181.518 529.647C181.568 529.767 181.643 529.875 181.737 529.967C181.83 530.058 181.942 530.131 182.064 530.181C182.187 530.23 182.318 530.256 182.451 530.256H261.43C261.562 530.256 261.694 530.23 261.816 530.181C261.939 530.131 262.05 530.058 262.144 529.967C262.238 529.875 262.312 529.767 262.363 529.647C262.413 529.528 262.44 529.4 262.44 529.27V525.973C262.44 525.843 262.413 525.715 262.363 525.596C262.312 525.476 262.238 525.368 262.144 525.276C262.05 525.185 261.939 525.112 261.816 525.063C261.694 525.013 261.562 524.988 261.43 524.988H259.74V477.577H386.963C387.984 477.577 388.995 477.381 389.938 477C390.881 476.619 391.738 476.06 392.46 475.356C393.182 474.652 393.755 473.816 394.145 472.895C394.536 471.975 394.737 470.989 394.737 469.993V445.97H49.1433Z" fill="#3F3D56"/>
<path d="M217.764 377.02C235.348 377.02 249.603 363.114 249.603 345.96C249.603 328.806 235.348 314.9 217.764 314.9C200.18 314.9 185.926 328.806 185.926 345.96C185.926 363.114 200.18 377.02 217.764 377.02Z" fill="#1976D2"/>
<path d="M298.885 171.638H293.8C293.8 134.136 255.754 109.561 217.373 109.541C211.79 109.525 206.22 110.053 200.745 111.118C194.582 112.319 188.185 113.757 181.9 115.632C157.115 123.044 134.131 137.37 134.131 171.638C134.126 178.293 134.994 184.922 136.714 191.362L131.792 192.612C129.966 185.763 129.043 178.715 129.046 171.638C129.046 141.696 141.647 121.129 163.41 108.866C174.852 102.417 188.815 98.2602 204.813 96.2363C211.47 95.3723 218.2 95.1728 224.898 95.641C269.036 98.7364 298.885 131.755 298.885 171.638Z" fill="#1976D2"/>
<path d="M307.357 174.386L305.354 159.941C304.86 156.293 303.058 152.933 300.269 150.456C298.478 148.841 296.334 147.645 294 146.958C291.665 146.27 289.201 146.109 286.793 146.488L283.61 146.914C282.739 147.026 281.9 147.306 281.14 147.736C280.381 148.167 279.717 148.741 279.186 149.424C278.651 150.105 278.26 150.883 278.035 151.712C277.81 152.541 277.755 153.406 277.874 154.256L282.502 187.532C282.692 188.888 283.316 190.152 284.283 191.144C285.25 192.135 286.513 192.805 287.892 193.058C288.3 193.138 288.716 193.178 289.133 193.177C289.432 193.177 289.731 193.157 290.028 193.118L293.587 192.652C295.757 192.371 297.846 191.66 299.724 190.563C301.602 189.466 303.231 188.006 304.51 186.272C304.784 185.895 305.049 185.508 305.293 185.111C307.199 181.865 307.926 178.086 307.357 174.386Z" fill="#1976D2"/>
<path d="M281.556 147.52C280.622 147.962 279.81 148.615 279.186 149.424C278.651 150.105 278.26 150.883 278.035 151.712C277.81 152.542 277.755 153.406 277.874 154.256L282.502 187.532C282.692 188.888 283.316 190.152 284.283 191.144C285.25 192.135 286.513 192.805 287.892 193.058L281.556 147.52Z" fill="white"/>
<path d="M307.357 174.386L305.354 159.941C304.86 156.293 303.058 152.933 300.269 150.456L304.876 183.564C304.945 184.095 305.085 184.615 305.293 185.111C307.199 181.865 307.926 178.086 307.357 174.386Z" fill="#3F3D56"/>
<path d="M291.523 184.795C292.914 184.61 293.614 181.38 293.085 177.579C292.557 173.779 291 170.847 289.609 171.031C288.217 171.215 287.518 174.445 288.046 178.246C288.575 182.047 290.131 184.979 291.523 184.795Z" fill="#3F3D56"/>
<path d="M288.472 166.936C289.863 166.752 290.563 163.522 290.034 159.721C289.506 155.92 287.949 152.988 286.558 153.172C285.166 153.357 284.467 156.587 284.995 160.388C285.524 164.188 287.08 167.12 288.472 166.936Z" fill="#3F3D56"/>
<path d="M307.795 173.881C309.186 173.697 309.886 170.467 309.357 166.666C308.829 162.865 307.272 159.933 305.881 160.117C304.489 160.302 303.79 163.532 304.318 167.333C304.847 171.133 306.403 174.065 307.795 173.881Z" fill="#3F3D56"/>
<path d="M217.373 109.541C211.79 109.525 206.22 110.053 200.745 111.118C194.582 112.319 188.185 113.757 181.9 115.632C172.086 115.166 164.865 112.686 163.411 108.866C174.852 102.417 188.815 98.2602 204.813 96.2363C211.47 95.3723 218.2 95.1728 224.899 95.641C225.608 96.0465 226.221 96.5939 226.698 97.2471C227.174 97.9003 227.504 98.6446 227.665 99.4309C228.143 102.884 224.105 106.554 217.373 109.541Z" fill="#3F3D56"/>
<path d="M152.447 206.065L144.616 174.307C144.337 173.161 143.717 172.122 142.834 171.318C141.951 170.515 140.845 169.985 139.653 169.793C139.317 169.742 138.977 169.715 138.636 169.714C138.157 169.715 137.679 169.772 137.213 169.882L134.182 170.596C130.28 171.517 126.912 173.91 124.816 177.251C122.721 180.592 122.069 184.607 123.005 188.415L126.514 202.662C127.315 206.016 129.223 209.021 131.945 211.214C132.386 211.562 132.848 211.883 133.328 212.177C135.032 213.219 136.934 213.918 138.92 214.231C140.906 214.545 142.936 214.467 144.891 214.002L147.912 213.288C148.71 213.106 149.462 212.765 150.118 212.286C151.095 211.591 151.838 210.629 152.253 209.521C152.668 208.413 152.735 207.21 152.447 206.065Z" fill="#1976D2"/>
<path d="M136.03 200.156C137.396 199.836 137.757 196.553 136.837 192.824C135.917 189.095 134.064 186.331 132.699 186.652C131.334 186.972 130.973 190.255 131.893 193.984C132.813 197.713 134.665 200.477 136.03 200.156Z" fill="#3F3D56"/>
<path d="M125.86 203.133C127.226 202.812 127.587 199.529 126.667 195.8C125.747 192.071 123.895 189.308 122.529 189.628C121.164 189.949 120.803 193.232 121.723 196.961C122.643 200.69 124.495 203.453 125.86 203.133Z" fill="#3F3D56"/>
<path d="M152.945 205.946L145.115 174.188C144.809 172.948 144.136 171.824 143.179 170.956C142.222 170.087 141.024 169.514 139.735 169.307L150.423 212.683C151.479 211.928 152.282 210.886 152.731 209.687C153.18 208.488 153.254 207.186 152.945 205.946Z" fill="white"/>
<path d="M124.775 182.125C124.558 181.242 124.153 180.413 123.585 179.694C122.484 182.475 122.282 185.519 123.005 188.415L126.514 202.662C127.315 206.016 129.223 209.021 131.944 211.214L124.775 182.125Z" fill="#3F3D56"/>
</g>
<defs>
<clipPath id="clip0_133_52">
<rect width="865" height="735" fill="white" transform="translate(-73)"/>
</clipPath>
</defs>
</svg>
