<svg xmlns="http://www.w3.org/2000/svg" xmlns:xlink="http://www.w3.org/1999/xlink" viewBox="0 0 400 400" width="400" height="400">
  <svg xmlns="http://www.w3.org/2000/svg" xmlns:xlink="http://www.w3.org/1999/xlink" viewBox="0 0 400 400" width="380" height="380" x="10" y="10" selection="true">
<path fill="#1266f1" d="M200,0C89.5,0,0,89.5,0,200c0,110.4,89.5,200,200,200c110.4,0,200-89.5,200-200S310.5,0,200,0z"/>
<path fill="#E8F3F5" d="M200,19.5c-99.7,0-180.5,80.8-180.5,180.5S100.3,380.5,200,380.5S380.5,299.7,380.5,200S299.7,19.5,200,19.5z   M59.2,243c0,2.7-2.2,4.9-4.9,4.9s-4.9-2.2-4.9-4.9l0,0l0,0c0-2.7,2.2-4.9,4.9-4.9S59.2,240.3,59.2,243  C59.2,242.9,59.2,242.9,59.2,243C59.2,242.9,59.2,242.9,59.2,243z M74.7,277.9c0,2.7-2.2,4.9-4.9,4.9s-4.9-2.2-4.9-4.9l0,0l0,0  c0-2.7,2.2-4.9,4.9-4.9S74.7,275.2,74.7,277.9L74.7,277.9L74.7,277.9z M97.4,307.3c0,2.6-2.1,4.6-4.7,4.6c-1,0-1.9-0.3-2.6-0.8  c-1.2-0.8-2.1-2.3-2.1-3.9l0,0l0,0c0-0.6,0.1-1.3,0.4-1.8c0.1-0.3,0.3-0.5,0.4-0.8c0.3-0.5,0.8-0.9,1.3-1.3c0.7-0.5,1.6-0.8,2.6-0.8  c1.9,0,3.6,1.2,4.3,2.8C97.2,306,97.4,306.6,97.4,307.3L97.4,307.3L97.4,307.3z M127.7,332.8c-0.2,0.6-0.6,1.1-1,1.5  c-0.9,0.9-2.1,1.4-3.4,1.4c-0.7,0-1.3-0.1-1.9-0.4s-1.1-0.6-1.5-1c-0.9-0.9-1.4-2.1-1.4-3.4s0.5-2.6,1.4-3.4c0.4-0.4,1-0.8,1.5-1  c0.6-0.2,1.2-0.4,1.9-0.4c2.7,0,4.9,2.2,4.9,4.9C128.1,331.6,128,332.2,127.7,332.8z M160.9,345.2c0,2.7-2.2,4.9-4.9,4.9  s-4.8-2.2-4.8-4.9l0,0l0,0c0-2.7,2.2-4.9,4.8-4.9C158.7,340.3,160.9,342.5,160.9,345.2L160.9,345.2L160.9,345.2z M246.4,57.8  c-0.9,0.9-2.1,1.4-3.4,1.4c-2.7,0-4.9-2.2-4.9-4.9c0-1.3,0.5-2.6,1.4-3.4c0.9-0.9,2.1-1.4,3.4-1.4c2.7,0,4.9,2.2,4.9,4.9  C247.8,55.7,247.3,56.9,246.4,57.8z M282.8,69.8c0,2.7-2.2,4.9-4.8,4.9c-2.7,0-4.9-2.2-4.9-4.9l0,0l0,0c0-2.7,2.2-4.9,4.9-4.9  C280.6,64.9,282.8,67.1,282.8,69.8L282.8,69.8L282.8,69.8z M311.9,92.7c0,2.6-2.1,4.7-4.6,4.7s-4.7-2.1-4.7-4.7l0,0l0,0  c0-2.6,2.1-4.6,4.7-4.6S311.9,90.2,311.9,92.7L311.9,92.7L311.9,92.7z M330.9,128.1c-2.7,0-4.9-2.2-4.9-4.8c0-1.3,0.5-2.6,1.4-3.4  c0.9-0.9,2.1-1.4,3.4-1.4c2.7,0,4.9,2.2,4.9,4.9c0,1-0.3,1.9-0.8,2.7C334.1,127.3,332.6,128.1,330.9,128.1z M347.9,160.1  c-0.8,0.5-1.7,0.8-2.7,0.8c-2.7,0-4.9-2.2-4.9-4.9s2.2-4.8,4.9-4.8s4.8,2.2,4.8,4.8c0,0.3,0,0.7-0.1,1  C349.7,158.3,349,159.4,347.9,160.1z"/>
<path fill="#1266f1" d="M200,375.8C103,375.8,24.2,297,24.2,200S103,24.2,200,24.2S375.8,103.1,375.8,200S297,375.8,200,375.8z   M200,29.1c-94.2,0-170.9,76.7-170.9,170.9S105.8,370.9,200,370.9S370.9,294.3,370.9,200S294.2,29.1,200,29.1z"/>
</svg>
  <svg xmlns="http://www.w3.org/2000/svg" xmlns:xlink="http://www.w3.org/1999/xlink" version="1.1" id="&#x421;&#x43B;&#x43E;&#x439;_1" viewBox="0 0 80 80" width="175" height="175" x="112" y="112">
<path fill="#1266f1" d="M38.25,58.09c0.5,0.13,1.01,0.05,1.43-0.19l39.03-13.86c1.01-0.36,1.53-1.46,1.18-2.47  c-0.36-1.01-1.46-1.53-2.47-1.18L38.6,54.18L5.1,45.52c-1.92-2.51-1.15-4.55-0.42-5.62l33.57,8.68c0.5,0.13,1.01,0.05,1.43-0.19  l39.03-13.86c1.01-0.36,1.53-1.46,1.18-2.47c-0.36-1.01-1.46-1.53-2.47-1.18L38.59,44.67L5.13,36.02c-1.96-2.65-1.2-4.62-0.48-5.64  l33.6,8.68c0.16,0.04,0.32,0.06,0.48,0.06c0.22,0,0.44-0.04,0.65-0.11l39.33-13.96c0.8-0.28,1.32-1.06,1.28-1.91  c-0.04-0.85-0.63-1.57-1.45-1.79L43.8,12.41c-0.37-0.1-0.77-0.08-1.13,0.05L3.36,26.4c-0.02,0.01-0.03,0.02-0.05,0.02  c-0.15,0.06-0.3,0.14-0.44,0.24c-0.03,0.02-0.06,0.04-0.08,0.06c-0.01,0.01-0.03,0.02-0.04,0.03c-1.94,1.66-4.41,5.91-1.2,10.89  c-1.49,2.15-2.52,5.69-0.02,9.52c-1.66,2.4-2.77,6.52,1.01,10.86c0.26,0.29,0.6,0.5,0.97,0.6l34.73,8.98  c0.16,0.04,0.32,0.06,0.48,0.06c0.29,0,0.56-0.08,0.81-0.2l39.17-13.9c1.01-0.36,1.53-1.46,1.18-2.47  c-0.36-1.01-1.46-1.53-2.47-1.18L38.59,63.69L5.1,55.03c-1.93-2.53-1.15-4.56-0.42-5.62L38.25,58.09z M40.81,20.79l15.33,3.95  l-5.16,1.84l-15.32-3.96L40.81,20.79z"/>
</svg>
</svg>
