<svg width="1089" height="714" viewBox="0 0 1089 714" fill="none" xmlns="http://www.w3.org/2000/svg">
<g filter="url(#filter0_d_303_3)">
<path d="M354 2H1059V259C1059 451.195 903.195 607 711 607H6V350C6 157.805 161.805 2 354 2Z" stroke="#1976D2" stroke-width="4" shape-rendering="crispEdges"/>
</g>
<g clip-path="url(#clip0_303_3)">
<path d="M882.481 548.17H97.0292V550.955H882.481V548.17Z" fill="#3F3D56"/>
<path d="M951.868 54H52V491.904H951.868V54Z" fill="#3F3D56"/>
<path opacity="0.1" d="M951.868 87.6849V75.6546H924.198V54H912.168V75.6546H91.7001V54H79.6697V75.6546H52V87.6849H79.6697V458.219H52V470.249H79.6697V491.904H91.7001V470.249H912.168V491.904H924.198V470.249H951.868V458.219H924.198V87.6849H951.868ZM912.168 458.219H91.7001V87.6849H912.168L912.168 458.219Z" fill="black"/>
<path d="M520.682 125.87C524.149 125.87 526.96 123.059 526.96 119.592C526.96 116.125 524.149 113.315 520.682 113.315C517.215 113.315 514.405 116.125 514.405 119.592C514.405 123.059 517.215 125.87 520.682 125.87Z" fill="#3F3D56"/>
<path d="M574.195 320.533C577.662 320.533 580.473 317.723 580.473 314.256C580.473 310.789 577.662 307.978 574.195 307.978C570.728 307.978 567.917 310.789 567.917 314.256C567.917 317.723 570.728 320.533 574.195 320.533Z" fill="#3F3D56"/>
<path d="M357.045 278.363C360.512 278.363 363.323 275.552 363.323 272.085C363.323 268.618 360.512 265.808 357.045 265.808C353.578 265.808 350.768 268.618 350.768 272.085C350.768 275.552 353.578 278.363 357.045 278.363Z" fill="#3F3D56"/>
<path d="M212.89 191.099H189.303V198.089H212.89V191.099Z" fill="#3F3D56"/>
<path d="M241.405 136.679H160.788V139.675H241.405V136.679Z" fill="#3F3D56"/>
<path d="M241.405 146.166H160.788V149.161H241.405V146.166Z" fill="#3F3D56"/>
<path d="M241.405 155.651H160.788V158.647H241.405V155.651Z" fill="#3F3D56"/>
<path d="M241.405 165.137H160.788V168.133H241.405V165.137Z" fill="#3F3D56"/>
<path d="M241.405 174.624H160.788V177.619H241.405V174.624Z" fill="#3F3D56"/>
<path d="M201.097 123.464C204.564 123.464 207.374 120.653 207.374 117.186C207.374 113.719 204.564 110.909 201.097 110.909C197.63 110.909 194.819 113.719 194.819 117.186C194.819 120.653 197.63 123.464 201.097 123.464Z" fill="#3F3D56"/>
<path d="M848 154C849.187 154 850.347 153.648 851.333 152.989C852.32 152.33 853.089 151.392 853.543 150.296C853.997 149.2 854.116 147.993 853.885 146.829C853.653 145.666 853.082 144.596 852.243 143.757C851.403 142.918 850.334 142.347 849.171 142.115C848.007 141.884 846.8 142.003 845.704 142.457C844.608 142.911 843.67 143.68 843.011 144.667C842.352 145.653 842 146.813 842 148C842.018 149.586 842.655 151.102 843.777 152.223C844.898 153.345 846.414 153.982 848 154V154Z" fill="#D0CDE1"/>
<path d="M125.474 535.99H91.7896V569.675H125.474V535.99Z" fill="#1976D2"/>
<path d="M145.926 550.426H105.023V509.523H145.926V550.426ZM106.801 548.648H144.148V511.301H106.801V548.648Z" fill="#3F3D56"/>
<path d="M875.475 354.156L870.663 368.593C870.663 368.593 840.587 403.481 862.242 408.293C883.896 413.105 886.302 370.999 886.302 370.999L892.318 358.969L875.475 354.156Z" fill="#FFB8B8"/>
<path d="M909.16 179.717C909.16 179.717 901.942 178.514 899.536 207.387C897.13 236.259 895.927 286.787 895.927 286.787L868.257 357.766L903.145 368.593L919.987 287.99L909.16 179.717Z" fill="#1976D2"/>
<path d="M893.521 609.199L889.912 632.057H922.394L921.191 609.199H893.521Z" fill="#FFB8B8"/>
<path d="M998.185 634.463L995.778 665.742L1017.43 668.148V632.057L998.185 634.463Z" fill="#FFB8B8"/>
<path d="M906.754 310.847L879.084 469.647L886.303 614.011H923.597V482.881L959.688 415.511L988.56 499.723L995.779 640.478L1036.68 633.26L1027.06 496.114C1027.06 496.114 1019.84 313.253 1012.62 310.847C1005.4 308.441 906.754 310.847 906.754 310.847Z" fill="#2F2E41"/>
<path d="M897.13 624.839C897.13 624.839 897.13 612.808 887.506 620.027C877.881 627.245 865.851 640.478 865.851 640.478C865.851 640.478 820.136 665.742 852.618 669.351C885.1 672.96 905.551 652.508 905.551 652.508L909.16 656.118C909.16 656.118 928.409 652.508 928.409 647.696C928.269 643.664 927.868 639.646 927.206 635.666C927.206 635.666 924.675 615.26 921.73 619.448C918.784 623.636 901.942 632.057 897.13 624.839Z" fill="#2F2E41"/>
<path d="M1018.64 658.523C1018.64 658.523 996.982 647.696 992.169 657.32C987.357 666.945 983.748 686.193 983.748 686.193C983.748 686.193 968.109 716.269 995.779 713.863C1023.45 711.457 1022.25 695.817 1022.25 692.208C1022.25 688.599 1021.04 680.178 1022.25 676.569C1023.45 672.96 1018.64 658.523 1018.64 658.523Z" fill="#2F2E41"/>
<path d="M971.116 132.197C989.72 132.197 1004.8 117.116 1004.8 98.5123C1004.8 79.9086 989.72 64.8274 971.116 64.8274C952.513 64.8274 937.431 79.9086 937.431 98.5123C937.431 117.116 952.513 132.197 971.116 132.197Z" fill="#FFB8B8"/>
<path d="M948.86 114.753L947.657 158.062L990.966 154.453V114.753H948.86Z" fill="#FFB8B8"/>
<path d="M993.372 132.799C993.372 132.799 972.921 146.032 966.906 148.438C960.891 150.844 947.657 138.814 947.657 138.814C947.657 138.814 944.048 141.22 944.048 143.626C944.048 146.032 941.642 155.656 941.642 155.656L912.769 250.696L915.175 318.065C915.175 318.065 1003 326.487 1012.62 315.659C1022.25 304.832 1007.81 149.641 1007.81 149.641L993.372 132.799Z" fill="#D0CDE1"/>
<path opacity="0.1" d="M987.357 158.062C987.357 158.062 954.875 170.093 944.048 159.265C944.048 159.265 959.687 162.874 987.357 158.062Z" fill="black"/>
<path d="M1072.77 419.12C1059.54 427.541 1016.23 438.369 1016.23 438.369C1016.23 438.369 1011.5 336.532 994.575 320.472C977.745 304.483 950.268 189.221 974.978 169.178C975.088 169.075 975.205 168.979 975.327 168.89L990.966 132.799C990.966 132.799 993.372 129.189 998.184 134.002C1002.08 138.173 1005.69 142.593 1009.01 147.235L1009.7 147.512L1042.7 160.468L1029.46 219.417C1029.46 219.417 1086.01 410.699 1072.77 419.12Z" fill="#1976D2"/>
<path opacity="0.1" d="M1009.7 147.512L1000.59 180.92L974.978 169.178C975.088 169.075 975.205 168.979 975.327 168.89L990.966 132.799C990.966 132.799 993.372 129.189 998.185 134.002C1002.08 138.173 1005.69 142.593 1009.01 147.235L1009.7 147.512Z" fill="black"/>
<path d="M947.056 138.212L943.447 179.115L943.254 180.98L915.777 442.579C915.777 442.579 891.716 434.158 883.295 424.534C874.874 414.91 902.544 307.84 902.544 307.84L904.95 173.1C904.95 173.1 926.291 158.074 935.013 149.821C937.059 147.897 938.406 146.345 938.635 145.43C939.838 140.618 947.056 138.212 947.056 138.212Z" fill="#1976D2"/>
<path opacity="0.1" d="M947.056 138.212L943.447 179.115L943.254 180.98L926.003 178.514L935.013 149.821C937.058 147.897 938.406 146.345 938.635 145.43C939.838 140.618 947.056 138.212 947.056 138.212Z" fill="black"/>
<path d="M1011.42 340.923L998.185 352.953C998.185 352.953 1004.2 378.217 1011.42 379.42C1011.42 379.42 1016.23 372.202 1017.43 366.187C1018.64 360.172 1029.46 354.156 1029.46 354.156L1011.42 340.923Z" fill="#FFB8B8"/>
<path d="M1027.06 158.062L1042.7 160.468C1042.7 160.468 1094.43 248.29 1088.41 279.568C1082.4 310.847 1034.28 364.984 1034.28 364.984L1004.2 340.923L1048.71 280.772L1025.85 208.59L1027.06 158.062Z" fill="#1976D2"/>
<path d="M937.355 102.296C937.355 102.296 937.355 72.5892 944.574 65.8377H953.237C953.237 65.8377 963.344 50.9844 976.338 56.3856C989.332 61.7868 1010.99 71.2389 1009.54 86.0922C1008.1 100.945 1003.6 110.543 1003.6 110.543C1003.6 110.543 1001.19 110.543 995.829 102.468C988.663 91.678 1005.21 95.0413 983.557 90.9904C961.9 86.9395 948.906 81.5383 946.019 86.9395C943.131 92.3407 937.355 102.296 937.355 102.296Z" fill="#2F2E41"/>
<path d="M953.094 67.8535C953.094 67.8535 954.248 59.1716 958.997 57.3022L953.094 67.8535Z" fill="#2F2E41"/>
<path d="M953.073 69.6395C953.073 69.6395 950.664 61.2194 954.271 57.6086L953.073 69.6395Z" fill="#2F2E41"/>
<path d="M278.244 260.766C274.029 260.766 270.975 261.945 269.08 264.304C267.224 266.624 266.296 269.814 266.296 273.874C266.296 275.846 266.528 277.644 266.992 279.268C267.456 280.853 268.152 282.226 269.08 283.386C270.008 284.546 271.168 285.455 272.56 286.112C273.952 286.731 275.576 287.04 277.432 287.04C278.437 287.04 279.288 287.021 279.984 286.982C280.719 286.943 281.357 286.866 281.898 286.75V272.772H290.946V292.666C289.863 293.091 288.123 293.536 285.726 294C283.329 294.503 280.371 294.754 276.852 294.754C273.836 294.754 271.091 294.29 268.616 293.362C266.18 292.434 264.092 291.081 262.352 289.302C260.612 287.523 259.259 285.339 258.292 282.748C257.364 280.157 256.9 277.199 256.9 273.874C256.9 270.51 257.422 267.533 258.466 264.942C259.51 262.351 260.941 260.167 262.758 258.388C264.575 256.571 266.702 255.198 269.138 254.27C271.613 253.342 274.242 252.878 277.026 252.878C278.921 252.878 280.622 253.013 282.13 253.284C283.677 253.516 284.991 253.806 286.074 254.154C287.195 254.463 288.104 254.792 288.8 255.14C289.535 255.488 290.057 255.759 290.366 255.952L287.756 263.202C286.519 262.545 285.088 261.984 283.464 261.52C281.879 261.017 280.139 260.766 278.244 260.766ZM327.321 278.688C327.321 281.085 326.973 283.289 326.277 285.3C325.581 287.272 324.575 288.973 323.261 290.404C321.946 291.796 320.361 292.879 318.505 293.652C316.687 294.425 314.638 294.812 312.357 294.812C310.114 294.812 308.065 294.425 306.209 293.652C304.391 292.879 302.825 291.796 301.511 290.404C300.196 288.973 299.171 287.272 298.437 285.3C297.702 283.289 297.335 281.085 297.335 278.688C297.335 276.291 297.702 274.106 298.437 272.134C299.21 270.162 300.254 268.48 301.569 267.088C302.922 265.696 304.507 264.613 306.325 263.84C308.181 263.067 310.191 262.68 312.357 262.68C314.561 262.68 316.571 263.067 318.389 263.84C320.245 264.613 321.83 265.696 323.145 267.088C324.459 268.48 325.484 270.162 326.219 272.134C326.953 274.106 327.321 276.291 327.321 278.688ZM318.505 278.688C318.505 276.02 317.963 273.932 316.881 272.424C315.837 270.877 314.329 270.104 312.357 270.104C310.385 270.104 308.857 270.877 307.775 272.424C306.692 273.932 306.151 276.02 306.151 278.688C306.151 281.356 306.692 283.483 307.775 285.068C308.857 286.615 310.385 287.388 312.357 287.388C314.329 287.388 315.837 286.615 316.881 285.068C317.963 283.483 318.505 281.356 318.505 278.688ZM362.551 278.688C362.551 281.085 362.203 283.289 361.507 285.3C360.811 287.272 359.806 288.973 358.491 290.404C357.176 291.796 355.591 292.879 353.735 293.652C351.918 294.425 349.868 294.812 347.587 294.812C345.344 294.812 343.295 294.425 341.439 293.652C339.622 292.879 338.056 291.796 336.741 290.404C335.426 288.973 334.402 287.272 333.667 285.3C332.932 283.289 332.565 281.085 332.565 278.688C332.565 276.291 332.932 274.106 333.667 272.134C334.44 270.162 335.484 268.48 336.799 267.088C338.152 265.696 339.738 264.613 341.555 263.84C343.411 263.067 345.422 262.68 347.587 262.68C349.791 262.68 351.802 263.067 353.619 263.84C355.475 264.613 357.06 265.696 358.375 267.088C359.69 268.48 360.714 270.162 361.449 272.134C362.184 274.106 362.551 276.291 362.551 278.688ZM353.735 278.688C353.735 276.02 353.194 273.932 352.111 272.424C351.067 270.877 349.559 270.104 347.587 270.104C345.615 270.104 344.088 270.877 343.005 272.424C341.922 273.932 341.381 276.02 341.381 278.688C341.381 281.356 341.922 283.483 343.005 285.068C344.088 286.615 345.615 287.388 347.587 287.388C349.559 287.388 351.067 286.615 352.111 285.068C353.194 283.483 353.735 281.356 353.735 278.688ZM376.612 278.514C376.612 281.182 377.211 283.328 378.41 284.952C379.608 286.576 381.387 287.388 383.746 287.388C384.519 287.388 385.234 287.369 385.892 287.33C386.549 287.253 387.09 287.175 387.516 287.098V271.38C386.974 271.032 386.259 270.742 385.37 270.51C384.519 270.278 383.649 270.162 382.76 270.162C378.661 270.162 376.612 272.946 376.612 278.514ZM396.158 293.014C395.384 293.246 394.495 293.478 393.49 293.71C392.484 293.903 391.421 294.077 390.3 294.232C389.217 294.387 388.096 294.503 386.936 294.58C385.814 294.696 384.732 294.754 383.688 294.754C381.174 294.754 378.932 294.387 376.96 293.652C374.988 292.917 373.325 291.873 371.972 290.52C370.618 289.128 369.574 287.465 368.84 285.532C368.144 283.56 367.796 281.356 367.796 278.92C367.796 276.445 368.105 274.222 368.724 272.25C369.342 270.239 370.232 268.538 371.392 267.146C372.552 265.754 373.963 264.691 375.626 263.956C377.327 263.221 379.26 262.854 381.426 262.854C382.624 262.854 383.688 262.97 384.616 263.202C385.582 263.434 386.549 263.763 387.516 264.188V250.384L396.158 248.992V293.014ZM425.549 278.514C425.549 281.182 426.148 283.328 427.347 284.952C428.546 286.576 430.324 287.388 432.683 287.388C433.456 287.388 434.172 287.369 434.829 287.33C435.486 287.253 436.028 287.175 436.453 287.098V271.38C435.912 271.032 435.196 270.742 434.307 270.51C433.456 270.278 432.586 270.162 431.697 270.162C427.598 270.162 425.549 272.946 425.549 278.514ZM445.095 293.014C444.322 293.246 443.432 293.478 442.427 293.71C441.422 293.903 440.358 294.077 439.237 294.232C438.154 294.387 437.033 294.503 435.873 294.58C434.752 294.696 433.669 294.754 432.625 294.754C430.112 294.754 427.869 294.387 425.897 293.652C423.925 292.917 422.262 291.873 420.909 290.52C419.556 289.128 418.512 287.465 417.777 285.532C417.081 283.56 416.733 281.356 416.733 278.92C416.733 276.445 417.042 274.222 417.661 272.25C418.28 270.239 419.169 268.538 420.329 267.146C421.489 265.754 422.9 264.691 424.563 263.956C426.264 263.221 428.198 262.854 430.363 262.854C431.562 262.854 432.625 262.97 433.553 263.202C434.52 263.434 435.486 263.763 436.453 264.188V250.384L445.095 248.992V293.014ZM464.845 287.968C465.696 287.968 466.508 287.949 467.281 287.91C468.054 287.871 468.673 287.813 469.137 287.736V281.182C468.789 281.105 468.267 281.027 467.571 280.95C466.875 280.873 466.237 280.834 465.657 280.834C464.845 280.834 464.072 280.892 463.337 281.008C462.641 281.085 462.022 281.259 461.481 281.53C460.94 281.801 460.514 282.168 460.205 282.632C459.896 283.096 459.741 283.676 459.741 284.372C459.741 285.725 460.186 286.673 461.075 287.214C462.003 287.717 463.26 287.968 464.845 287.968ZM464.149 262.68C466.701 262.68 468.828 262.97 470.529 263.55C472.23 264.13 473.584 264.961 474.589 266.044C475.633 267.127 476.368 268.441 476.793 269.988C477.218 271.535 477.431 273.255 477.431 275.15V293.13C476.194 293.401 474.473 293.71 472.269 294.058C470.065 294.445 467.397 294.638 464.265 294.638C462.293 294.638 460.495 294.464 458.871 294.116C457.286 293.768 455.913 293.207 454.753 292.434C453.593 291.622 452.704 290.578 452.085 289.302C451.466 288.026 451.157 286.46 451.157 284.604C451.157 282.825 451.505 281.317 452.201 280.08C452.936 278.843 453.902 277.857 455.101 277.122C456.3 276.387 457.672 275.865 459.219 275.556C460.766 275.208 462.37 275.034 464.033 275.034C465.154 275.034 466.14 275.092 466.991 275.208C467.88 275.285 468.596 275.401 469.137 275.556V274.744C469.137 273.275 468.692 272.095 467.803 271.206C466.914 270.317 465.367 269.872 463.163 269.872C461.694 269.872 460.244 269.988 458.813 270.22C457.382 270.413 456.145 270.703 455.101 271.09L453.999 264.13C454.502 263.975 455.12 263.821 455.855 263.666C456.628 263.473 457.46 263.318 458.349 263.202C459.238 263.047 460.166 262.931 461.133 262.854C462.138 262.738 463.144 262.68 464.149 262.68ZM511.595 263.492C509.855 269.369 508.038 274.879 506.143 280.022C504.249 285.165 502.18 290.153 499.937 294.986C499.125 296.726 498.313 298.195 497.501 299.394C496.689 300.631 495.8 301.637 494.833 302.41C493.867 303.222 492.765 303.802 491.527 304.15C490.329 304.537 488.917 304.73 487.293 304.73C485.94 304.73 484.683 304.595 483.523 304.324C482.402 304.092 481.474 303.821 480.739 303.512L482.247 296.61C483.137 296.919 483.929 297.132 484.625 297.248C485.321 297.364 486.056 297.422 486.829 297.422C488.376 297.422 489.555 296.997 490.367 296.146C491.218 295.334 491.933 294.193 492.513 292.724C490.541 288.857 488.569 284.527 486.597 279.732C484.625 274.899 482.769 269.485 481.029 263.492H490.193C490.58 265 491.025 266.643 491.527 268.422C492.069 270.162 492.629 271.941 493.209 273.758C493.789 275.537 494.369 277.277 494.949 278.978C495.568 280.679 496.148 282.226 496.689 283.618C497.192 282.226 497.714 280.679 498.255 278.978C498.797 277.277 499.319 275.537 499.821 273.758C500.363 271.941 500.865 270.162 501.329 268.422C501.832 266.643 502.277 265 502.663 263.492H511.595ZM521.177 285.184C521.255 286.112 521.293 286.769 521.293 287.156C521.332 287.543 521.351 287.871 521.351 288.142C521.351 289.302 521.235 290.539 521.003 291.854C520.81 293.13 520.52 294.425 520.133 295.74C519.747 297.055 519.263 298.369 518.683 299.684C518.103 300.999 517.446 302.255 516.711 303.454L509.925 301.772C510.815 299.22 511.433 296.823 511.781 294.58C512.129 292.337 512.303 290.481 512.303 289.012C512.303 288.78 512.284 288.49 512.245 288.142C512.245 287.755 512.226 287.369 512.187 286.982C512.187 286.595 512.168 286.228 512.129 285.88C512.129 285.532 512.129 285.3 512.129 285.184H521.177ZM571.598 253.806V261.52H559.476V294H550.428V261.52H538.306V253.806H571.598ZM571.022 278.978C571.022 276.271 571.428 273.913 572.24 271.902C573.091 269.853 574.193 268.151 575.546 266.798C576.899 265.445 578.446 264.42 580.186 263.724C581.965 263.028 583.782 262.68 585.638 262.68C589.969 262.68 593.391 264.014 595.904 266.682C598.417 269.311 599.674 273.197 599.674 278.34C599.674 278.843 599.655 279.403 599.616 280.022C599.577 280.602 599.539 281.124 599.5 281.588H579.896C580.089 283.367 580.921 284.778 582.39 285.822C583.859 286.866 585.831 287.388 588.306 287.388C589.891 287.388 591.438 287.253 592.946 286.982C594.493 286.673 595.749 286.305 596.716 285.88L597.876 292.898C597.412 293.13 596.793 293.362 596.02 293.594C595.247 293.826 594.377 294.019 593.41 294.174C592.482 294.367 591.477 294.522 590.394 294.638C589.311 294.754 588.229 294.812 587.146 294.812C584.401 294.812 582.003 294.406 579.954 293.594C577.943 292.782 576.261 291.68 574.908 290.288C573.593 288.857 572.607 287.175 571.95 285.242C571.331 283.309 571.022 281.221 571.022 278.978ZM591.322 275.672C591.283 274.937 591.148 274.222 590.916 273.526C590.723 272.83 590.394 272.211 589.93 271.67C589.505 271.129 588.944 270.684 588.248 270.336C587.591 269.988 586.759 269.814 585.754 269.814C584.787 269.814 583.956 269.988 583.26 270.336C582.564 270.645 581.984 271.071 581.52 271.612C581.056 272.153 580.689 272.791 580.418 273.526C580.186 274.222 580.012 274.937 579.896 275.672H591.322ZM618.001 287.968C618.852 287.968 619.664 287.949 620.437 287.91C621.211 287.871 621.829 287.813 622.293 287.736V281.182C621.945 281.105 621.423 281.027 620.727 280.95C620.031 280.873 619.393 280.834 618.813 280.834C618.001 280.834 617.228 280.892 616.493 281.008C615.797 281.085 615.179 281.259 614.637 281.53C614.096 281.801 613.671 282.168 613.361 282.632C613.052 283.096 612.897 283.676 612.897 284.372C612.897 285.725 613.342 286.673 614.231 287.214C615.159 287.717 616.416 287.968 618.001 287.968ZM617.305 262.68C619.857 262.68 621.984 262.97 623.685 263.55C625.387 264.13 626.74 264.961 627.745 266.044C628.789 267.127 629.524 268.441 629.949 269.988C630.375 271.535 630.587 273.255 630.587 275.15V293.13C629.35 293.401 627.629 293.71 625.425 294.058C623.221 294.445 620.553 294.638 617.421 294.638C615.449 294.638 613.651 294.464 612.027 294.116C610.442 293.768 609.069 293.207 607.909 292.434C606.749 291.622 605.86 290.578 605.241 289.302C604.623 288.026 604.313 286.46 604.313 284.604C604.313 282.825 604.661 281.317 605.357 280.08C606.092 278.843 607.059 277.857 608.257 277.122C609.456 276.387 610.829 275.865 612.375 275.556C613.922 275.208 615.527 275.034 617.189 275.034C618.311 275.034 619.297 275.092 620.147 275.208C621.037 275.285 621.752 275.401 622.293 275.556V274.744C622.293 273.275 621.849 272.095 620.959 271.206C620.07 270.317 618.523 269.872 616.319 269.872C614.85 269.872 613.4 269.988 611.969 270.22C610.539 270.413 609.301 270.703 608.257 271.09L607.155 264.13C607.658 263.975 608.277 263.821 609.011 263.666C609.785 263.473 610.616 263.318 611.505 263.202C612.395 263.047 613.323 262.931 614.289 262.854C615.295 262.738 616.3 262.68 617.305 262.68ZM636.952 278.746C636.952 276.542 637.3 274.473 637.996 272.54C638.73 270.568 639.774 268.867 641.128 267.436C642.481 265.967 644.124 264.807 646.058 263.956C647.991 263.105 650.195 262.68 652.67 262.68C654.294 262.68 655.782 262.835 657.136 263.144C658.489 263.415 659.804 263.821 661.08 264.362L659.282 271.264C658.47 270.955 657.58 270.684 656.614 270.452C655.647 270.22 654.564 270.104 653.366 270.104C650.814 270.104 648.9 270.897 647.624 272.482C646.386 274.067 645.768 276.155 645.768 278.746C645.768 281.491 646.348 283.618 647.508 285.126C648.706 286.634 650.775 287.388 653.714 287.388C654.758 287.388 655.879 287.291 657.078 287.098C658.276 286.905 659.378 286.595 660.384 286.17L661.602 293.246C660.596 293.671 659.34 294.039 657.832 294.348C656.324 294.657 654.661 294.812 652.844 294.812C650.06 294.812 647.662 294.406 645.652 293.594C643.641 292.743 641.978 291.603 640.664 290.172C639.388 288.741 638.44 287.059 637.822 285.126C637.242 283.154 636.952 281.027 636.952 278.746ZM667.402 294V250.384L676.044 248.992V263.608C676.624 263.415 677.358 263.241 678.248 263.086C679.176 262.893 680.065 262.796 680.916 262.796C683.39 262.796 685.44 263.144 687.064 263.84C688.726 264.497 690.041 265.445 691.008 266.682C692.013 267.919 692.709 269.389 693.096 271.09C693.521 272.791 693.734 274.686 693.734 276.774V294H685.092V277.818C685.092 275.034 684.724 273.062 683.99 271.902C683.294 270.742 681.979 270.162 680.046 270.162C679.272 270.162 678.538 270.239 677.842 270.394C677.184 270.51 676.585 270.645 676.044 270.8V294H667.402ZM700.106 278.978C700.106 276.271 700.512 273.913 701.324 271.902C702.175 269.853 703.277 268.151 704.63 266.798C705.983 265.445 707.53 264.42 709.27 263.724C711.049 263.028 712.866 262.68 714.722 262.68C719.053 262.68 722.475 264.014 724.988 266.682C727.501 269.311 728.758 273.197 728.758 278.34C728.758 278.843 728.739 279.403 728.7 280.022C728.661 280.602 728.623 281.124 728.584 281.588H708.98C709.173 283.367 710.005 284.778 711.474 285.822C712.943 286.866 714.915 287.388 717.39 287.388C718.975 287.388 720.522 287.253 722.03 286.982C723.577 286.673 724.833 286.305 725.8 285.88L726.96 292.898C726.496 293.13 725.877 293.362 725.104 293.594C724.331 293.826 723.461 294.019 722.494 294.174C721.566 294.367 720.561 294.522 719.478 294.638C718.395 294.754 717.313 294.812 716.23 294.812C713.485 294.812 711.087 294.406 709.038 293.594C707.027 292.782 705.345 291.68 703.992 290.288C702.677 288.857 701.691 287.175 701.034 285.242C700.415 283.309 700.106 281.221 700.106 278.978ZM720.406 275.672C720.367 274.937 720.232 274.222 720 273.526C719.807 272.83 719.478 272.211 719.014 271.67C718.589 271.129 718.028 270.684 717.332 270.336C716.675 269.988 715.843 269.814 714.838 269.814C713.871 269.814 713.04 269.988 712.344 270.336C711.648 270.645 711.068 271.071 710.604 271.612C710.14 272.153 709.773 272.791 709.502 273.526C709.27 274.222 709.096 274.937 708.98 275.672H720.406ZM753.813 271.148C753.04 270.955 752.131 270.761 751.087 270.568C750.043 270.336 748.922 270.22 747.723 270.22C747.182 270.22 746.525 270.278 745.751 270.394C745.017 270.471 744.456 270.568 744.069 270.684V294H735.427V265.116C736.974 264.575 738.791 264.072 740.879 263.608C743.006 263.105 745.365 262.854 747.955 262.854C748.419 262.854 748.98 262.893 749.637 262.97C750.295 263.009 750.952 263.086 751.609 263.202C752.267 263.279 752.924 263.395 753.581 263.55C754.239 263.666 754.799 263.821 755.263 264.014L753.813 271.148ZM768.77 264.188C768.77 267.32 768.654 270.239 768.422 272.946C768.19 275.653 767.881 278.398 767.494 281.182H760.882C760.495 278.398 760.167 275.653 759.896 272.946C759.664 270.239 759.548 267.32 759.548 264.188V253.806H768.77V264.188ZM769.524 289.418C769.524 291.119 768.963 292.434 767.842 293.362C766.759 294.29 765.522 294.754 764.13 294.754C762.738 294.754 761.481 294.29 760.36 293.362C759.277 292.434 758.736 291.119 758.736 289.418C758.736 287.717 759.277 286.402 760.36 285.474C761.481 284.546 762.738 284.082 764.13 284.082C765.522 284.082 766.759 284.546 767.842 285.474C768.963 286.402 769.524 287.717 769.524 289.418Z" fill="#1976D2"/>
</g>
<defs>
<filter id="filter0_d_303_3" x="0" y="0" width="1065" height="617" filterUnits="userSpaceOnUse" color-interpolation-filters="sRGB">
<feFlood flood-opacity="0" result="BackgroundImageFix"/>
<feColorMatrix in="SourceAlpha" type="matrix" values="0 0 0 0 0 0 0 0 0 0 0 0 0 0 0 0 0 0 127 0" result="hardAlpha"/>
<feOffset dy="4"/>
<feGaussianBlur stdDeviation="2"/>
<feComposite in2="hardAlpha" operator="out"/>
<feColorMatrix type="matrix" values="0 0 0 0 0 0 0 0 0 0 0 0 0 0 0 0 0 0 0.25 0"/>
<feBlend mode="normal" in2="BackgroundImageFix" result="effect1_dropShadow_303_3"/>
<feBlend mode="normal" in="SourceGraphic" in2="effect1_dropShadow_303_3" result="shape"/>
</filter>
<clipPath id="clip0_303_3">
<rect width="1036.9" height="660" fill="white" transform="translate(52 54)"/>
</clipPath>
</defs>
</svg>
