<?xml version="1.0" encoding="utf-8"?>
<!-- Generator: Adobe Illustrator 23.0.1, SVG Export Plug-In . SVG Version: 6.00 Build 0)  -->
<svg version="1.1" id="Layer_1" xmlns="http://www.w3.org/2000/svg" xmlns:xlink="http://www.w3.org/1999/xlink" x="0px" y="0px"
	 viewBox="0 0 1920 1080" style="enable-background:new 0 0 1920 1080;" xml:space="preserve">
<style type="text/css">
	.st0{fill:#0B5ED7;stroke:#FFFFFF;stroke-miterlimit:10;}
	.st1{fill:#FFFFFF;}
</style>
<circle class="st0" cx="620.5" cy="491.5" r="334"/>
<g>
	<g transform="translate(0.000000,512.000000) scale(0.100000,-0.100000)">
		<g>
			<path class="st1" d="M5641.7-1907.11c-258.02,0-491.01,133.26-623.25,356.48l-44.23,75.7l-78.48,16.2
				c-285.55,57.28-510.23,281.02-572.46,570.01c-6.78,32.22-13.19,103.94-13.98,156.58l-0.84,101.17l-35.03,45.28
				c-107.5,140.57-162.1,356.34-135.84,536.9c24.84,166.43,89.38,294.46,209.23,415.14l82.79,85.35l-29.49,69.39
				c-48.23,114.76-58.47,168.3-57.65,301.52c0.83,106.54,3.41,128.14,23,192.62c24.04,78.77,64.8,166.45,103.82,223.36
				c89.22,129.24,232.38,233.92,382.95,280l61.36,19.28l6.02,97.97c2.43,50.96,10.69,115.36,18.05,140.71
				c74.64,272.29,287.99,477.15,556.83,534.7c47.56,10.06,96.44,15.17,145.27,15.17c152.3,0,304.56-50.43,428.71-142.01l57.7-42.8
				l6.56,31.71c3.19,12.76,12.06,32.6,21.29,43.37c33.49,43.05,39.54,43.86,323.76,43.86c247.87,0,264.05-0.89,288.46-15.85
				c47.06-28.72,54.32-61.39,70.6-317.81l15.97-237.8l69.22-28.55c35.15-14.38,87.82-38.12,117.42-52.92l54.4-28.08l166.76,148.23
				c158.37,141.23,195.53,167.9,233.85,167.9c40.74,0,92.53-44.05,291.64-248.1c221.79-227.52,227.64-235.94,208.58-300.25
				c-3.69-11.07-28.69-51.53-154.06-196.34c-146.34-170.73-146.34-172.73-146.34-175.76c0-5.07,26.44-60.62,37.81-84.27
				c19.09-41.37,50.15-115.76,66.96-163.68l30.88-90.08l53.78-5.29c29.7-2.62,126.76-8.79,200.87-13.28
				c188.16-11.56,218.37-18,248.61-53.01c13.22-14.01,26.3-37.88,28.71-52.29c2.44-14.63,4.06-163.62,2.42-326.68
				c-2.44-284.45-3.32-299.42-18.92-320.48c-36.16-48.22-51.9-52.01-280.76-67.65c-43.41-3.08-84.42-5.93-119.08-8.34
				c-67.16-4.67-99.59-6.94-102.81-7.48c-0.01,0-0.02,0-0.04,0c-2.33,0-14.62-6.93-43.67-91.2
				c-16.58-48.09-47.08-121.44-66.99-164.56c-11.33-23.57-37.77-79.11-37.77-84.19c0-3.03,0-5.02,146.32-175.74
				C7966-877.81,7991-918.27,7994.74-929.49c19-64.15,13.15-72.58-208.64-300.1c-199.11-204.04-250.89-248.1-291.64-248.1
				c-37.82,0-72.78,25.11-233.85,167.91l-166.75,148.22l-54.46-28.11c-29.47-14.74-82.14-38.48-117.35-52.89l-69.23-28.55
				l-15.97-237.78c-16.28-256.44-23.54-289.11-70.59-317.82c-24.42-14.96-40.6-15.85-288.47-15.85
				c-284.22,0-290.27,0.82-323.61,43.67c-9.38,10.96-18.24,30.8-21.48,43.76l-6.52,31.51l-57.71-42.81
				C5943.27-1858.46,5795.69-1907.11,5641.7-1907.11z M4553.86-827.35c-1.6-1.6-4.58-4.57,20.4-73.24
				c28.37-81.77,71.67-148.62,132.34-204.32c91.08-83.55,182.77-121.42,316.49-130.67c98.86-7.41,119.31-18.84,145.83-81.53
				c43.13-98.72,52.31-115.62,89.35-164.43c89.06-118.4,227.08-186.32,378.69-186.31c88.09,0,175.32,23.83,252.26,68.91
				c54.2,31.21,136.11,114.74,168.5,171.85l2.53,4.52c21.83,39,31.79,56.81,27,71.73c-4.52,14.07-21.06,21.85-54,37.31l-2.62,1.23
				c-88.76,43.14-174.1,130.11-217.36,221.52c-18.85,40.26-37.99,93.67-43.57,121.56c-8.85,46.65-8.32,51.49,9.5,86.31
				c21.8,42.66,59.46,67.13,103.32,67.13c50.08,0,109.87-35.34,122.8-112.94c6.85-41.92,51.74-114.75,87.33-141.65l31.89-27.71
				v844.48l-50.29,19.48c-142.82,53.35-260.41,187.08-299.64,340.72c-16.95,66.2-9.92,102.71,26.88,139.52
				c25.59,25.59,50.91,37.5,79.69,37.5c10.53,0,21.4-1.57,33.22-4.79c46.52-12.84,72.52-44.9,92.71-114.33
				c14.87-51.23,26.24-71.75,60.81-109.77c3.93-4.22,38.33-40.85,48.61-40.84h2.07l2.16,1.7c2.61,2.61,2.77,2.77,5.6,216.77
				c1.46,110.43,3.47,261.68,6.48,423.54v639.44l-61.46-25.22c-89.39-44.26-171.07-151.7-194.54-255.62
				c-19.38-84.81-56.39-121.35-123.72-122.15l-3.14-0.04c-31.04,0-59.4,11.4-79.86,32.08c-21.68,21.92-33.41,52.92-33.02,87.29
				c0,20.91,8.25,64.65,18.01,95.58c61.96,199.93,207.98,350.46,400.63,413.03l68.8,23.57v50.01
				c1.84,125.39-50.41,254.15-139.77,344.35c-62.22,62.22-110.6,93.27-191.73,123.07c-42.49,15.5-104.17,24.75-165.03,24.75
				c-38.01,0-72.3-3.63-99.15-10.5c-91.41-23.27-155.3-60.6-227.85-133.16c-103.53-104.38-145.76-206.06-145.76-351
				c0-146.12,46.58-254.33,155.74-361.81c75.24-74.42,84.75-88.9,84.75-129.12c0-33.44-12.45-64.38-35.04-87.1
				c-22.11-22.24-51.53-34.49-82.84-34.49l0,0c-12.74,0-25.56,2.06-38.12,6.11c-60.27,20.36-192.67,166.45-244.18,269.48
				c-16.22,31.82-22.29,43.71-38.73,43.71c-4.17,0-8.89-0.76-15.63-2.06c-111.2-21.9-253.71-138.96-311.19-255.62
				c-52.87-110-66.82-217.66-42.69-329.17c10.71-51.57,46.07-150.72,66.25-150.72c5.5,0,45.23,5.96,86.3,13.35
				c36.76,6.33,78,9.67,119.23,9.67c66.41,0,123.67-8.9,149.45-23.22c35.14-19.97,63.77-66.38,63.77-103.44
				c0-36.93-29.79-85.65-63.75-104.25c-15.43-8.23-27.14-11.91-55.59-11.91c-13.19,0-30.47,0.77-57.78,2.57
				c-11.97,0.65-23.83,0.98-35.31,0.98c-137.56,0-247.46-45.83-345.86-144.23C4412,98.05,4360.83-37.32,4369.97-181.07
				c14.36-213.68,156.07-389.58,361.03-448.14c32.99-9.46,76.45-11.45,107.09-11.45c85.24,0,187.54,15.53,204.18,40.61
				c2.99,4.51,3.52,9.38,1.53,14.08c-1.96,5.94-6.12,39.67-8.74,78.01c-7.33,104.23,27.54,210.12,93.27,283.24
				c36.46,40.5,64.66,55.56,104.08,55.56c41.77,0,80.38-25.04,100.76-65.36c20.12-39.79,17.46-85.1-6.93-118.23
				c-54.28-74.64-66.86-132.38-42.06-193.1c26.5-61.56,87.64-103.43,152.17-104.28c62.64,0,111.65-37.02,122.03-92.12
				c12.05-65.08-21.53-121.1-83.57-139.39c-13.84-4.07-30.02-6.14-48.08-6.14c-52.56,0-117.42,17.53-177.96,48.1
				c-41.72,20.87-58.98,29.5-73.23,29.5c-8.44,0-15.26-3.08-23.31-7.1c-48.15-24.49-164.01-56.04-229.62-62.53
				c-22.02-2.29-45.06-3.46-68.49-3.46c-76.85,0-155.15,12.33-220.47,34.73c-7.18,2.34-69.72,22.71-76.01,22.71h-2.07
				L4553.86-827.35z M6363.33,1232.15l31.62-4.79c6.36-0.75,18.34-2.45,33.14-4.54c18.83-2.66,42.19-5.96,63.99-8.75
				c146.46-19.86,311.12-89.87,440.45-187.28c200.97-150.31,335.66-362.92,389.53-614.85c18.96-86.55,21.27-305.34,4.13-390.21
				c-72.97-368.13-332.57-668.24-677.5-783.22c-49.45-16.19-119.72-33.21-156.61-37.92c-21.86-2.79-45.27-6.1-64.13-8.77
				c-14.73-2.08-26.67-3.77-32.84-4.5l-31.78-4.8v-787.97h112.8c98.63,0,112.8,1.23,112.8,19.92c0,7.22,5.91,107.01,12.18,212.67
				l0.25,4.31c17.34,270.06,17.34,270.06,145.89,314c88.55,31.5,177.45,72.64,257.14,118.98c44.89,26.32,77.08,38.06,104.37,38.06
				c16.68,0,32.3-4.22,49.14-13.26c12.64-6.69,85.47-68.13,173.19-146.11l151.94-135.8l113.63,112.78
				c111.77,111.75,111.77,118.31,111.77,120.47c0,6.94-84.41,105.82-134.73,164.13c-78.36,90.7-139.38,169.13-145.12,182.78
				c-16.77,39.13-9.15,70.44,37.06,152.33c55.1,99.01,96.26,197.6,122.37,293.04c11.56,40.05,29.34,94.1,39.49,115.25
				c28.74,59.07,39.13,61.98,277.77,77.61l217.79,14.41v334.42l-212.81,14.41c-238.1,15.65-253.96,20.05-282.78,78.49
				c-10.04,20.08-27.46,72.76-39.48,114.44c-26.08,95.37-67.25,193.96-122.33,292.94c-46.23,81.91-53.85,113.23-37.09,152.32
				c5.76,13.69,66.77,92.11,145.14,182.8c50.32,58.33,134.73,157.2,134.73,164.15c0,2.38,0,8.71-111.76,120.46l-113.64,112.79
				l-151.95-135.83c-87.71-77.96-160.54-139.4-173.15-146.08c-16.87-9.06-32.48-13.27-49.16-13.27l0,0
				c-27.29,0-59.48,11.73-104.36,38.04c-79.69,46.35-168.58,87.49-257.09,118.98c-128.61,43.96-128.61,43.96-145.95,314.05
				l-0.22,3.69c-6.55,110.55-12.21,206.03-12.21,214.09c0,17.92-14.17,19.1-112.8,19.1h-112.8V1232.15z M6363.33-576.45l24.93,4.34
				c10.05,2.5,38.96,6.62,63.49,9.07c61.86,6.68,184.8,48.48,248.25,84.38c291.4,162.44,448.36,492.8,390.56,822.04
				c-54.65,314.64-303.52,574.45-605.21,631.8c-24.63,4.93-61.1,10.75-80.72,13.31l-41.31,5.77V-576.45z"/>
			<path class="st1" d="M5639.78,2321.43c151.25,0,302.45-50.09,425.72-141.02l51.41-38.15l12.58-9.33l3.17,15.34l4.88,23.65
				c3.03,12.13,11.65,31.46,20.58,41.9c31.25,40.18,32.47,41.75,319.66,41.75c246.54,0,262.57-0.85,285.86-15.12
				c43.28-26.41,51.44-49.87,68.21-313.89l15.76-234.68l0.42-6.2l5.75-2.37l66.37-27.38c35.02-14.33,87.54-38,116.96-52.7
				l51.42-26.54l6.1-3.15l5.13,4.56l164.2,145.96c155.43,138.6,194.2,166.63,230.51,166.63c39.01,0,90.16-43.79,288.06-246.59
				c226.15-231.99,225.44-234.37,207.48-295.02c-2.92-8.75-23.68-45.26-153.18-194.85c-147.53-172.12-147.53-173.57-147.53-178.99
				c0-2.02,0-6.76,38.24-86.29c19.07-41.33,50.04-115.52,66.79-163.25l29.85-87.07l2.08-6.08l6.4-0.63l50.69-4.98
				c29.6-2.61,123.22-8.58,200.95-13.29c186.33-11.44,216.11-17.67,245.44-51.62c13.6-14.4,25.28-37.65,27.26-49.51
				c2.11-12.68,4.13-149.09,2.35-325.83c-2.42-282.9-3.26-297.73-17.9-317.5c-33.82-45.09-43.63-49.72-277.14-65.68
				c-43.15-3.06-83.93-5.89-118.46-8.29c-71.06-4.94-97.27-6.78-103.01-7.45c-6.8-0.33-11.9-5.38-23.89-31.76
				c-7.82-17.21-16.56-39.54-24.61-62.86c-16.53-47.95-46.95-121.08-66.73-163.95c-38.3-79.67-38.3-84.41-38.3-86.43
				c0-5.42,0-6.88,147.56-179.03c129.46-149.55,150.23-186.06,153.04-194.49c18.07-60.98,18.77-63.36-207.37-295.34
				c-197.9-202.8-249.05-246.59-288.06-246.59c-35.8,0-72.43,26.48-230.52,166.64l-164.19,145.95l-5.13,4.56l-6.1-3.15l-51.3-26.48
				c-29.53-14.77-82.05-38.44-117.1-52.77l-66.34-27.37l-5.75-2.37l-0.42-6.2l-15.76-234.72
				c-16.76-263.98-24.93-287.45-68.22-313.86c-23.27-14.26-39.3-15.11-285.84-15.11c-287.19,0-288.41,1.57-319.96,42.12
				c-8.63,10.07-17.25,29.4-20.19,41.13l-4.98,24.05l-3.17,15.34l-12.58-9.33l-51.38-38.12
				c-124.36-91.41-270.92-139.73-423.83-139.73c-122.23,0-243.26,31.47-349.99,91.02c-110.55,61.67-203.55,152.62-268.92,262.96
				l-43.12,73.8l-2.25,3.85l-4.36,0.9l-76.35,15.77c-140.05,28.09-267.29,95.93-367.97,196.2
				c-100.68,100.27-170.03,228.19-200.54,369.9c-6.73,31.98-13.09,103.26-13.88,155.58l-0.83,99.51l-0.03,3.37l-2.06,2.67
				l-33.97,43.91c-106.75,139.6-160.96,353.86-134.88,533.13c24.68,165.32,88.77,292.5,207.92,412.46l80.44,82.93l4.62,4.77
				l-2.6,6.11l-28.18,66.3c-47.91,113.99-58.08,167.19-57.27,299.56c0.83,105.9,3.38,127.34,22.78,191.21
				c23.91,78.33,64.41,165.46,103.15,221.97c88.61,128.36,230.78,232.31,380.37,278.09l58.05,18.24l6.56,2.06l0.42,6.87l5.81,94.67
				c2.41,50.56,10.59,114.44,17.9,139.64c74.12,270.41,286.03,473.9,553,531.05C5542.76,2316.36,5591.29,2321.43,5639.78,2321.43
				 M5277.87,983.86c-12.21,0-24.52,1.98-36.45,5.83c-59.44,20.08-190.28,164.81-241.41,267.06c-16.73,32.82-23.66,46.4-43.16,46.4
				c-5.05,0-10.72-1.02-16.61-2.16c-112.5-22.16-256.62-140.45-314.73-258.4c-53.35-111-67.43-219.71-43.07-332.26
				c6.34-30.5,18.02-67.57,31.25-99.16c23.28-55.58,34.51-55.58,39.91-55.58c6.47,0,48.84,6.52,87.11,13.41
				c36.52,6.29,77.47,9.61,118.42,9.61c65.61,0,121.95-8.66,146.95-22.54c33.79-19.2,61.28-63.66,61.28-99.11
				c0-34.74-29.14-82.34-61.05-99.81c-15.01-8.01-25.73-11.35-53.28-11.35c-13.07,0-30.25,0.77-57.57,2.57
				c-12,0.65-23.95,0.98-35.52,0.98c-138.98,0-250-46.3-349.41-145.7c-103.09-103.09-154.77-239.82-145.54-385.05
				c14.5-215.8,157.63-393.45,364.63-452.6c33.55-9.63,77.51-11.65,108.48-11.65c74.71,0,188.74,13.29,208.35,42.85
				c3.8,5.73,4.57,12.21,2.17,18.31c-1.81,5.98-5.87,37.55-8.56,76.9c-7.24,102.9,27.16,207.4,91.99,279.53
				c35.37,39.3,62.57,53.91,100.37,53.91c39.87,0,76.77-23.99,96.29-62.62c19.26-38.1,16.77-81.41-6.53-113.06
				c-55.42-76.2-68.17-135.39-42.56-198.08c27.23-63.25,90.19-106.34,156.79-107.22c60.09,0,107.13-35.38,117.04-88.02
				c11.56-62.44-20.61-116.18-80.06-133.71c-13.39-3.94-29.09-5.94-46.66-5.94c-51.81,0-115.85,17.34-175.75,47.58
				c-42.46,21.23-60.03,30.01-75.45,30.01c-9.52,0-17.2-3.45-25.61-7.66c-46.8-23.81-163.9-55.67-227.87-61.99
				c-21.83-2.28-44.69-3.43-67.95-3.43c-76.31,0-154.03,12.24-218.98,34.5c-26.23,8.56-71.17,22.93-77.49,22.93l-4.39-0.05
				l-2.93-2.93c-4.26-4.26-6.83-6.82,19.18-78.35c28.67-82.64,72.41-150.17,133.71-206.43c92-84.4,184.57-122.63,319.47-131.97
				c96.27-7.22,116.13-18.23,141.68-78.62c43.33-99.17,52.58-116.17,89.9-165.37c90.02-119.68,229.5-188.32,382.69-188.32
				c88.97,0,177.08,24.07,254.73,69.56c54.85,31.58,137.65,116.01,170.42,173.78l2.51,4.49c22.56,40.31,32.86,58.71,27.4,75.7
				c-5.19,16.15-22.38,24.22-56.64,40.31l-2.5,1.17c-87.86,42.7-172.28,128.73-215.07,219.14c-18.4,39.31-37.78,93.35-43.18,120.36
				c-8.85,46.67-7.79,50.27,9.03,83.15c20.91,40.93,56.95,64.41,98.87,64.4c48.04-0.01,105.42-34.04,117.87-108.73
				c6.99-42.79,52.65-116.97,88.97-144.64l23.63-20.52l16.56-14.37v21.92v414.63v415.46v6.85l-6.39,2.47l-47.21,18.29
				c-141.28,52.78-257.66,185.15-296.49,337.26c-16.64,64.97-10.19,98.97,25.58,134.74c24.59,24.59,48.78,36.04,76.15,36.04
				c10.08,0,20.52-1.51,31.88-4.61c44.6-12.3,69.63-43.4,89.25-110.9c14.96-51.53,27.11-73.46,61.99-111.83
				c18.01-19.34,41.69-42.4,52.23-42.4c2.97,0,5.72,1.12,7.77,3.17c4.2,4.2,4.2,4.2,7.07,220.34c1.46,110.41,3.46,261.61,6.48,423.6
				v631.9v14.91l-13.8-5.66l-54.56-22.39l-0.33-0.13l-0.32-0.16c-91.76-45.45-172.72-151.9-196.87-258.83
				c-18.77-82.14-54.33-117.51-119.02-118.28c-1-0.02-1.98-0.04-2.97-0.04c-29.69,0-56.79,10.87-76.3,30.6
				c-20.73,20.97-31.95,50.7-31.57,83.83c0,20.44,8.14,63.49,17.8,94.06c61.47,198.33,206.31,347.68,397.54,409.79l65.34,22.39
				l6.76,2.32v7.14l0,46.29c1.86,126.78-50.93,256.87-141.25,348.04c-62.78,62.78-111.62,94.13-193.54,124.23
				c-43,15.68-105.33,25.04-166.74,25.04c-38.43,0-73.14-3.68-100.37-10.65c-92.37-23.51-156.91-61.22-230.19-134.5
				c-104.55-105.4-147.19-208.1-147.19-354.5c0-147.59,47.02-256.86,157.21-365.35c77.62-76.78,83.28-88.35,83.28-125.57
				C5390.75,1035.07,5341.17,983.86,5277.87,983.86 M6358.33-1610.44h10h107.8c97.51,0,117.8,0,117.8,24.93
				c0,7.09,5.93,107.11,12.2,213.02l0.21,3.61c17.13,266.76,17.13,266.76,142.64,309.66c88.78,31.59,177.97,72.86,257.95,119.38
				c44.07,25.84,75.48,37.36,101.83,37.36c15.83,0,30.69-4.02,46.82-12.69c12.11-6.41,86.13-68.92,172.16-145.4l148.44-132.68
				l7.02-6.28l6.69,6.64l110.32,109.49c113.22,113.22,113.22,119.2,113.22,124c0,4.44,0,6.1-41.69,56.35
				c-25.52,30.75-58.99,70.19-94.25,111.07c-78.05,90.33-138.69,168.12-144.32,181.5c-14.85,34.65-11.52,62.2,36.86,147.93
				c55.28,99.33,96.6,198.28,122.77,293.99c13.54,46.93,30.4,96.17,39.19,114.49c26.44,54.34,28.6,58.78,273.62,74.83l213.12,14.1
				l9.34,0.62v9.36v162.54v162.53v9.35l-9.32,0.63l-208.16,14.1c-242.42,15.94-251.84,21.42-278.64,75.76
				c-9.8,19.59-27.48,73.14-39.1,113.43c-26.21,95.84-67.53,194.8-122.84,294.18c-48.35,85.68-51.68,113.23-36.81,147.93
				c5.61,13.32,66.25,91.11,144.3,181.44c35.26,40.87,68.73,80.31,94.25,111.06c41.69,50.25,41.69,51.91,41.69,56.35
				c0,4.8,0,10.78-113.25,124.02l-110.29,109.46l-6.69,6.64l-7.02-6.28l-148.42-132.66c-86.05-76.49-160.07-139.01-172.23-145.44
				c-16.08-8.64-30.95-12.66-46.77-12.66c-26.35,0-57.76,11.52-101.86,37.37c-79.95,46.5-169.14,87.78-258.04,119.4
				c-125.39,42.85-125.39,42.85-142.52,309.56l-0.2,3.32c-6.29,106.08-12.23,206.27-12.23,214.19c0,24.1-20.29,24.1-117.8,24.1
				h-107.8h-10v-10v-389.75v-388.92v-8.6l8.5-1.29l27.69-4.19c6.11-0.72,17.95-2.39,32.94-4.51c18.79-2.65,42.17-5.96,63.91-8.73
				c145.68-19.75,309.48-89.41,438.18-186.34c199.97-149.57,334.01-361.15,387.63-611.93c18.85-86.06,21.16-303.7,4.11-388.15
				c-35.86-180.91-117.2-348.61-235.23-484.97c-117.9-136.21-269.68-238.03-438.89-294.43c-49.24-16.13-119.09-33.05-155.71-37.73
				c-21.83-2.79-45.21-6.09-64-8.75c-14.98-2.12-26.81-3.79-33.25-4.55l-27.36-4.15l-8.5-1.29v-8.6v-388.92v-389.75V-1610.44
				 M6358.33-582.39l11.71,2.04l19.07,3.32l0.36,0.06l0.35,0.09c9.51,2.38,38.1,6.44,62.5,8.88
				c62.34,6.74,186.24,48.84,250.09,84.96c293.28,163.5,451.24,495.96,393.07,827.27c-55,316.66-305.51,578.14-609.1,635.84
				c-24.86,4.97-61.45,10.82-81.02,13.37l-35.66,4.98l-11.38,1.59v-11.49V209v-779.5V-582.39 M5639.78,2331.43
				c-48.9,0-97.91-5.04-146.32-15.28c-271.17-58.05-485.12-262.88-560.58-538.19c-7.46-25.71-15.76-89.56-18.24-141.8l-5.8-94.54
				l-58.05-18.24c-151.75-46.44-296.88-153.41-385.61-281.95c-39.8-58.05-80.44-145.95-104.49-224.73
				c-19.9-65.51-22.39-87.9-23.22-194.05c-0.83-135.17,9.95-189.07,58.05-303.51l28.19-66.34l-80.44-82.93
				c-121.9-122.73-185.75-251.27-210.63-417.95c-26.54-182.44,29.02-399.7,136.83-540.68l34-43.95l0.83-99.51
				c0.83-54.73,7.46-126.05,14.1-157.56c63.02-292.73,286.92-515.8,576.34-573.85l76.29-15.76l43.12-73.8
				c137.73-232.48,380.24-358.94,627.55-358.94c148.77,0,299.25,45.74,429.76,141.67l51.41,38.15l4.98-24.05
				c3.32-13.27,12.44-34,22.39-45.61c34.83-44.78,42.29-45.61,327.56-45.61c250.44,0,265.36,0.83,291.07,16.59
				c48.93,29.85,56.39,60.54,72.97,321.75l15.76,234.68l66.34,27.37c36.49,14.93,89.56,38.98,117.76,53.07l51.41,26.54
				l164.19-145.95c160.88-142.63,197.36-169.17,237.17-169.17c43.12,0,94.54,43.95,295.22,249.61
				c224.73,230.53,229.71,238,209.8,305.17c-6.63,19.9-58.88,87.07-155.07,198.19c-79.61,92.88-145.12,170-145.12,172.49
				s16.58,38.98,37.32,82.1c19.9,43.12,50.58,116.93,67.17,165.02c16.59,48.1,34.83,87.9,39.8,87.9
				c4.98,0.83,104.49,7.46,221.41,15.76c230.53,15.76,247.12,19.9,284.44,69.66c16.59,22.39,17.42,33.17,19.9,323.41
				c1.66,165.02,0,312.63-2.49,327.56c-2.49,14.93-15.76,39.8-29.85,54.73c-31.51,36.49-63.02,43.12-252.09,54.73
				c-82.1,4.98-172.49,10.78-200.68,13.27l-50.58,4.98l-29.85,87.07c-16.59,47.27-47.27,121.07-67.17,164.19
				c-20.73,43.12-37.32,79.61-37.32,82.1s65.51,79.61,145.12,172.49c96.19,111.12,148.44,178.29,155.07,198.19
				c19.9,67.17,14.93,74.63-209.8,305.17c-200.68,205.66-252.09,249.61-295.22,249.61c-39.8,0-76.29-25.71-237.17-169.17
				l-164.19-145.95l-51.41,26.54c-28.19,14.1-81.27,38.15-117.76,53.07l-66.34,27.37l-15.76,234.68
				c-16.58,261.22-24.05,291.9-72.97,321.75c-25.71,15.76-40.63,16.59-291.07,16.59c-285.27,0-292.73-0.83-327.56-45.61
				c-9.95-11.61-19.07-32.34-22.39-45.61l-4.98-24.05l-51.41,38.15C5944.51,2282.08,5792.79,2331.43,5639.78,2331.43
				L5639.78,2331.43z M5277.87,973.86c66.52,0,122.89,53.71,122.89,126.6c0,42.29-9.95,57.22-86.24,132.68
				c-107.8,106.15-154.24,213.12-154.24,358.24c0,143.46,42.29,244.63,144.29,347.46c72.15,72.15,134.34,108.63,225.56,131.85
				c27.37,7,61.84,10.34,97.9,10.34c57.88,0,119.89-8.6,163.32-24.44c81.27-29.85,129.36-61.37,189.9-121.9
				c87.9-88.73,140.15-216.44,138.32-340.83v-46.44l-65.34-22.39c-194.05-63.02-341.65-215.61-403.85-416.29
				c-9.95-31.51-18.24-75.46-18.24-97.02c-0.82-71.86,49.04-124.43,117.87-124.43c1.07,0,2.13,0.01,3.21,0.04
				c69.66,0.83,108.63,38.98,128.54,126.05c23.22,102.83,102.83,208.14,191.56,252.1l54.56,22.39v-631.9
				c-6.47-347.46-8.13-634.38-10.61-636.87c-0.16-0.16-0.39-0.24-0.69-0.24c-4.45,0-23.95,16.7-44.91,39.21
				c-33.17,36.49-44.78,56.39-59.71,107.8c-20.73,71.32-48.1,104.49-96.19,117.76c-12.1,3.3-23.56,4.97-34.53,4.97
				c-30.38,0-57.02-12.77-83.22-38.97c-38.15-38.15-45.61-76.29-28.19-144.29c39.8-155.9,158.39-290.24,302.68-344.14l47.1-18.24
				V-672.5v-414.63l-23.88,20.73c-34,25.71-78.78,97.85-85.41,138.49c-12.5,75-70.17,117.11-127.73,117.12
				c-41.72,0-83.38-22.11-107.78-69.85c-18.24-35.66-19.07-41.46-9.95-89.56c5.8-29.02,25.71-83.76,43.95-122.73
				c43.95-92.88,131.02-180.78,219.75-223.9c68.83-32.34,68-30.68,24.88-107.8c-31.51-55.56-111.95-138.49-166.68-170
				c-78.59-46.05-164.91-68.23-249.74-68.23c-144.33,0-284.34,64.2-374.7,184.33c-36.49,48.1-45.61,64.68-88.73,163.36
				c-27.37,64.68-50.58,77.12-150.1,84.58c-131.85,9.12-223.07,46.44-313.46,129.36c-60.54,55.56-102.83,121.07-131.02,202.34
				c-13.27,36.49-22.39,67.17-21.56,68c0.03,0.03,0.11,0.05,0.24,0.05c3.18,0,35.34-9.69,74.39-22.44
				c66.61-22.84,145.84-35,222.09-35c23.43,0,46.57,1.15,68.98,3.49c67.17,6.63,184.1,38.98,231.36,63.02
				c8.24,4.12,14.08,6.57,21.07,6.57c12.71,0,29.25-8.09,70.98-28.96c62.19-31.4,127.59-48.63,180.22-48.63
				c18.25,0,34.96,2.07,49.48,6.34c64.68,19.07,99.51,77.95,87.07,145.12c-10.78,57.22-62.19,96.19-126.88,96.19
				c-63.02,0.83-121.9,41.46-147.61,101.17c-24.05,58.88-11.61,115.27,41.46,188.24c55.56,75.46-4.15,191.56-97.85,191.56
				c-40.63,0-70.49-15.76-107.8-57.22c-66.34-73.8-102-180.78-94.54-286.92c2.49-36.49,6.63-72.15,9.12-79.61
				c11.24-26.62-101.14-47.75-201.11-47.75c-40.19,0-78.37,3.41-105.72,11.26c-203.17,58.05-343.31,233.85-357.41,443.65
				c-9.12,143.46,41.46,276.14,142.63,377.31c97.13,97.13,206.27,142.77,342.34,142.77c11.47,0,23.11-0.32,34.98-0.97
				c25.15-1.66,43.67-2.58,58.11-2.58c28.87,0,41.4,3.69,57.99,12.53c34.83,19.07,66.34,69.66,66.34,108.63
				s-29.85,87.07-66.34,107.8c-27.79,15.44-86.87,23.85-151.89,23.85c-39.75,0-81.72-3.15-120.11-9.75
				c-41.46-7.46-80.44-13.27-85.41-13.27c-13.27,0-48.1,82.93-61.36,146.78c-24.05,111.12-9.12,218.92,42.29,325.9
				c56.39,114.44,198.19,231.36,307.66,252.92c6.02,1.17,10.73,1.97,14.67,1.97c12.9,0,17.74-8.56,34.25-40.94
				c53.07-106.14,185.75-251.26,247.12-272C5251.59,975.89,5264.92,973.86,5277.87,973.86L5277.87,973.86z M6368.33-1600.44v389.75
				v388.92l27.37,4.15c14.1,1.66,58.05,8.29,97.02,13.27c38.98,4.98,109.46,22.39,157.56,38.15
				c348.29,116.1,607.02,414.63,680.82,786.97c17.41,86.24,14.93,305.17-4.15,392.24c-53.9,252.09-190.73,467.7-391.41,617.8
				c-131.02,98.68-296.05,168.34-442.82,188.24c-38.98,4.98-82.93,11.61-97.02,13.27l-27.37,4.15v388.92v389.75h107.8
				c97.02,0,107.8-1.66,107.8-14.1c0-8.29,5.8-106.15,12.44-218.09c17.41-271.17,18.24-273.66,149.27-318.44
				c86.24-30.68,174.97-71.32,256.24-118.58c44.72-26.21,77.65-38.73,106.89-38.73c17.93,0,34.48,4.71,51.5,13.85
				c14.1,7.46,92.05,73.8,174.14,146.78l148.44,132.68l110.29-109.46c60.54-60.54,110.29-112.78,110.29-116.93
				c0-3.32-60.54-76.29-133.51-160.88c-73.8-85.41-139.32-168.34-145.95-184.1c-17.41-40.63-9.95-72.98,37.32-156.73
				c53.07-95.36,95.36-194.88,121.9-291.9c12.44-43.12,29.85-95.36,39.8-115.27c29.85-60.54,47.27-65.51,286.92-81.27l208.14-14.1
				V207.34V44.81l-213.12-14.1C7664.46,14.95,7652.85,11.64,7623-49.73c-9.95-20.73-27.37-72.97-39.8-116.1
				c-26.54-97.02-68.83-196.53-121.9-291.9c-47.27-83.76-54.73-116.1-37.32-156.73c6.63-15.76,72.15-98.68,145.95-184.1
				c72.97-84.58,133.51-157.56,133.51-160.88c0-4.15-49.76-56.39-110.29-116.93l-110.29-109.46l-148.44,132.68
				c-82.1,72.97-160.05,139.32-174.14,146.78c-17.02,9.14-33.57,13.85-51.5,13.85c-29.24,0-62.17-12.51-106.89-38.73
				c-81.27-47.27-170-87.9-256.24-118.58c-131.02-44.78-131.85-47.27-149.27-318.44c-6.63-111.95-12.44-209.8-12.44-217.27
				c0-13.27-10.78-14.93-107.8-14.93H6368.33L6368.33-1600.44z M6368.33-570.5V209v779.5l35.66-4.98
				c19.07-2.49,55.56-8.29,80.44-13.27c301.02-57.22,546.48-312.63,601.21-627.75c57.22-325.9-99.51-655.94-388.09-816.82
				c-63.02-35.66-184.92-77.12-246.29-83.76c-24.88-2.49-53.9-6.63-63.85-9.12L6368.33-570.5L6368.33-570.5z"/>
		</g>
	</g>
</g>
</svg>
