<svg width="962" height="990" viewBox="0 0 962 990" fill="none" xmlns="http://www.w3.org/2000/svg">
<path d="M379 37H505C711.555 37 879 204.446 879 411V698C879 834.967 767.967 946 631 946H505C298.446 946 131 778.555 131 572V285C131 148.033 242.033 37 379 37Z" stroke="#1976D2" stroke-width="4"/>
<path d="M719 2H960V212C960 404.195 804.195 560 612 560H371V350C371 157.805 526.805 2 719 2Z" stroke="#1976D2" stroke-width="4"/>
<path d="M464.286 341.312C536.814 341.312 595.609 278.975 595.609 202.079C595.609 125.183 536.814 62.8465 464.286 62.8465C391.758 62.8465 332.963 125.183 332.963 202.079C332.963 278.975 391.758 341.312 464.286 341.312Z" fill="#F2F2F2"/>
<path d="M962 395.611C961.999 396.105 961.962 396.598 961.888 397.087C957.2 427.551 807.938 452 624.5 452C441.062 452 291.8 427.551 287.112 397.087C287.038 396.599 287.001 396.105 287 395.611C287 395.472 287 395.325 287.013 395.186C287.013 395.109 287.02 395.04 287.02 394.963C287.025 394.936 287.027 394.908 287.026 394.88C287.053 394.567 287.092 394.267 287.144 393.961C289.285 381.507 315.609 370.062 358.545 360.893C393.661 353.395 439.893 347.415 493.105 343.656C533.487 340.802 577.887 339.222 624.5 339.222C662.006 339.222 698.08 340.245 731.778 342.125H731.791C738.843 342.521 745.79 342.955 752.632 343.426C799.468 346.643 841.032 351.565 874.519 357.726C895.117 361.52 912.669 365.787 926.517 370.41H926.523C947.837 377.531 960.404 385.516 961.856 393.961C961.908 394.267 961.947 394.567 961.974 394.88C961.973 394.908 961.975 394.936 961.98 394.963C961.98 395.04 961.987 395.11 961.987 395.186C962 395.325 962 395.472 962 395.611Z" fill="#3F3D56"/>
<path opacity="0.1" d="M615.964 449.912C675.799 449.912 724.305 442.431 724.305 433.204C724.305 423.976 675.799 416.496 615.964 416.496C556.129 416.496 507.623 423.976 507.623 433.204C507.623 442.431 556.129 449.912 615.964 449.912Z" fill="black"/>
<path opacity="0.1" d="M449.184 400.486C509.019 400.486 557.525 393.005 557.525 383.778C557.525 374.55 509.019 367.07 449.184 367.07C389.349 367.07 340.842 374.55 340.842 383.778C340.842 393.005 389.349 400.486 449.184 400.486Z" fill="black"/>
<path opacity="0.1" d="M926.517 370.41C922.728 371.558 918.46 372.623 913.778 373.598C894.5 377.622 868.196 380.093 839.233 380.093C806.875 380.093 777.872 377.009 758.22 372.129C741.909 368.078 732.034 362.808 732.034 357.022C732.034 351.94 739.677 347.234 752.632 343.426C799.468 346.643 841.032 351.565 874.519 357.726C895.117 361.52 912.669 365.787 926.517 370.41Z" fill="black"/>
<path opacity="0.1" d="M781.705 390.277C781.705 424.206 737.098 413.711 682.482 413.711C627.865 413.711 583.922 424.206 583.922 390.277C583.922 356.348 628.522 348.968 683.138 348.968C737.755 348.968 781.705 356.348 781.705 390.277Z" fill="black"/>
<path d="M781.705 381.923C781.705 415.852 737.098 405.358 682.482 405.358C627.865 405.358 583.922 415.852 583.922 381.923C583.922 347.994 628.522 340.614 683.138 340.614C737.755 340.614 781.705 347.994 781.705 381.923Z" fill="#3F3D56"/>
<path d="M772.594 321.013L774.848 330.873C774.874 330.983 774.87 331.098 774.837 331.206L764.61 365.091C764.57 365.225 764.487 365.34 764.376 365.418C764.265 365.495 764.132 365.53 764 365.516C763.868 365.502 763.744 365.441 763.649 365.342C763.555 365.243 763.495 365.112 763.48 364.972L762.065 351.772C762.055 351.685 762.064 351.596 762.09 351.512L771.477 320.967C771.516 320.84 771.594 320.729 771.697 320.653C771.801 320.576 771.925 320.538 772.052 320.543C772.178 320.548 772.299 320.597 772.397 320.682C772.495 320.766 772.564 320.883 772.594 321.013V321.013Z" fill="#2F2E41"/>
<path d="M771.764 321.846L773.846 330.305L764.826 361.203L762.744 351.639L771.764 321.846Z" fill="#F2F2F2"/>
<path d="M726.317 367.823C726.664 368.927 762.398 367.456 762.745 367.088C763.047 366.627 763.303 366.134 763.508 365.617C763.834 364.881 764.132 364.145 764.132 364.145L762.745 352.235L727.358 350.904C727.358 350.904 726.473 360.997 726.293 365.617C726.232 366.351 726.24 367.091 726.317 367.823V367.823Z" fill="#2F2E41"/>
<path opacity="0.1" d="M758.235 353.846L758.928 364.145H743.316V353.846H758.235Z" fill="black"/>
<path opacity="0.1" d="M738.113 357.157L738.206 357.137L737.766 361.57H729.093V357.157H738.113Z" fill="black"/>
<path opacity="0.1" d="M726.317 367.823C726.664 368.927 762.398 367.456 762.745 367.088C763.047 366.627 763.303 366.134 763.508 365.617H726.293C726.232 366.351 726.24 367.091 726.317 367.823V367.823Z" fill="black"/>
<path d="M671.156 329.202H680.87L704.808 319.271C704.808 319.271 721.807 311.915 720.419 325.892C719.032 339.869 716.603 358.628 716.603 358.628C716.603 358.628 708.971 354.95 704.808 356.053C700.645 357.157 703.42 333.616 703.42 333.616C703.42 333.616 669.421 350.904 666.299 348.697C663.177 346.49 662.483 331.041 662.483 331.041L671.156 329.202Z" fill="#2F2E41"/>
<path opacity="0.1" d="M671.156 329.202H680.87L704.808 319.271C704.808 319.271 721.807 311.915 720.419 325.892C719.032 339.869 716.603 358.628 716.603 358.628C716.603 358.628 708.971 354.95 704.808 356.053C700.645 357.157 703.42 333.616 703.42 333.616C703.42 333.616 669.421 350.904 666.299 348.697C663.177 346.49 662.483 331.041 662.483 331.041L671.156 329.202Z" fill="black"/>
<path d="M686.46 296.949L698.216 314.857L725.623 339.133C725.623 339.133 750.949 345.386 747.48 349.8C744.01 354.214 722.848 345.386 722.848 345.386C722.848 345.386 691.278 321.11 690.237 319.271C689.196 317.432 677.748 300.144 677.748 300.144L686.46 296.949Z" fill="#A0616A"/>
<path opacity="0.1" d="M686.46 296.949L698.216 314.857L725.623 339.133C725.623 339.133 750.949 345.386 747.48 349.8C744.01 354.214 722.848 345.386 722.848 345.386C722.848 345.386 691.278 321.11 690.237 319.271C689.196 317.432 677.748 300.144 677.748 300.144L686.46 296.949Z" fill="black"/>
<path d="M684.686 277.339C693.308 277.339 700.298 269.929 700.298 260.787C700.298 251.646 693.308 244.235 684.686 244.235C676.064 244.235 669.074 251.646 669.074 260.787C669.074 269.929 676.064 277.339 684.686 277.339Z" fill="#A0616A"/>
<path d="M683.645 275.5C683.645 275.5 678.442 285.064 677.401 290.213C676.36 295.363 661.789 279.914 661.789 279.914L659.881 274.581C659.881 274.581 673.585 267.776 672.544 262.259C671.503 256.741 683.645 275.5 683.645 275.5Z" fill="#A0616A"/>
<path d="M679.482 282.489L687.115 298.305C687.115 298.305 685.38 306.029 682.605 306.765C679.829 307.501 668.034 297.202 668.034 297.202L679.482 282.489Z" fill="#D0CDE1"/>
<path d="M686.421 304.19L700.645 324.053L734.643 350.904C734.643 350.904 759.275 356.421 753.724 360.467C748.174 364.513 732.215 356.789 732.215 356.789C732.215 356.789 697.869 337.294 690.584 329.202C683.298 321.11 669.768 307.501 669.768 307.501L686.421 304.19Z" fill="#A0616A"/>
<path d="M667.34 335.087L671.503 342.076L696.349 333.788C699.04 332.866 701.889 332.574 704.697 332.934C707.505 333.293 710.206 334.294 712.614 335.869C716.95 338.766 719.726 343.363 713.481 350.168C700.992 363.777 692.665 356.421 692.665 356.421C692.665 356.421 650.687 377.387 643.749 367.088C636.81 356.789 636.463 351.639 636.463 351.639C636.463 351.639 663.177 333.984 667.34 335.087Z" fill="#2F2E41"/>
<path d="M719.379 359.364C719.379 359.364 730.48 367.088 717.297 370.766C704.114 374.444 694.4 369.295 694.4 369.295C694.4 369.295 682.952 369.295 682.952 363.042C682.952 356.789 686.768 356.053 686.768 356.053L698.563 357.892C698.563 357.892 712.787 353.846 719.379 359.364Z" fill="#D0CDE1"/>
<path d="M697.493 256.624C698.519 257.209 699.622 257.628 700.765 257.866C701.339 257.975 701.931 257.903 702.467 257.66C703.003 257.416 703.46 257.011 703.782 256.495C704.037 255.884 704.155 255.218 704.125 254.55C704.167 252.53 704.029 250.346 702.822 248.783C702.053 247.788 700.932 247.161 700.136 246.191C699.602 245.463 699.147 244.675 698.779 243.839C697.232 240.759 694.942 237.799 691.76 236.911C690.414 236.605 689.036 236.493 687.662 236.579L679.648 236.699C678.349 236.655 677.052 236.803 675.792 237.139C673.212 237.966 671.334 240.266 669.614 242.466C668.278 244.069 667.092 245.806 666.07 247.651C664.685 250.389 663.985 253.458 664.036 256.565C664.026 257.361 664.123 258.156 664.324 258.923C664.561 259.627 664.853 260.308 665.199 260.959C666.702 264.089 667.594 267.999 665.902 271.018C668.842 269.745 671.751 268.075 673.691 265.408C674.559 264.215 675.239 262.819 676.396 261.943C677.552 261.068 679.436 260.992 680.178 262.277C680.433 262.797 680.565 263.375 680.561 263.961C680.537 264.928 680.686 265.892 680.999 266.802C681.167 267.252 681.475 267.628 681.871 267.868C682.268 268.108 682.73 268.197 683.181 268.121C684.691 267.67 684.546 265.212 685.71 264.096C686.593 263.248 687.956 263.41 689.092 263.025C689.742 262.763 690.334 262.36 690.83 261.842C691.326 261.325 691.715 260.703 691.972 260.017C692.402 258.995 692.395 256.321 693.209 255.767C694.228 255.073 696.548 256.177 697.493 256.624Z" fill="#2F2E41"/>
<path d="M658.642 272.836C659.344 272.637 660.083 272.639 660.785 272.842C663.012 273.476 668.004 275.154 669.074 277.707C670.462 281.018 675.319 286.167 675.319 286.167C675.319 286.167 681.911 293.156 680.523 297.937C679.135 302.719 673.931 308.236 673.931 308.236C673.931 308.236 675.319 331.041 668.381 336.927C661.442 342.812 658.667 338.766 658.667 344.283C658.667 349.8 637.157 367.088 632.994 356.421C632.994 356.421 635.076 336.559 634.382 329.57C633.698 322.682 634.699 279.708 658.642 272.836Z" fill="#D0CDE1"/>
<path d="M669.768 282.121C669.768 282.121 690.931 298.673 687.115 305.662C687.115 305.662 674.278 312.282 671.503 311.914C668.728 311.547 657.973 298.673 655.197 297.569C652.422 296.466 651.034 276.604 669.768 282.121Z" fill="#D0CDE1"/>
<path d="M611.243 296.953C607.952 298.132 604.97 300.888 604.296 304.501C603.984 306.176 604.175 307.918 603.912 309.602C603.303 313.509 600.41 316.492 597.743 319.263C595.075 322.035 592.32 325.255 592.125 329.209C591.912 333.539 594.874 337.596 594.361 341.897C593.766 346.895 588.787 350.134 587.556 354.999C586.734 358.248 587.742 361.748 589.398 364.617C592.556 370.083 597.953 373.794 603.7 375.784C609.447 377.773 615.568 378.192 621.614 378.259C628.975 378.341 636.968 377.671 642.498 372.52C645.658 369.551 647.642 365.426 648.053 360.972C648.578 355.005 646.229 348.84 647.849 343.099C648.869 339.486 651.426 336.186 651.044 332.437C650.671 328.771 647.651 326.172 645.579 323.21C643.645 320.445 642.471 317.179 641.321 313.96L637.384 302.944C636.611 300.778 635.761 298.501 634.036 297.079C630.808 294.418 625.617 294.941 621.842 295.49C618.34 295.999 614.611 295.747 611.243 296.953Z" fill="#2F2E41"/>
<path d="M612.476 329.043C612.476 329.043 614.221 335.055 601.134 341.993C588.047 348.931 602.443 356.331 602.443 356.331L617.711 360.031C617.711 360.031 633.415 357.718 635.16 354.943C636.905 352.168 639.959 342.918 639.086 341.531C638.434 340.543 637.704 339.614 636.905 338.756C636.905 338.756 626.436 336.905 626.872 331.818C627.308 326.73 612.476 329.043 612.476 329.043Z" fill="#FFB9B9"/>
<path opacity="0.1" d="M612.476 329.043C612.476 329.043 614.221 335.055 601.134 341.993C588.047 348.931 602.443 356.331 602.443 356.331L617.711 360.031C617.711 360.031 633.415 357.718 635.16 354.943C636.905 352.168 639.959 342.918 639.086 341.531C638.434 340.543 637.704 339.614 636.905 338.756C636.905 338.756 626.436 336.905 626.872 331.818C627.308 326.73 612.476 329.043 612.476 329.043Z" fill="black"/>
<path d="M620.983 338.524C628.692 338.524 634.942 331.898 634.942 323.724C634.942 315.55 628.692 308.924 620.983 308.924C613.273 308.924 607.023 315.55 607.023 323.724C607.023 331.898 613.273 338.524 620.983 338.524Z" fill="#FFB9B9"/>
<path d="M619.456 354.943C619.456 354.943 602.644 353.64 602.325 341.341C602.325 341.341 596.335 340.605 594.59 342.456C592.846 344.306 587.174 345.693 587.174 350.318C587.174 354.943 596.772 368.819 596.772 368.819C596.772 368.819 602.006 387.319 599.825 390.557C597.644 393.794 597.208 402.119 597.208 402.119C597.208 402.119 619.02 400.269 622.509 402.119C625.999 403.969 639.959 403.969 640.831 402.119C641.704 400.269 639.959 377.144 639.959 377.144C639.959 377.144 643.885 371.594 643.013 365.119L653.482 352.168C653.482 352.168 649.556 339.68 643.449 339.68C643.449 339.68 635.16 337.368 634.942 338.524C634.724 339.68 639.086 352.631 619.456 354.943Z" fill="#FF6584"/>
<path d="M580.195 395.644C580.195 395.644 584.121 402.119 594.154 403.507C604.188 404.894 605.933 401.194 605.06 400.269C604.188 399.344 593.718 395.182 593.718 395.182L587.611 390.094L580.195 395.644Z" fill="#FFB9B9"/>
<path d="M651.737 390.094L640.395 397.032C640.395 397.032 625.563 396.107 631.234 400.732C636.905 405.357 647.375 403.507 647.375 403.507L657.408 398.419L651.737 390.094Z" fill="#FFB9B9"/>
<path d="M595.027 402.119C595.027 402.119 584.557 429.407 597.208 433.57C609.859 437.733 644.758 436.808 652.61 431.258C660.462 425.707 662.643 418.307 661.334 415.995C660.026 413.682 651.301 407.207 645.194 406.744C639.086 406.282 595.027 402.119 595.027 402.119Z" fill="#2F2E41"/>
<path opacity="0.05" d="M595.027 402.119C595.027 402.119 584.557 429.407 597.208 433.57C609.859 437.733 644.758 436.808 652.61 431.258C660.462 425.707 662.643 418.307 661.334 415.995C660.026 413.682 651.301 407.207 645.194 406.744C639.086 406.282 595.027 402.119 595.027 402.119Z" fill="black"/>
<path d="M644.446 403.815C644.446 403.815 681.401 389.632 680.965 406.744C680.529 423.857 657.408 428.482 657.408 428.482L650.429 429.408L612.04 430.795C612.04 430.795 613.349 423.395 610.295 422.47C610.295 422.47 620.328 419.695 620.765 419.232C621.201 418.77 646.066 409.52 647.811 409.057C649.556 408.595 654.791 404.894 658.717 405.357C658.717 405.357 663.079 401.657 667.878 402.582L654.355 403.507L644.446 403.815Z" fill="#2F2E41"/>
<path opacity="0.1" d="M644.446 403.815C644.446 403.815 681.401 389.632 680.965 406.744C680.529 423.857 657.408 428.482 657.408 428.482L650.429 429.408L612.04 430.795C612.04 430.795 613.349 423.395 610.295 422.47C610.295 422.47 620.328 419.695 620.765 419.232C621.201 418.77 646.066 409.52 647.811 409.057C649.556 408.595 654.791 404.894 658.717 405.357C658.717 405.357 663.079 401.657 667.878 402.582L654.355 403.507L644.446 403.815Z" fill="black"/>
<path d="M637.917 406.111L642.577 417.382L670.932 406.744L673.113 400.732L665.697 399.344L650.788 402.12L644.321 403.969L637.917 406.111Z" fill="#2F2E41"/>
<path opacity="0.1" d="M637.917 406.111L642.577 417.382L670.932 406.744L673.113 400.732L665.697 399.344L650.788 402.12L644.321 403.969L637.917 406.111Z" fill="black"/>
<path d="M577.577 419.695C577.577 419.695 585.866 430.795 595.463 433.57C605.06 436.345 610.295 432.645 610.295 432.645L607.241 419.695L605.933 411.37L600.262 407.207L588.919 401.657L575.396 397.032C575.396 397.032 569.725 396.107 569.725 397.032C569.725 397.957 574.96 411.832 574.96 411.832L577.577 419.695Z" fill="#2F2E41"/>
<path d="M587.611 425.707C587.611 425.707 589.356 439.12 591.537 440.045C593.718 440.97 600.262 439.12 602.007 438.195C603.751 437.27 609.683 433.002 609.683 433.002C609.683 433.002 588.919 424.782 587.611 425.707Z" fill="#F2F2F2"/>
<path d="M627.308 427.095L635.597 428.483L634.724 439.12L623.163 436.143L627.308 427.095Z" fill="#FFB9B9"/>
<path d="M632.501 430.055C632.501 430.055 628.617 434.958 632.543 437.733L635.16 440.045C635.16 440.045 643.885 441.895 644.757 442.82C645.63 443.745 649.12 441.433 649.12 441.433C649.12 441.433 649.556 427.557 649.12 426.632C648.684 425.707 643.449 424.782 643.013 425.707C642.576 426.632 637.341 428.02 634.288 427.095L632.501 430.055Z" fill="#F2F2F2"/>
<path d="M597.644 405.357C597.644 405.357 567.108 386.394 562.309 393.332C557.51 400.269 552.276 409.982 566.235 417.382C580.195 424.782 623.818 440.045 623.818 440.045C623.818 440.045 630.362 429.408 630.362 426.632C630.362 426.632 607.241 415.532 603.315 414.607C599.389 413.682 583.685 403.044 581.503 402.119C579.322 401.194 576.269 398.419 576.269 398.419L597.644 405.357Z" fill="#2F2E41"/>
<path d="M588.919 348.006L587.174 349.393C587.174 349.393 583.248 360.031 582.812 366.044C582.376 372.056 577.141 390.557 577.577 392.869C578.014 395.182 578.45 397.032 581.067 399.344C581.067 399.344 584.557 391.019 590.664 392.407L598.08 363.731L588.919 348.006Z" fill="#FF6584"/>
<path d="M649.992 348.006L653.482 352.168C653.482 352.168 655.663 357.718 655.663 359.106C655.663 360.493 660.026 380.844 660.462 381.769C660.898 382.694 662.643 394.257 660.462 397.032C658.281 399.807 654.355 401.657 654.355 401.657C654.355 401.657 656.972 391.944 648.684 391.482L649.556 387.781L641.704 360.031L649.992 348.006Z" fill="#FF6584"/>
<path d="M589.792 379.849V404.211C589.792 405.749 590.363 407.226 591.381 408.322C592.399 409.418 593.784 410.045 595.234 410.068L643.289 410.822C644.731 410.845 646.125 410.269 647.172 409.216C648.218 408.164 648.836 406.719 648.891 405.191L649.775 380.826C649.803 380.046 649.684 379.267 649.424 378.536C649.165 377.805 648.77 377.137 648.263 376.57C647.756 376.004 647.147 375.55 646.473 375.237C645.798 374.923 645.071 374.756 644.335 374.744L595.396 373.992C594.664 373.981 593.937 374.124 593.258 374.414C592.578 374.703 591.96 375.132 591.438 375.677C590.917 376.222 590.503 376.872 590.22 377.588C589.937 378.304 589.792 379.073 589.792 379.849V379.849Z" fill="#3F3D56"/>
<path d="M621.801 323.249C630.1 323.249 636.827 319.409 636.827 314.671C636.827 309.933 630.1 306.093 621.801 306.093C613.503 306.093 606.775 309.933 606.775 314.671C606.775 319.409 613.503 323.249 621.801 323.249Z" fill="#2F2E41"/>
<path d="M619.238 396.338C621.165 396.338 622.728 394.681 622.728 392.638C622.728 390.594 621.165 388.938 619.238 388.938C617.31 388.938 615.748 390.594 615.748 392.638C615.748 394.681 617.31 396.338 619.238 396.338Z" fill="#F2F2F2"/>
<path d="M2 430H243C435.195 430 591 585.805 591 778V988H350C157.805 988 2 832.195 2 640V430Z" stroke="#1976D2" stroke-width="4"/>
<g clip-path="url(#clip0_232_143)">
<path d="M472.09 720.068C472.564 719.941 473.006 719.702 473.385 719.368C473.765 719.034 474.073 718.613 474.287 718.135C474.502 717.658 474.618 717.134 474.627 716.602C474.636 716.07 474.538 715.542 474.341 715.056L482.995 706.221L477.008 704.65L469.707 713.281C468.981 713.698 468.42 714.391 468.131 715.23C467.841 716.068 467.844 716.993 468.137 717.83C468.431 718.666 468.996 719.356 469.724 719.769C470.453 720.181 471.295 720.288 472.09 720.068V720.068Z" fill="#FFB6B6"/>
<path d="M476.561 712.951L472.525 706.739L487.685 689.623L491.205 662.644C491.379 661.311 491.82 660.035 492.496 658.909C493.173 657.782 494.068 656.832 495.119 656.125C496.169 655.419 497.349 654.973 498.576 654.821C499.802 654.668 501.043 654.812 502.213 655.242C504.324 656.022 506.066 657.684 507.056 659.864C508.046 662.043 508.204 664.563 507.494 666.869L498.513 695.956L476.561 712.951Z" fill="#E4E4E4"/>
<path d="M505.026 827.906H500.545L498.414 809.041L505.027 809.042L505.026 827.906Z" fill="#FFB6B6"/>
<path d="M507.436 837.192H504.257L503.689 833.916L502.236 837.192H493.804C493.4 837.192 493.006 837.051 492.681 836.79C492.355 836.528 492.114 836.16 491.994 835.739C491.874 835.318 491.88 834.865 492.012 834.448C492.144 834.031 492.394 833.671 492.727 833.42L499.46 828.344V825.032L506.543 825.493L507.436 837.192Z" fill="#2F2E41"/>
<path d="M532.668 822.929L528.732 825.266L518.6 809.809L524.408 806.358L532.668 822.929Z" fill="#FFB6B6"/>
<path d="M538.851 829.828L536.059 831.487L534.125 828.905L534.283 832.541L526.877 836.941C526.522 837.152 526.114 837.233 525.714 837.173C525.313 837.114 524.941 836.916 524.651 836.608C524.361 836.301 524.168 835.901 524.101 835.466C524.035 835.03 524.097 834.583 524.279 834.19L527.971 826.218L526.521 823.308L532.944 820.018L538.851 829.828Z" fill="#2F2E41"/>
<path d="M506.913 821.188H497.654V785.197L491.922 761.732C487.808 744.952 486.714 727.459 488.702 710.225L488.71 710.154L488.76 710.108C488.907 709.973 503.579 696.731 512.859 706.861C519.114 713.69 513.236 738.242 512.907 739.59V781.915L506.913 821.188Z" fill="#2F2E41"/>
<path d="M506.891 651.483L506.842 651.43L495.036 651.626L488.732 667.775C482.897 677.668 488.477 683.295 488.869 684.186L487.753 696.325L487.034 704.156L485.88 716.764L512.938 707.115L509.928 693.954L513.406 674.97C514.179 670.773 513.988 666.431 512.851 662.334C511.714 658.236 509.667 654.508 506.891 651.483V651.483Z" fill="#E4E4E4"/>
<path d="M501.39 785.383L520.411 814.588L527.708 808.925L511.822 773.29L501.39 785.383Z" fill="#2F2E41"/>
<path d="M499.836 648.345C505.855 648.345 510.735 643.018 510.735 636.447C510.735 629.876 505.855 624.549 499.836 624.549C493.816 624.549 488.936 629.876 488.936 636.447C488.936 643.018 493.816 648.345 499.836 648.345Z" fill="#FFB6B6"/>
<path opacity="0.1" d="M510.347 682.475L498.46 697.448L487.034 704.156L487.753 696.325L494.481 692.201L510.347 682.475Z" fill="black"/>
<path d="M492.201 658.743L491.179 653.852C490.843 652.215 490.81 650.521 491.083 648.87C491.356 647.219 491.929 645.644 492.768 644.239C493.539 642.914 493.969 641.386 494.012 639.817C494.055 638.248 493.711 636.695 493.014 635.322C492.5 634.212 491.719 633.275 490.755 632.612C489.791 631.949 488.68 631.585 487.54 631.558H487.268V631.261C487.268 626.995 490.314 623.984 493.146 623.811C493.248 622.923 493.825 622.128 494.829 621.496C497.226 619.987 501.862 619.66 505.365 621.671C505.429 621.02 505.654 620.401 506.015 619.879C506.376 619.357 506.86 618.951 507.415 618.705C507.99 618.486 508.61 618.447 509.205 618.592C509.256 617.523 509.66 616.51 510.344 615.741C511.31 614.718 512.862 614.329 514.6 614.672C516.987 615.145 519.34 616.805 521.226 619.347C522.897 621.601 524.058 624.257 525.18 626.825C526.284 629.352 527.425 631.963 529.079 634.175C530.891 636.598 533.136 638.168 535.401 638.595C538.043 639.094 540.754 637.907 541.994 635.709L542.241 635.273L542.465 635.723C543.859 638.519 543.289 642.36 541.109 644.857C539.155 647.096 536.087 648.237 532.907 647.906C530.214 647.626 527.498 646.377 524.834 644.193C522.188 642.025 520.551 639.627 519.97 637.067C519.807 636.275 519.691 635.473 519.621 634.665C519.44 632.972 519.271 631.373 518.316 630.197C517.459 629.139 516.132 628.68 514.956 628.334L514.725 628.266C514.683 628.743 514.546 629.204 514.324 629.617C514.102 630.03 513.8 630.385 513.439 630.658C513.223 630.8 512.985 630.9 512.737 630.953C514.101 636.945 513.54 641.533 511.069 644.592C506.897 649.756 498.88 648.694 498.541 648.647L498.315 648.615L498.304 648.367C498.273 647.701 498.199 647.038 498.081 646.384C496.933 649.404 493.07 657.39 492.553 658.195L492.201 658.743Z" fill="#2F2E41"/>
<path d="M107.291 677.954C106.972 678.412 106.565 678.788 106.099 679.055C105.633 679.323 105.119 679.475 104.593 679.502C104.067 679.53 103.542 679.43 103.055 679.212C102.568 678.994 102.13 678.661 101.774 678.238L90.0351 683.811L91.1785 676.658L102.15 672.463C102.841 671.856 103.711 671.546 104.597 671.593C105.482 671.64 106.321 672.039 106.955 672.716C107.589 673.393 107.973 674.3 108.035 675.266C108.097 676.231 107.832 677.188 107.291 677.954V677.954Z" fill="#A0616A"/>
<path d="M99.4574 680.188L72.1929 693.445L72.1344 693.422L41.0598 681.334C38.7452 680.014 36.9805 677.777 36.1271 675.083C35.2738 672.389 35.3963 669.44 36.4695 666.841V666.841C37.0644 665.405 37.9312 664.123 39.0128 663.079C40.0944 662.035 41.3663 661.253 42.7447 660.784C44.1231 660.315 45.5769 660.171 47.0103 660.36C48.4436 660.548 49.8241 661.066 51.0608 661.88L74.1861 677.086L96.6105 673.913L99.4574 680.188Z" fill="#3F3D56"/>
<path d="M110.88 592.904C100.573 568.017 100.953 536.473 116.949 515.473C122.301 544.593 136.916 570.708 158.209 589.198C166.444 596.296 176.281 603.255 178.531 614.443C179.931 621.404 177.947 628.767 174.516 634.831C171.086 640.895 166.304 645.884 161.576 650.8L161.046 652.482C140.475 636.935 121.187 617.79 110.88 592.904Z" fill="#F0F0F0"/>
<path d="M117.395 515.776C113.713 537.781 116.448 561.211 125.396 581.371C127.33 585.73 129.64 589.967 132.733 593.473C135.771 596.864 139.587 599.306 143.782 600.544C147.672 601.784 151.783 602.56 155.33 604.811C159.068 607.183 161.388 611.164 162.292 615.729C163.398 621.314 162.599 627 161.641 632.53C160.578 638.671 159.384 645.031 160.925 651.204C161.112 651.952 160.038 652.224 159.851 651.478C157.169 640.738 162.383 630.145 161.655 619.347C161.315 614.309 159.581 609.351 155.624 606.432C152.163 603.879 147.924 603.075 143.975 601.856C139.828 600.577 136.104 598.623 132.935 595.382C129.694 592.066 127.227 587.918 125.199 583.633C120.667 573.878 117.567 563.405 116.015 552.599C114.181 540.277 114.291 527.703 116.341 515.421C116.468 514.661 117.521 515.021 117.395 515.776V515.776Z" fill="white"/>
<path d="M122.171 574.986C118.832 576.154 115.221 575.988 111.983 574.519C108.745 573.049 106.092 570.371 104.496 566.963C104.175 566.272 105.144 565.695 105.465 566.387C106.945 569.564 109.417 572.058 112.435 573.42C115.452 574.782 118.816 574.921 121.92 573.813C122.595 573.574 122.841 574.747 122.171 574.986L122.171 574.986Z" fill="white"/>
<path d="M141.733 600.199C145.07 593.274 145.893 585.23 144.038 577.673C143.854 576.924 144.928 576.651 145.112 577.399C147.029 585.268 146.157 593.636 142.67 600.834C142.337 601.52 141.402 600.881 141.733 600.199Z" fill="white"/>
<path d="M115.598 540.668C116.976 540.51 118.297 539.98 119.442 539.127C120.586 538.274 121.519 537.124 122.156 535.781C122.48 535.091 123.415 535.731 123.092 536.416C122.382 537.897 121.351 539.166 120.088 540.111C118.826 541.057 117.37 541.65 115.849 541.84C115.707 541.871 115.559 541.842 115.436 541.758C115.313 541.675 115.224 541.543 115.187 541.391C115.154 541.235 115.179 541.072 115.256 540.937C115.333 540.801 115.456 540.705 115.598 540.668V540.668Z" fill="white"/>
<path d="M201.662 515.717C201.47 516.154 201.279 516.591 201.092 517.037C198.545 522.929 196.441 529.038 194.801 535.302C194.667 535.784 194.538 536.275 194.417 536.76C190.613 551.898 189.416 567.675 190.888 583.29C191.479 589.502 192.502 595.657 193.949 601.7C195.947 610.046 198.722 618.922 198.095 627.256C198.039 628.126 197.933 628.992 197.779 629.848L162.967 653.058C162.864 653.067 162.765 653.086 162.661 653.095L161.31 654.091C161.215 653.785 161.123 653.466 161.029 653.16C160.973 652.982 160.926 652.8 160.87 652.623C160.836 652.503 160.801 652.383 160.764 652.277C160.752 652.237 160.741 652.197 160.734 652.166C160.697 652.06 160.672 651.957 160.64 651.86C160.121 650.075 159.612 648.283 159.115 646.484C159.11 646.475 159.11 646.475 159.113 646.462C155.352 632.743 152.608 618.562 151.922 604.377C151.902 603.95 151.876 603.515 151.872 603.077C151.595 596.681 151.798 590.272 152.478 583.912C152.861 580.431 153.405 576.973 154.108 573.552C155.94 564.716 159.034 556.25 163.277 548.464C171.736 532.943 184.648 520.549 200.451 516.048C200.856 515.933 201.252 515.823 201.662 515.717Z" fill="#F0F0F0"/>
<path d="M201.853 516.251C186.777 531.4 176.038 551.906 172.063 573.883C171.203 578.634 170.71 583.536 171.246 588.367C171.801 593.072 173.501 597.529 176.168 601.275C178.59 604.821 181.445 608.143 183.035 612.271C184.711 616.622 184.368 621.325 182.572 625.564C180.374 630.75 176.601 634.765 172.785 638.551C168.549 642.755 164.088 647.048 161.914 652.99C161.65 653.71 160.642 653.222 160.905 652.503C164.688 642.165 174.693 637.135 180.067 628.034C182.575 623.788 183.925 618.69 182.375 613.759C181.02 609.446 178.079 606.018 175.598 602.449C172.993 598.703 171.097 594.695 170.355 590.025C169.595 585.247 169.914 580.314 170.658 575.559C172.42 564.792 175.721 554.393 180.442 544.745C185.774 533.701 192.797 523.733 201.208 515.274C201.729 514.751 202.371 515.731 201.853 516.251V516.251Z" fill="white"/>
<path d="M173.009 566.665C169.699 565.403 166.907 562.898 165.133 559.597C163.358 556.296 162.717 552.413 163.322 548.643C163.447 547.881 164.538 548.057 164.413 548.821C163.843 552.33 164.441 555.946 166.1 559.017C167.758 562.087 170.367 564.41 173.456 565.565C174.127 565.816 173.677 566.916 173.009 566.665H173.009Z" fill="white"/>
<path d="M174.723 599.653C181.206 596.317 186.3 590.436 188.987 583.182C189.253 582.463 190.261 582.951 189.996 583.669C187.186 591.212 181.874 597.32 175.12 600.776C174.476 601.105 174.082 599.98 174.723 599.653V599.653Z" fill="white"/>
<path d="M186.69 534.945C187.878 535.724 189.224 536.17 190.608 536.241C191.993 536.312 193.372 536.007 194.621 535.352C195.261 535.015 195.654 536.14 195.019 536.475C193.635 537.191 192.112 537.526 190.582 537.451C189.053 537.376 187.563 536.894 186.244 536.045C186.113 535.977 186.011 535.857 185.959 535.709C185.907 535.562 185.908 535.398 185.963 535.252C186.022 535.106 186.132 534.992 186.269 534.935C186.405 534.877 186.556 534.881 186.69 534.945V534.945Z" fill="white"/>
<path d="M335.139 605.975C324.831 581.089 325.212 549.544 341.208 528.544C346.559 557.664 361.174 583.78 382.467 602.269C390.703 609.368 400.54 616.327 402.789 627.514C404.189 634.476 402.205 641.839 398.775 647.903C395.344 653.967 390.562 658.955 385.835 663.871L385.304 665.554C364.733 650.007 345.446 630.861 335.139 605.975Z" fill="#F0F0F0"/>
<path d="M341.653 528.848C337.972 550.852 340.706 574.283 349.654 594.443C351.589 598.801 353.899 603.039 356.991 606.544C360.03 609.936 363.845 612.378 368.04 613.615C371.931 614.855 376.042 615.632 379.589 617.882C383.327 620.255 385.647 624.235 386.551 628.8C387.656 634.385 386.858 640.071 385.9 645.602C384.836 651.742 383.642 658.102 385.183 664.275C385.37 665.023 384.296 665.296 384.11 664.549C381.428 653.809 386.642 643.217 385.913 632.419C385.573 627.38 383.84 622.423 379.882 619.504C376.421 616.951 372.182 616.146 368.233 614.928C364.087 613.649 360.363 611.695 357.194 608.453C353.952 605.138 351.486 600.99 349.458 596.704C344.925 586.949 341.826 576.477 340.273 565.671C338.439 553.348 338.549 540.774 340.599 528.493C340.726 527.733 341.779 528.093 341.653 528.848V528.848Z" fill="white"/>
<path d="M346.429 588.057C343.09 589.225 339.479 589.06 336.241 587.59C333.004 586.121 330.35 583.443 328.754 580.034C328.434 579.343 329.402 578.767 329.723 579.459C331.204 582.635 333.676 585.13 336.693 586.492C339.711 587.853 343.075 587.993 346.178 586.885C346.853 586.645 347.1 587.819 346.429 588.057V588.057Z" fill="white"/>
<path d="M365.992 613.27C369.328 606.345 370.151 598.302 368.297 590.744C368.112 589.996 369.186 589.723 369.37 590.47C371.287 598.339 370.415 606.708 366.928 613.906C366.596 614.591 365.661 613.952 365.992 613.27Z" fill="white"/>
<path d="M339.857 553.739C341.235 553.581 342.556 553.052 343.7 552.199C344.845 551.346 345.777 550.196 346.414 548.852C346.739 548.162 347.673 548.802 347.351 549.488C346.641 550.969 345.609 552.237 344.347 553.183C343.084 554.128 341.629 554.722 340.107 554.912C339.965 554.943 339.818 554.913 339.695 554.83C339.572 554.747 339.482 554.615 339.445 554.462C339.413 554.307 339.438 554.144 339.515 554.008C339.592 553.873 339.715 553.776 339.857 553.739V553.739Z" fill="white"/>
<path d="M425.92 528.788C425.728 529.225 425.537 529.663 425.35 530.109C422.804 536.001 420.7 542.109 419.06 548.373C418.926 548.856 418.797 549.346 418.676 549.832C414.871 564.969 413.675 580.747 415.147 596.361C415.738 602.574 416.761 608.729 418.207 614.772C420.205 623.118 422.98 631.994 422.354 640.328C422.297 641.198 422.192 642.063 422.037 642.919L387.225 666.129C387.122 666.139 387.023 666.157 386.919 666.167L385.568 667.163C385.474 666.857 385.382 666.537 385.287 666.231C385.232 666.054 385.184 665.872 385.128 665.694C385.094 665.575 385.06 665.454 385.022 665.349C385.011 665.309 384.999 665.269 384.993 665.237C384.955 665.131 384.931 665.029 384.898 664.931C384.379 663.147 383.871 661.355 383.373 659.556C383.368 659.547 383.368 659.547 383.371 659.533C379.61 645.815 376.866 631.634 376.181 617.448C376.16 617.022 376.134 616.586 376.13 616.149C375.853 609.753 376.056 603.343 376.737 596.983C377.119 593.502 377.663 590.044 378.366 586.623C380.199 577.788 383.293 569.321 387.535 561.535C395.994 546.015 408.906 533.62 424.709 529.119C425.114 529.004 425.511 528.894 425.92 528.788Z" fill="#F0F0F0"/>
<path d="M426.112 529.323C411.036 544.472 400.296 564.978 396.321 586.955C395.462 591.706 394.969 596.608 395.504 601.439C396.06 606.144 397.759 610.601 400.426 614.347C402.849 617.893 405.703 621.215 407.293 625.343C408.97 629.694 408.627 634.397 406.83 638.636C404.633 643.822 400.859 647.837 397.044 651.623C392.807 655.827 388.346 660.12 386.172 666.062C385.909 666.782 384.901 666.294 385.164 665.575C388.946 655.237 398.952 650.207 404.326 641.106C406.833 636.86 408.183 631.762 406.634 626.831C405.278 622.518 402.338 619.09 399.857 615.521C397.251 611.775 395.356 607.767 394.613 603.097C393.854 598.319 394.172 593.386 394.917 588.631C396.678 577.864 399.98 567.465 404.7 557.817C410.032 546.773 417.055 536.805 425.466 528.346C425.987 527.823 426.629 528.803 426.112 529.323V529.323Z" fill="white"/>
<path d="M397.268 579.737C393.957 578.475 391.166 575.97 389.391 572.669C387.617 569.367 386.975 565.485 387.581 561.715C387.705 560.953 388.797 561.129 388.672 561.892C388.102 565.402 388.7 569.018 390.358 572.088C392.016 575.159 394.625 577.481 397.714 578.636C398.385 578.888 397.935 579.987 397.268 579.737V579.737Z" fill="white"/>
<path d="M398.981 612.725C405.465 609.388 410.558 603.507 413.246 596.254C413.511 595.535 414.519 596.023 414.254 596.741C411.444 604.283 406.132 610.392 399.378 613.847C398.735 614.176 398.341 613.052 398.981 612.725V612.725Z" fill="white"/>
<path d="M410.948 548.016C412.136 548.796 413.483 549.241 414.867 549.312C416.251 549.384 417.63 549.078 418.88 548.424C419.519 548.086 419.913 549.211 419.277 549.547C417.893 550.263 416.37 550.598 414.841 550.523C413.311 550.448 411.821 549.965 410.502 549.117C410.372 549.049 410.27 548.928 410.218 548.781C410.165 548.633 410.167 548.47 410.221 548.323C410.281 548.178 410.391 548.064 410.527 548.007C410.663 547.949 410.815 547.953 410.948 548.016V548.016Z" fill="white"/>
<path d="M126.681 769.504H391.862V601.921C391.861 600.666 391.403 599.462 390.59 598.574C389.776 597.686 388.673 597.187 387.523 597.185H131.02C129.87 597.187 128.767 597.686 127.954 598.574C127.14 599.462 126.683 600.666 126.681 601.921V769.504Z" fill="#CACACA"/>
<path d="M383.669 603.735H134.875V757.915H383.669V603.735Z" fill="white"/>
<path d="M126.451 764.969V785.649C126.451 786.506 126.605 787.355 126.906 788.147C127.206 788.939 127.647 789.659 128.202 790.265C128.758 790.872 129.417 791.352 130.142 791.681C130.868 792.009 131.646 792.177 132.431 792.177H230.307V832.99H229.007C228.905 832.99 228.804 833.012 228.71 833.054C228.615 833.097 228.53 833.159 228.458 833.238C228.385 833.317 228.328 833.41 228.289 833.513C228.25 833.616 228.23 833.726 228.23 833.838V836.676C228.23 836.788 228.25 836.898 228.289 837.001C228.328 837.104 228.385 837.197 228.458 837.276C228.53 837.355 228.615 837.417 228.71 837.46C228.804 837.503 228.905 837.524 229.007 837.524H289.767C289.869 837.524 289.97 837.503 290.064 837.46C290.159 837.417 290.244 837.355 290.316 837.276C290.389 837.197 290.446 837.104 290.485 837.001C290.524 836.898 290.544 836.788 290.544 836.676V833.838C290.544 833.726 290.524 833.616 290.485 833.513C290.446 833.41 290.389 833.317 290.316 833.238C290.244 833.159 290.159 833.097 290.064 833.054C289.97 833.012 289.869 832.99 289.767 832.99H288.467V792.177H386.343C387.128 792.177 387.906 792.009 388.632 791.681C389.357 791.352 390.017 790.872 390.572 790.265C391.127 789.659 391.568 788.939 391.868 788.147C392.169 787.355 392.323 786.506 392.323 785.649V764.969L126.451 764.969Z" fill="#3F3D56"/>
<path d="M212.237 679.983H151.608C151.186 679.983 150.78 679.799 150.482 679.473C150.183 679.147 150.015 678.705 150.014 678.243V651.39C150.015 650.929 150.183 650.486 150.482 650.16C150.78 649.834 151.186 649.651 151.608 649.65H212.237C212.66 649.651 213.065 649.834 213.364 650.16C213.663 650.486 213.831 650.929 213.831 651.39V678.243C213.831 678.705 213.663 679.147 213.364 679.473C213.065 679.799 212.66 679.983 212.237 679.983V679.983Z" fill="#1976D2"/>
<path d="M206.464 692.865H157.381C156.874 692.865 156.388 692.645 156.029 692.254C155.67 691.862 155.469 691.331 155.469 690.778C155.469 690.224 155.67 689.693 156.029 689.301C156.388 688.91 156.874 688.69 157.381 688.69H206.464C208.931 688.652 208.955 692.903 206.464 692.865Z" fill="#E4E4E4"/>
<path d="M206.464 702.433H157.381C156.874 702.433 156.387 702.213 156.029 701.821C155.67 701.43 155.469 700.899 155.469 700.345C155.469 699.791 155.67 699.26 156.029 698.869C156.387 698.478 156.874 698.258 157.381 698.258H206.464C208.931 698.22 208.955 702.47 206.464 702.433Z" fill="#E4E4E4"/>
<path d="M206.464 712H157.381C156.874 712 156.388 711.78 156.029 711.389C155.67 710.997 155.469 710.466 155.469 709.913C155.469 709.359 155.67 708.828 156.029 708.437C156.388 708.045 156.874 707.825 157.381 707.825H206.464C208.931 707.788 208.955 712.038 206.464 712Z" fill="#E4E4E4"/>
<path d="M289.586 679.983H228.957C228.534 679.983 228.129 679.799 227.831 679.473C227.532 679.147 227.364 678.705 227.363 678.243V651.39C227.364 650.929 227.532 650.486 227.831 650.16C228.129 649.834 228.534 649.651 228.957 649.65H289.586C290.009 649.651 290.414 649.834 290.713 650.16C291.011 650.486 291.18 650.929 291.18 651.39V678.243C291.18 678.705 291.011 679.147 290.713 679.473C290.414 679.799 290.009 679.983 289.586 679.983V679.983Z" fill="#1976D2"/>
<path d="M283.813 692.865H234.73C234.223 692.865 233.736 692.645 233.378 692.254C233.019 691.862 232.818 691.331 232.818 690.778C232.818 690.224 233.019 689.693 233.378 689.301C233.736 688.91 234.223 688.69 234.73 688.69H283.813C286.28 688.652 286.304 692.903 283.813 692.865Z" fill="#E4E4E4"/>
<path d="M283.813 702.433H234.73C234.223 702.433 233.736 702.213 233.378 701.821C233.019 701.43 232.818 700.899 232.818 700.345C232.818 699.791 233.019 699.26 233.378 698.869C233.736 698.478 234.223 698.258 234.73 698.258H283.813C286.28 698.22 286.304 702.47 283.813 702.433Z" fill="#E4E4E4"/>
<path d="M283.813 712H234.73C234.223 712 233.736 711.78 233.378 711.389C233.019 710.997 232.818 710.466 232.818 709.913C232.818 709.359 233.019 708.828 233.378 708.437C233.736 708.045 234.223 707.825 234.73 707.825H283.813C286.28 707.788 286.304 712.038 283.813 712Z" fill="#E4E4E4"/>
<path d="M366.935 679.983H306.306C305.883 679.983 305.478 679.799 305.18 679.473C304.881 679.147 304.713 678.705 304.712 678.243V651.39C304.713 650.929 304.881 650.486 305.18 650.16C305.478 649.834 305.883 649.651 306.306 649.65H366.935C367.358 649.651 367.763 649.834 368.062 650.16C368.36 650.486 368.528 650.929 368.529 651.39V678.243C368.528 678.705 368.36 679.147 368.062 679.473C367.763 679.799 367.358 679.983 366.935 679.983V679.983Z" fill="#1976D2"/>
<path d="M361.162 692.865H312.079C311.572 692.865 311.085 692.645 310.727 692.254C310.368 691.862 310.167 691.331 310.167 690.778C310.167 690.224 310.368 689.693 310.727 689.301C311.085 688.91 311.572 688.69 312.079 688.69H361.162C363.628 688.652 363.653 692.903 361.162 692.865Z" fill="#E4E4E4"/>
<path d="M361.162 702.433H312.079C311.572 702.432 311.087 702.211 310.729 701.82C310.371 701.428 310.17 700.898 310.17 700.345C310.17 699.792 310.371 699.262 310.729 698.87C311.087 698.479 311.572 698.259 312.079 698.258H361.162C363.628 698.22 363.653 702.47 361.162 702.433Z" fill="#E4E4E4"/>
<path d="M361.162 712H312.079C311.572 712 311.085 711.78 310.727 711.389C310.368 710.997 310.167 710.466 310.167 709.913C310.167 709.359 310.368 708.828 310.727 708.437C311.085 708.045 311.572 707.825 312.079 707.825H361.162C363.628 707.788 363.653 712.038 361.162 712Z" fill="#E4E4E4"/>
<path d="M470.537 650.013L470.703 683.672L471.379 683.63L472.021 696.092L470.767 696.166L470.801 703.653L471.806 703.631L472.009 716.103L470.866 716.126L471.41 825.961C471.422 828.837 470.388 831.6 468.535 833.645C466.683 835.69 464.162 836.848 461.528 836.867L350.379 837.524C347.744 837.538 345.212 836.409 343.339 834.386C341.466 832.364 340.404 829.613 340.388 826.737L339.515 650.789C339.503 647.913 340.537 645.149 342.39 643.104C344.243 641.06 346.763 639.901 349.397 639.883L460.546 639.225C463.181 639.213 465.712 640.342 467.585 642.364C469.458 644.387 470.52 647.137 470.537 650.013V650.013Z" fill="#3F3D56"/>
<path d="M461.689 829.947L350.148 830.607C349.336 830.611 348.556 830.263 347.979 829.64C347.401 829.016 347.074 828.169 347.069 827.282L346.189 650.165C346.185 649.278 346.504 648.426 347.075 647.796C347.646 647.166 348.423 646.809 349.235 646.803L460.775 646.143C461.588 646.139 462.368 646.487 462.945 647.11C463.523 647.734 463.85 648.582 463.855 649.468L464.735 826.586C464.738 827.472 464.42 828.324 463.849 828.954C463.277 829.584 462.501 829.941 461.689 829.947V829.947Z" fill="white"/>
<path d="M404.565 643.799C405.032 643.799 405.41 643.386 405.41 642.877C405.41 642.367 405.032 641.954 404.565 641.954C404.098 641.954 403.72 642.367 403.72 642.877C403.72 643.386 404.098 643.799 404.565 643.799Z" fill="white"/>
<path d="M437.74 695.995H373.184C372.734 695.995 372.303 695.8 371.985 695.452C371.667 695.105 371.488 694.634 371.487 694.143V665.55C371.488 665.059 371.667 664.589 371.985 664.241C372.303 663.894 372.734 663.699 373.184 663.698H437.74C438.19 663.699 438.621 663.894 438.939 664.241C439.257 664.589 439.436 665.059 439.437 665.55V694.143C439.436 694.634 439.257 695.105 438.939 695.452C438.621 695.8 438.19 695.995 437.74 695.995V695.995Z" fill="#1976D2"/>
<path d="M431.593 709.712H379.331C378.791 709.712 378.273 709.477 377.891 709.061C377.509 708.644 377.295 708.078 377.295 707.489C377.295 706.899 377.509 706.334 377.891 705.917C378.273 705.5 378.791 705.266 379.331 705.266H431.593C434.219 705.226 434.245 709.752 431.593 709.712Z" fill="#E4E4E4"/>
<path d="M431.593 719.899H379.331C378.792 719.898 378.274 719.663 377.893 719.246C377.512 718.83 377.298 718.265 377.298 717.676C377.298 717.087 377.512 716.522 377.893 716.106C378.274 715.689 378.792 715.454 379.331 715.453H431.593C434.219 715.413 434.245 719.939 431.593 719.899Z" fill="#E4E4E4"/>
<path d="M431.593 730.086H379.331C378.791 730.086 378.273 729.852 377.891 729.435C377.509 729.018 377.295 728.453 377.295 727.863C377.295 727.274 377.509 726.708 377.891 726.292C378.273 725.875 378.791 725.641 379.331 725.641H431.593C434.219 725.6 434.245 730.126 431.593 730.086Z" fill="#E4E4E4"/>
<path d="M437.74 778.961H373.184C372.734 778.961 372.303 778.765 371.985 778.418C371.667 778.071 371.488 777.6 371.487 777.109V748.516C371.488 748.025 371.667 747.554 371.985 747.207C372.303 746.86 372.734 746.665 373.184 746.664H437.74C438.19 746.665 438.621 746.86 438.939 747.207C439.257 747.554 439.436 748.025 439.437 748.516V777.109C439.436 777.6 439.257 778.071 438.939 778.418C438.621 778.765 438.19 778.961 437.74 778.961V778.961Z" fill="#1976D2"/>
<path d="M431.593 792.677H379.331C378.791 792.677 378.273 792.443 377.891 792.027C377.509 791.61 377.295 791.044 377.295 790.455C377.295 789.865 377.509 789.3 377.891 788.883C378.273 788.466 378.791 788.232 379.331 788.232H431.593C434.219 788.192 434.245 792.718 431.593 792.677Z" fill="#E4E4E4"/>
<path d="M431.593 802.865H379.331C378.792 802.864 378.274 802.629 377.893 802.212C377.512 801.795 377.298 801.231 377.298 800.642C377.298 800.053 377.512 799.488 377.893 799.072C378.274 798.655 378.792 798.42 379.331 798.419H431.593C434.219 798.379 434.245 802.905 431.593 802.865Z" fill="#E4E4E4"/>
<path d="M431.593 813.052H379.331C378.791 813.052 378.273 812.818 377.891 812.401C377.509 811.984 377.295 811.419 377.295 810.829C377.295 810.24 377.509 809.674 377.891 809.257C378.273 808.841 378.791 808.606 379.331 808.606H431.593C434.219 808.566 434.245 813.092 431.593 813.052Z" fill="#E4E4E4"/>
<path d="M150.91 828.882L150.695 731.882L151.505 731.88L151.466 714.039L150.656 714.041L150.59 684.259C150.588 683.147 150.384 682.046 149.992 681.019C149.6 679.993 149.026 679.061 148.304 678.276C147.582 677.491 146.725 676.87 145.783 676.447C144.84 676.023 143.831 675.807 142.812 675.81L85.0675 675.962C84.0485 675.964 83.04 676.186 82.0995 676.614C81.159 677.042 80.3049 677.668 79.5861 678.457C78.8672 679.245 78.2977 680.181 77.91 681.209C77.5223 682.238 77.324 683.34 77.3264 684.452L77.3724 705.218L76.0821 705.253L76.3671 717.727L77.4 717.698L77.4061 720.451L76.3069 720.481L76.5919 732.954L77.4337 732.931L77.6466 829.074C77.6471 830.187 77.849 831.289 78.2405 832.317C78.6321 833.344 79.2056 834.277 79.9283 835.063C80.6509 835.848 81.5085 836.469 82.4517 836.892C83.395 837.314 84.4053 837.529 85.4249 837.525L143.169 837.372C145.226 837.364 147.197 836.466 148.648 834.874C150.099 833.282 150.913 831.127 150.91 828.882Z" fill="#3F3D56"/>
<path d="M83.6591 833.643C82.939 833.36 82.316 832.843 81.8747 832.16C81.4335 831.478 81.1955 830.664 81.193 829.828L80.8697 683.68C80.8674 682.603 81.2569 681.57 81.9525 680.807C82.6481 680.044 83.5928 679.614 84.5789 679.611L96.8651 679.579L96.7129 679.989C96.449 680.7 96.3494 681.471 96.4228 682.234C96.4962 682.997 96.7403 683.728 97.1338 684.364C97.5272 685 98.0578 685.52 98.6789 685.879C99.3 686.238 99.9924 686.425 100.695 686.423L127.962 686.352C128.641 686.287 129.296 686.049 129.875 685.657C130.453 685.264 130.939 684.729 131.293 684.093C131.642 683.469 131.851 682.763 131.903 682.034C131.954 681.305 131.847 680.572 131.59 679.897L131.436 679.488L144.127 679.454C145.112 679.453 146.058 679.879 146.757 680.638C147.456 681.397 147.85 682.427 147.854 683.503L148.163 822.942C148.166 825.797 147.131 828.537 145.286 830.561C143.441 832.584 140.936 833.727 138.32 833.737L84.9202 833.878C84.4906 833.879 84.064 833.8 83.6591 833.643V833.643Z" fill="white"/>
<path d="M104.695 683.043C105.162 683.043 105.54 682.63 105.54 682.12C105.54 681.611 105.162 681.198 104.695 681.198C104.228 681.198 103.849 681.611 103.849 682.12C103.849 682.63 104.228 683.043 104.695 683.043Z" fill="white"/>
<path d="M137.372 727.959H93.5009C93.1952 727.959 92.9021 727.826 92.6859 727.59C92.4697 727.354 92.3481 727.034 92.3478 726.7V707.269C92.3481 706.936 92.4697 706.616 92.6859 706.38C92.9021 706.144 93.1952 706.011 93.5009 706.01H137.372C137.677 706.011 137.97 706.144 138.187 706.38C138.403 706.616 138.524 706.936 138.525 707.269V726.7C138.524 727.034 138.403 727.354 138.187 727.59C137.97 727.826 137.677 727.959 137.372 727.959V727.959Z" fill="#1976D2"/>
<path d="M133.194 737.28H97.6782C97.4963 737.281 97.3161 737.242 97.1479 737.166C96.9797 737.09 96.8268 736.979 96.698 736.839C96.5692 736.698 96.467 736.532 96.3973 736.348C96.3276 736.165 96.2917 735.968 96.2917 735.77C96.2917 735.571 96.3276 735.374 96.3973 735.191C96.467 735.007 96.5692 734.841 96.698 734.701C96.8268 734.56 96.9797 734.449 97.1479 734.373C97.3161 734.298 97.4963 734.259 97.6782 734.259H133.194C134.979 734.232 134.997 737.308 133.194 737.28Z" fill="#E4E4E4"/>
<path d="M133.194 744.203H97.6782C97.3112 744.203 96.9593 744.044 96.6998 743.761C96.4403 743.477 96.2945 743.093 96.2945 742.693C96.2945 742.292 96.4403 741.908 96.6998 741.625C96.9593 741.341 97.3112 741.182 97.6782 741.182H133.194C134.979 741.155 134.997 744.231 133.194 744.203Z" fill="#E4E4E4"/>
<path d="M133.194 751.126H97.6782C97.4963 751.126 97.3161 751.088 97.1479 751.012C96.9797 750.936 96.8268 750.825 96.698 750.685C96.5692 750.544 96.467 750.378 96.3973 750.194C96.3276 750.011 96.2917 749.814 96.2917 749.616C96.2917 749.417 96.3276 749.22 96.3973 749.037C96.467 748.853 96.5692 748.687 96.698 748.547C96.8268 748.406 96.9797 748.295 97.1479 748.219C97.3161 748.144 97.4963 748.105 97.6782 748.105H133.194C134.979 748.078 134.997 751.154 133.194 751.126Z" fill="#E4E4E4"/>
<path d="M137.372 786.187H93.5009C93.1952 786.187 92.9021 786.054 92.6859 785.818C92.4697 785.582 92.3481 785.262 92.3478 784.928V765.497C92.3481 765.164 92.4697 764.844 92.6859 764.608C92.9021 764.372 93.1952 764.239 93.5009 764.239H137.372C137.677 764.239 137.97 764.372 138.187 764.608C138.403 764.844 138.524 765.164 138.525 765.497V784.928C138.524 785.262 138.403 785.582 138.187 785.818C137.97 786.054 137.677 786.187 137.372 786.187Z" fill="#1976D2"/>
<path d="M133.194 795.508H97.6782C97.4963 795.509 97.3161 795.47 97.1479 795.394C96.9797 795.318 96.8268 795.207 96.698 795.067C96.5692 794.927 96.467 794.76 96.3973 794.576C96.3276 794.393 96.2917 794.196 96.2917 793.998C96.2917 793.799 96.3276 793.602 96.3973 793.419C96.467 793.236 96.5692 793.069 96.698 792.929C96.8268 792.788 96.9797 792.677 97.1479 792.601C97.3161 792.526 97.4963 792.487 97.6782 792.487H133.194C134.979 792.46 134.997 795.536 133.194 795.508Z" fill="#E4E4E4"/>
<path d="M133.194 802.431H97.6782C97.3112 802.431 96.9593 802.272 96.6998 801.989C96.4403 801.705 96.2945 801.321 96.2945 800.921C96.2945 800.52 96.4403 800.136 96.6998 799.853C96.9593 799.569 97.3112 799.41 97.6782 799.41H133.194C134.979 799.383 134.997 802.459 133.194 802.431Z" fill="#E4E4E4"/>
<path d="M133.194 809.354H97.6782C97.4963 809.355 97.3161 809.316 97.1479 809.24C96.9797 809.164 96.8268 809.053 96.698 808.913C96.5692 808.772 96.467 808.606 96.3973 808.422C96.3276 808.239 96.2917 808.042 96.2917 807.844C96.2917 807.645 96.3276 807.448 96.3973 807.265C96.467 807.081 96.5692 806.915 96.698 806.775C96.8268 806.634 96.9797 806.523 97.1479 806.447C97.3161 806.372 97.4963 806.333 97.6782 806.333H133.194C134.979 806.306 134.997 809.382 133.194 809.354Z" fill="#E4E4E4"/>
<path d="M39.3025 832.216L44.0696 832.216L46.3372 812.146H39.3014L39.3025 832.216Z" fill="#A0616A"/>
<path d="M38.0865 830.517L39.4282 830.517L44.6666 828.192L47.4743 830.517H47.4747C49.0613 830.517 50.583 831.205 51.7049 832.43C52.8269 833.654 53.4572 835.315 53.4573 837.047V837.26L38.0867 837.26L38.0865 830.517Z" fill="#2F2E41"/>
<path d="M57.7755 828.937L62.425 830.083L68.6874 811.051L61.8246 809.359L57.7755 828.937Z" fill="#A0616A"/>
<path d="M56.932 826.988L58.2408 827.31L63.8198 826.301L66.0893 829.244L66.0897 829.245C67.6373 829.626 68.9828 830.663 69.83 832.128C70.6773 833.592 70.9569 835.364 70.6076 837.053L70.5647 837.26L55.5716 833.565L56.932 826.988Z" fill="#2F2E41"/>
<path d="M33.265 709.515C31.03 716.873 31.2663 724.86 33.8022 733.432L34.8862 781.695C34.8862 781.695 33.2711 813.345 38.4828 824.482H46.0413L49.7837 778.805L50.2536 748.145L66.4582 774.011L56.137 823.735L65.4397 824.643L82.1883 770.681L61.5239 718.329L33.265 709.515Z" fill="#2F2E41"/>
<path d="M62.8717 719.874L35.3873 715.076C34.6665 714.824 34.0041 714.404 33.4458 713.847C32.8874 713.289 32.4462 712.606 32.1525 711.844C31.8588 711.083 31.7195 710.261 31.7442 709.435C31.769 708.609 31.9571 707.799 32.2957 707.06L33.5421 704.339L33.058 675.747C32.9996 672.028 33.8395 668.358 35.4933 665.106C37.147 661.854 39.5563 659.134 42.4786 657.221L45.1588 655.472L46.5133 651.717L59.0032 652.049L59.0396 656.974L63.5125 664.76L63.5123 664.792L63.2317 707.169L61.9989 711.542L63.8629 716.628L62.8717 719.874Z" fill="#3F3D56"/>
<path d="M53.902 647.048C60.1695 647.048 65.2504 641.502 65.2504 634.66C65.2504 627.819 60.1695 622.273 53.902 622.273C47.6345 622.273 42.5537 627.819 42.5537 634.66C42.5537 641.502 47.6345 647.048 53.902 647.048Z" fill="#A0616A"/>
<path d="M42.0849 637.361C41.7465 635.804 41.9019 633.614 42.0931 632.047C42.3381 629.98 42.9781 627.993 43.9717 626.213C44.9653 624.434 46.2903 622.903 47.8609 621.718C48.463 621.219 49.1786 620.908 49.9305 620.82C50.3062 620.786 50.6824 620.882 51.0051 621.095C51.3277 621.308 51.5804 621.627 51.7268 622.006C51.9161 621.491 52.2002 621.023 52.5615 620.632C52.9228 620.24 53.3538 619.934 53.8278 619.732C54.7798 619.334 55.8038 619.183 56.8185 619.292C58.7852 619.469 60.6713 620.224 62.2767 621.477C63.8821 622.729 65.1469 624.433 65.9368 626.407C66.2399 627.193 67.0866 624.29 67.4706 625.033C67.8235 625.804 68.4393 626.395 69.186 626.678C69.9385 626.907 70.2442 630.291 70.5403 629.502C70.7701 630.085 70.8609 630.723 70.8043 631.354C70.7477 631.986 70.5456 632.592 70.2167 633.116C69.8878 633.639 69.4429 634.064 68.9233 634.349C68.4038 634.634 67.8265 634.772 67.2453 634.748C66.4856 634.641 65.7325 634.483 64.9902 634.277C63.6272 634.089 62.2485 634.453 61.1144 635.299C59.9803 636.145 59.1692 637.416 58.8344 638.87C58.6273 638.024 58.2963 637.221 57.8544 636.49C57.6301 636.127 57.3296 635.827 56.9778 635.616C56.626 635.405 56.2331 635.289 55.8319 635.277C55.4483 635.325 55.0778 635.458 54.7431 635.668C54.4083 635.878 54.1165 636.161 53.8854 636.498C53.3858 637.139 53.0106 637.886 52.5073 638.523C51.0305 640.391 49.0332 644.75 46.9286 644.432C45.2678 644.181 42.5471 639.486 42.0849 637.361Z" fill="#2F2E41"/>
<path d="M96.2075 710.832C95.7245 711.061 95.2014 711.172 94.675 711.157C94.1486 711.141 93.6317 711 93.1607 710.743C92.6897 710.485 92.2762 710.119 91.9491 709.668C91.622 709.218 91.3894 708.694 91.2677 708.135L78.5319 706.731L82.7336 701.101L94.1835 703.298C95.0577 703.137 95.9557 703.332 96.7073 703.845C97.4588 704.359 98.0117 705.155 98.2612 706.084C98.5107 707.013 98.4394 708.009 98.0609 708.884C97.6824 709.759 97.0229 710.453 96.2075 710.832V710.832Z" fill="#A0616A"/>
<path d="M88.3741 708.599L58.6529 705.61L58.6122 705.559L36.9209 678.428C35.4934 676.041 34.9559 673.148 35.4185 670.343C35.8811 667.537 37.3088 665.03 39.4093 663.336C40.5715 662.401 41.9019 661.745 43.313 661.412C44.7242 661.079 46.1839 661.075 47.5963 661.402C49.0087 661.729 50.3416 662.379 51.5073 663.309C52.6731 664.238 53.6452 665.427 54.3597 666.797L67.7198 692.404L88.7015 701.607L88.3741 708.599Z" fill="#3F3D56"/>
<path d="M548.352 838H25.6481C25.4765 837.999 25.3122 837.925 25.191 837.792C25.0699 837.659 25.0019 837.48 25.0019 837.293C25.0019 837.105 25.0699 836.926 25.191 836.793C25.3122 836.66 25.4765 836.586 25.6481 836.585H548.352C548.524 836.585 548.689 836.66 548.81 836.792C548.932 836.925 549 837.105 549 837.293C549 837.48 548.932 837.66 548.81 837.793C548.689 837.925 548.524 838 548.352 838V838Z" fill="#CCCCCC"/>
<path d="M457.451 711.547C457.936 711.598 458.426 711.532 458.885 711.354C459.344 711.177 459.762 710.891 460.11 710.517C460.457 710.144 460.725 709.692 460.895 709.193C461.065 708.694 461.133 708.161 461.093 707.631L471.938 702.419L466.765 698.774L457.259 704.282C456.447 704.413 455.708 704.865 455.181 705.552C454.653 706.238 454.375 707.112 454.399 708.008C454.422 708.903 454.746 709.758 455.309 710.411C455.871 711.063 456.633 711.467 457.451 711.547V711.547Z" fill="#FFB6B6"/>
<path d="M463.827 706.446L461.901 699.127L481.396 688.45L492.895 664.263C493.464 663.067 494.266 662.023 495.246 661.204C496.226 660.385 497.359 659.811 498.564 659.524C499.77 659.237 501.019 659.243 502.222 659.542C503.425 659.841 504.554 660.425 505.527 661.253V661.253C507.283 662.752 508.423 664.949 508.696 667.364C508.97 669.778 508.355 672.213 506.986 674.133L489.694 698.337L463.827 706.446Z" fill="#E4E4E4"/>
</g>
<defs>
<clipPath id="clip0_232_143">
<rect width="524" height="323" fill="white" transform="translate(25 515)"/>
</clipPath>
</defs>
</svg>
